<svg xmlns="http://www.w3.org/2000/svg" xmlns:xlink="http://www.w3.org/1999/xlink" xmlns:lucid="lucid" width="3700" height="1620"><g transform="translate(-340 -160)" lucid:page-tab-id="0_0"><path d="M0 0h5484.6v2581.67H0z" fill="#fff"/><path d="M401.67 1760H366a6 6 0 0 1-6-6V186a6 6 0 0 1 6-6h35.67z" stroke="#3a414a" fill="#fff"/><path d="M401.67 180H4014a6 6 0 0 1 6 6v814H401.67zM4020 1000v754a6 6 0 0 1-6 6H401.67v-760z" stroke="#3a414a" fill="none"/><use xlink:href="#a" transform="matrix(-1.8369701987210297e-16,-1,1,-1.8369701987210297e-16,360.0000000000001,1760) translate(767.8086419753087 25.444444444444443)"/><use xlink:href="#b" transform="matrix(-1.8369701987210297e-16,-1,1,-1.8369701987210297e-16,401.6666666666667,1000) translate(385.30864197530866 25.444444444444443)"/><use xlink:href="#b" transform="matrix(-1.8369701987210297e-16,-1,1,-1.8369701987210297e-16,401.6666666666665,1760) translate(355.30864197530866 25.444444444444443)"/><path d="M503.33 656.42c0 16.57-13.43 30-30 30s-30-13.43-30-30 13.43-30 30-30 30 13.43 30 30z" stroke="#3a414a" fill="#fff"/><path d="M453.33 645.17h40v22.5h-40z" stroke="#3a414a" fill="#fff"/><path d="M453.33 645.17l20 11.25 20-11.25" stroke="#3a414a" fill="none"/><use xlink:href="#c" transform="matrix(1,0,0,1,443.33333333333337,688.4173228346456) translate(-12.530864197530867 17.77777777777778)"/><path d="M504.33 656.42H666.5" stroke="#3a414a" fill="none"/><path d="M504.35 656.92h-.56l.03-.5v-.5h.52z" stroke="#3a414a" stroke-width=".05" fill="#3a414a"/><path d="M681.25 656.42L667 661.05v-9.27z" stroke="#3a414a" fill="#3a414a"/><path d="M683.33 602.42a6 6 0 0 1 6-6h148a6 6 0 0 1 6 6v108a6 6 0 0 1-6 6h-148a6 6 0 0 1-6-6z" stroke="#3a414a" fill="#fff"/><use xlink:href="#d" transform="matrix(1,0,0,1,683.3333333333334,596.4173228346456) translate(36.270432098765426 51.52777777777778)"/><use xlink:href="#e" transform="matrix(1,0,0,1,683.3333333333334,596.4173228346456) translate(39.94327160493827 78.19444444444446)"/><path d="M1043.33 797.67c0-6.22-26.86-11.25-60-11.25-33.13 0-60 5.03-60 11.25v69.75c0 3.96 26.87 9 60 9 33.14 0 60-5.04 60-11.25z" stroke="#3a414a" fill="#fff"/><path d="M1043.33 797.67c0 6.2-26.86 11.25-60 11.25-33.13 0-60-5.04-60-11.25m120 8.55c0 3.96-26.86 9-60 9-33.13 0-60-5.04-60-11.25m120 8.55c0 3.96-26.86 9-60 9-33.13 0-60-5.04-60-11.25" stroke="#3a414a" fill="#fff"/><use xlink:href="#f" transform="matrix(1,0,0,1,923.3333333333334,826.4173228346456) translate(8.858024691358025 24.444444444444443)"/><path d="M921.92 830.92v1h-1.48v-1zm-3.46 0v1h-2.97v-1zm-4.95 0v1h-2.97v-1zm-4.95 0v1h-2.97v-1zm-4.95 0v1h-2.97v-1zm-4.95 0v1l-2.97-.02v-1zm-4.96-.02v1h-2.98v-1zm-4.96 0v1h-2.97v-1zm-4.95 0v1h-2.98v-1zm-4.96 0v1h-2.97v-1zm-4.96 0v1h-2.97v-1zm-4.95 0v1h-2.97v-1zm-4.95 0v1H861v-1zm-4.95 0v1h-2.98v-1zm-4.96-.02v1h-2.97v-1zm-4.95 0v1h-2.97v-1zm-4.95 0v1h-2.97v-1zm-4.95 0v1h-2.98v-1zm-4.96 0v1h-2.97v-1zm-4.95 0v1h-2.96v-1zm-4.94 0v1h-2.97v-1zm-4.95 0v1h-2.97v-1zm-55.57-10.13h-1v-1.72h1zm0-3.68h-1v-2.95h1zm0-4.9h-1v-2.96h1zm0-4.92h-1v-2.95h1zm0-4.9h-1v-2.96h1zm0-4.92h-1v-2.95h1zm0-4.9h-1v-2.96h1zm0-4.93h-1v-2.94h1zm0-4.9h-1v-2.95h1zm0-4.92h-1v-2.94h1zm0-4.9h-1v-2.95h1zm0-4.92h-1V765h1zm0-4.9h-1v-2.96h1zm0-4.92h-1v-2.95h1zm0-4.9h-1v-2.96h1zm0-4.92h-1v-2.95h1zm0-4.9h-1v-2.96h1zm0-4.92h-1v-2.95h1zm0-4.9h-1v-2.96h1zm0-4.92h-1v-2.95h1zm0-4.92h-1v-2.94h1zm0-4.9h-1v-1.48h1z" stroke="#3a414a" stroke-width=".05" fill="#3a414a"/><path d="M763.83 717.4h-1v-.52h1z" fill="#3a414a"/><path d="M763.86 717.42h-1.05v-.56h1.06zm-1-.5v.45h.95v-.46zM922.83 831.42l-17.94 10.6-.52-.85 16.5-9.75-16.5-9.75.5-.86z" stroke="#3a414a" stroke-width=".05" fill="#3a414a"/><use xlink:href="#g" transform="matrix(1,0,0,1,755.7408870550557,820.750656167979) translate(0 14.222222222222223)"/><path d="M844.3 656.42h242.2" stroke="#3a414a" fill="none"/><path d="M844.3 656.92h-.5v-1h.5z" stroke="#3a414a" stroke-width=".05" fill="#3a414a"/><path d="M1101.25 656.42l-14.26 4.63v-9.27z" stroke="#3a414a" fill="#3a414a"/><path d="M1103.33 602.42a6 6 0 0 1 6-6h148a6 6 0 0 1 6 6v108a6 6 0 0 1-6 6h-148a6 6 0 0 1-6-6z" stroke="#3a414a" fill="#fff"/><use xlink:href="#h" transform="matrix(1,0,0,1,1103.3333333333335,596.4173228346456) translate(17.7519135802469 22.787777777777777)"/><use xlink:href="#i" transform="matrix(1,0,0,1,1103.3333333333335,596.4173228346456) translate(17.7519135802469 49.45444444444445)"/><use xlink:href="#j" transform="matrix(1,0,0,1,1103.3333333333335,596.4173228346456) translate(34.44944444444444 76.1211111111111)"/><use xlink:href="#k" transform="matrix(1,0,0,1,1103.3333333333335,596.4173228346456) translate(32.535864197530856 102.78777777777779)"/><path d="M1583.33 602.42a6 6 0 0 1 6-6h148a6 6 0 0 1 6 6v108a6 6 0 0 1-6 6h-148a6 6 0 0 1-6-6z" stroke="#3a414a" fill="#fff"/><use xlink:href="#h" transform="matrix(1,0,0,1,1583.3333333333335,596.4173228346456) translate(17.7519135802469 51.52777777777778)"/><use xlink:href="#l" transform="matrix(1,0,0,1,1583.3333333333335,596.4173228346456) translate(20.221049382716032 78.19444444444446)"/><path d="M2083.33 602.42a6 6 0 0 1 6-6h148a6 6 0 0 1 6 6v108a6 6 0 0 1-6 6h-148a6 6 0 0 1-6-6z" stroke="#3a414a" fill="#fff"/><use xlink:href="#h" transform="matrix(1,0,0,1,2083.3333333333335,596.4173228346456) translate(17.7519135802469 51.52777777777778)"/><use xlink:href="#m" transform="matrix(1,0,0,1,2083.3333333333335,596.4173228346456) translate(28.863024691358014 78.19444444444446)"/><path d="M1045.8 831.92h-1.47v-1h1.48zm4.94 0h-2.96v-1h2.96zm4.92 0h-2.95v-1h2.96zm4.93 0h-2.97v-1h2.96zm4.9 0h-2.94v-1h2.95zm2.05 0h-.06v-1h.05zm76.78 0h-2.96v-1h2.96zm4.93 0h-2.96v-1h2.96zm4.92 0h-2.95v-1h2.95zm4.93 0h-2.95v-1h2.96zm4.93 0h-2.95v-1h2.95zm4.93 0H1166v-1h2.96zm4.93 0h-2.97v-1h2.96zm4.8-.17l-.35.1-1 .07h-1.5v-1h1.46l.9-.07.28-.07zm-39.3.17h-1.83v-1h1.83zm43.08-2.54l-.55.63-.78.68-.7.44-.53-.86.65-.4.65-.55.5-.57zm1.28-4.5v1.54l-.24 1-.14.35-.93-.4.1-.25.2-.82v-1.42zm0-4.94v2.96h-1v-2.96zm0-4.93v2.97h-1V815zm0-4.93v2.96h-1v-2.96zm0-4.93v2.96h-1v-2.96zm.02-4.94v2.96h-1v-2.96zm0-4.93v2.96h-1v-2.96zm0-4.94v2.96h-1v-2.97zm0-4.93v2.96h-1v-2.96zm0-4.94v2.96h-1v-2.96zm0-4.93v2.96h-1v-2.97zm.02-4.94v2.95h-1v-2.96zm0-4.94v2.96h-1v-2.96zm0-4.94v2.96h-1v-2.96zm0-4.93v2.95h-1v-2.96zm0-4.95v2.96h-1v-2.95zm0-4.93v2.96h-1v-2.96zm.02-4.94v2.96h-1v-2.96zm0-4.93V739h-1v-2.95zm0-4.94v2.97h-1v-2.96zm0-4.92v2.96h-1v-2.96zm0-4.94v2.97h-1v-2.96zm0-3.45v1.47h-1v-1.48z" stroke="#3a414a" stroke-width=".05" fill="#3a414a"/><path d="M1044.35 831.92h-.52v-1h.52z" fill="#3a414a"/><path d="M1044.37 831.94h-.56v-1.05h.57zm-.5-1v.95h.45v-.96zM1193.94 734.82l-.86.5-9.75-16.47-9.75 16.48-.86-.5 10.6-17.95z" stroke="#3a414a" stroke-width=".05" fill="#3a414a"/><path d="M1045.83 831.92h-1.5v-1h1.5zm4.98 0h-2.98v-1h3zm5 0h-3v-1h3zm4.98 0h-3v-1h3zm4.98 0h-3v-1h3zm79.74 0h-3v-1h3zm5 0h-3v-1h3zm4.97 0h-3v-1h3zm4.98 0h-3v-1h3zm5 0h-3v-1h3zm4.97 0h-3v-1h3zm5 0h-3v-1h3zm4.97 0h-3v-1h3zm4.97 0h-3v-1h3zm5 0h-3v-1h3zm4.97 0h-3v-1h3zm4.98 0h-3v-1h3zm5 0h-3v-1h3zm4.97 0h-3v-1h3zm4.98 0h-3v-1h3zm4.98 0h-3v-1h3zm4.98 0h-3v-1h3zm5 0h-3v-1h3zm4.97 0h-2.98v-1h3zm5 0h-3v-1h3zm4.98 0h-3v-1h3zm4.98 0h-3v-1h3zm5 0h-3v-1h3zm4.97 0h-3v-1h3zm4.98 0h-2.98v-1h3zm5 0h-3v-1h3zm4.98 0h-3v-1h3zm4.98 0h-3v-1h3zm5 0h-3v-1h3zm4.97 0h-3v-1h3zm5 0h-3v-1h3zm4.97 0h-3v-1h3zm4.98 0h-3v-1h3zm5 0h-3v-1h3zm4.97 0h-3v-1h3zm4.98 0h-3v-1h3zm5 0h-3v-1h3zm4.97 0h-3v-1h3zm5 0h-3v-1h3zm4.97 0h-3v-1h3zm4.98 0h-3v-1h3zm5 0h-3v-1h3zm4.97 0h-3v-1h3zm4.98 0h-3v-1h3zm5 0h-3v-1h3zm4.97 0h-3v-1h3zm5 0h-3v-1h3zm4.97 0h-3v-1h3zm4.98 0h-3v-1h3zm5 0h-3v-1h3zm4.97 0h-3v-1h3zm4.97 0h-3v-1h3zm5 0h-3v-1h3zm4.97 0h-3v-1h3zm5 0h-3v-1h3zm4.97 0h-2.98v-1h3zm5 0h-3v-1h3zm4.98 0h-3v-1h3zm4.98 0h-3v-1h3zm4.98 0h-3v-1h3zm5 0h-3v-1h3zm4.97 0h-2.98v-1h3zm5 0h-3v-1h3zm4.98 0h-3v-1h3zm4.98 0h-3v-1h3zm5 0h-3v-1h3zm4.97 0h-3v-1h3zm4.98 0h-2.98v-1h3zm5 0h-3v-1h3zm4.98 0h-3v-1h3zm5 0h-3v-1h3zm4.97 0h-3v-1h3zm4.98 0h-3v-1h3zm5 0h-3v-1h3zm4.97 0h-3v-1h3zm4.98 0h-3v-1h3zm5 0h-3v-1h3zm4.97 0h-3v-1h3zm4.98 0h-3v-1h3zm5 0h-3v-1h3zm4.97 0h-3v-1h3zm5 0h-3v-1h3zm4.97 0h-3v-1h3zm4.98 0h-3v-1h3zm5 0h-3v-1h3zm4.97 0h-3v-1h3zm4.98 0h-3v-1h3zm5 0h-3v-1h3zm4.97 0h-3v-1h3zm5 0h-3v-1h3zm4.97 0h-3v-1h3zm4.98 0h-3v-1h3zm5 0h-3v-1h3zm4.97 0h-3v-1h3zm4.97 0h-3v-1h3zm5 0h-3v-1h3zm4.97 0h-3v-1h3zm5 0h-3v-1h3zm4.97 0h-2.98v-1h3zm5 0h-3v-1h3zm4.98 0h-3v-1h3zm4.98 0h-3v-1h3zm4.98 0h-3v-1h3zm4.87-.17l-.35.1-1 .07h-1.5v-1h1.46l.9-.07.28-.07zm-518.18.17h-2.95v-1h2.95zm521.96-2.54l-.55.63-.78.68-.7.44-.53-.86.65-.4.65-.55.5-.57zm1.28-4.5v1.54l-.24 1-.14.35-.93-.4.1-.25.2-.82v-1.42zm0-4.94v2.96h-1v-2.96zm0-4.93v2.97h-1V815zm0-4.93v2.96h-1v-2.96zm0-4.93v2.96h-1v-2.96zm.02-4.94v2.96h-1v-2.96zm0-4.93v2.96h-1v-2.96zm0-4.94v2.96h-1v-2.97zm0-4.93v2.96h-1v-2.96zm0-4.94v2.96h-1v-2.96zm0-4.93v2.96h-1v-2.97zm.02-4.94v2.95h-1v-2.96zm0-4.94v2.96h-1v-2.96zm0-4.94v2.96h-1v-2.96zm0-4.93v2.95h-1v-2.96zm0-4.95v2.96h-1v-2.95zm0-4.93v2.96h-1v-2.96zm.02-4.94v2.96h-1v-2.96zm0-4.93V739h-1v-2.95zm0-4.94v2.97h-1v-2.96zm0-4.92v2.96h-1v-2.96zm0-4.94v2.97h-1v-2.96zm0-3.45v1.47h-1v-1.48z" stroke="#3a414a" stroke-width=".05" fill="#3a414a"/><path d="M1044.35 831.92h-.52v-1h.52z" fill="#3a414a"/><path d="M1044.37 831.94h-.56v-1.05h.57zm-.5-1v.95h.45v-.96zM1673.94 734.82l-.86.5-9.75-16.47-9.75 16.48-.86-.5 10.6-17.95z" stroke="#3a414a" stroke-width=".05" fill="#3a414a"/><path d="M1045.83 831.92h-1.5v-1h1.5zm5 0h-3v-1h3zm4.98 0h-2.98v-1h3zm5 0h-3v-1h3zm5 0h-3v-1h3zm74.86 0h-3v-1h3zm5 0h-3v-1h3zm4.98 0h-3v-1h3zm5 0h-3v-1h3zm4.98 0h-3v-1h3zm5 0h-3v-1h3zm5 0h-3v-1h3zm4.98 0h-3v-1h3zm5 0h-3v-1h3zm4.98 0h-3v-1h3zm5 0h-3v-1h3zm4.98 0h-3v-1h3zm5 0h-3v-1h3zm4.98 0h-3v-1h3zm5 0h-3v-1h3zm5 0h-3v-1h3zm4.98 0h-3v-1h3zm5 0h-3v-1h3zm4.98 0h-3v-1h3zm5 0h-3v-1h3zm4.98 0h-3v-1h3zm5 0h-3v-1h3zm4.98 0h-3v-1h3zm5 0h-3v-1h3zm4.98 0h-3v-1h3zm5 0h-3v-1h3zm5 0h-3v-1h3zm4.98 0h-3v-1h3zm5 0h-3v-1h3zm4.98 0h-3v-1h3zm5 0h-3v-1h3zm4.98 0h-3v-1h3zm5 0h-3v-1h3zm4.98 0h-3v-1h3zm5 0h-3v-1h3zm5 0h-3v-1h3zm4.98 0h-3v-1h3zm5 0h-3v-1h3zm4.98 0h-3v-1h3zm5 0h-3v-1h3zm4.98 0h-3v-1h3zm5 0h-3v-1h3zm4.98 0h-3v-1h3zm5 0h-3v-1h3zm5 0h-3v-1h3zm4.98 0h-3v-1h3zm5 0h-3v-1h3zm4.98 0h-3v-1h3zm5 0h-3v-1h3zm4.98 0h-3v-1h3zm5 0h-3v-1h3zm4.98 0h-3v-1h3zm5 0h-3v-1h3zm4.98 0h-3v-1h3zm5 0h-3v-1h3zm5 0h-3v-1h3zm4.98 0h-3v-1h3zm5 0h-3v-1h3zm4.98 0h-3v-1h3zm5 0h-3v-1h3zm4.98 0h-3v-1h3zm5 0h-3v-1h3zm4.98 0h-3v-1h3zm5 0h-3v-1h3zm5 0h-3v-1h3zm4.98 0h-3v-1h3zm5 0h-3v-1h3zm4.98 0h-3v-1h3zm5 0h-3v-1h3zm4.98 0h-3v-1h3zm5 0h-3v-1h3zm4.98 0h-3v-1h3zm5 0h-3v-1h3zm5 0h-3v-1h3zm4.98 0h-3v-1h3zm5 0h-3v-1h3zm4.98 0h-3v-1h3zm5 0h-3v-1h3zm4.98 0h-3v-1h3zm5 0h-3v-1h3zm4.98 0h-3v-1h3zm5 0h-3v-1h3zm4.98 0h-3v-1h3zm5 0h-3v-1h3zm5 0h-3v-1h3zm4.98 0h-3v-1h3zm5 0h-3v-1h3zm4.98 0h-3v-1h3zm5 0h-3v-1h3zm4.98 0h-3v-1h3zm5 0h-3v-1h3zm4.98 0h-3v-1h3zm5 0h-3v-1h3zm5 0h-3v-1h3zm4.98 0h-3v-1h3zm5 0h-3v-1h3zm4.98 0h-3v-1h3zm5 0h-3v-1h3zm4.98 0h-3v-1h3zm5 0h-3v-1h3zm4.98 0h-3v-1h3zm5 0h-3v-1h3zm5 0h-3v-1h3zm4.98 0h-3v-1h3zm5 0h-3v-1h3zm4.98 0h-3v-1h3zm5 0h-3v-1h3zm4.98 0h-3v-1h3zm5 0h-3v-1h3zm4.98 0h-3v-1h3zm5 0h-3v-1h3zm4.98 0h-3v-1h3zm5 0h-3v-1h3zm5 0h-3v-1h3zm4.98 0h-3v-1h3zm5 0h-3v-1h3zm4.98 0h-3v-1h3zm5 0h-3v-1h3zm4.98 0h-3v-1h3zm5 0h-3v-1h3zm4.98 0h-3v-1h3zm5 0h-3v-1h3zm5 0h-3v-1h3zm4.98 0h-3v-1h3zm5 0h-3v-1h3zm4.98 0h-3v-1h3zm5 0h-3v-1h3zm4.98 0h-3v-1h3zm5 0h-3v-1h3zm4.98 0h-3v-1h3zm5 0h-3v-1h3zm5 0h-3v-1h3zm4.98 0h-3v-1h3zm5 0h-3v-1h3zm4.98 0h-3v-1h3zm5 0h-3v-1h3zm4.98 0h-3v-1h3zm5 0h-3v-1h3zm4.98 0h-3v-1h3zm5 0h-3v-1h3zm4.98 0h-3v-1h3zm5 0h-3v-1h3zm5 0h-3v-1h3zm4.98 0h-3v-1h3zm5 0h-3v-1h3zm4.98 0h-3v-1h3zm5 0h-3v-1h3zm4.98 0h-3v-1h3zm5 0h-3v-1h3zm4.98 0h-3v-1h3zm5 0h-3v-1h3zm5 0h-3v-1h3zm4.98 0h-3v-1h3zm5 0h-3v-1h3zm4.98 0h-3v-1h3zm5 0h-3v-1h3zm4.98 0h-3v-1h3zm5 0h-3v-1h3zm4.98 0h-3v-1h3zm5 0h-3v-1h3zm5 0h-3v-1h3zm4.98 0h-3v-1h3zm5 0h-3v-1h3zm4.98 0h-3v-1h3zm5 0h-3v-1h3zm4.98 0h-3v-1h3zm5 0h-3v-1h3zm4.98 0h-3v-1h3zm5 0h-3v-1h3zm4.98 0h-3v-1h3zm5 0h-3v-1h3zm5 0h-3v-1h3zm4.98 0h-3v-1h3zm5 0h-3v-1h3zm4.98 0h-3v-1h3zm5 0h-3v-1h3zm4.98 0h-3v-1h3zm5 0h-3v-1h3zm4.98 0h-3v-1h3zm5 0h-3v-1h3zm5 0h-3v-1h3zm4.98 0h-3v-1h3zm5 0h-3v-1h3zm4.98 0h-3v-1h3zm5 0h-3v-1h3zm4.98 0h-3v-1h3zm5 0h-3v-1h3zm4.98 0h-3v-1h3zm5 0h-3v-1h3zm5 0h-3v-1h3zm4.98 0h-3v-1h3zm5 0h-3v-1h3zm4.98 0h-3v-1h3zm5 0h-3v-1h3zm4.98 0h-3v-1h3zm5 0h-3v-1h3zm4.98 0h-3v-1h3zm5 0h-3v-1h3zm4.98 0h-3v-1h3zm5 0h-3v-1h3zm5 0h-3v-1h3zm4.98 0h-3v-1h3zm5 0h-3v-1h3zm4.98 0h-3v-1h3zm4.87-.17l-.35.1-1 .07h-1.5v-1h1.46l.9-.07.28-.07zm3.78-2.37l-.55.63-.78.68-.7.44-.53-.86.65-.4.65-.55.5-.57zm1.28-4.5v1.54l-.24 1-.14.35-.93-.4.1-.25.2-.82v-1.42zm0-4.94v2.96h-1v-2.96zm0-4.93v2.97h-1V815zm0-4.93v2.96h-1v-2.96zm0-4.93v2.96h-1v-2.96zm.02-4.94v2.96h-1v-2.96zm0-4.93v2.96h-1v-2.96zm0-4.94v2.96h-1v-2.97zm0-4.93v2.96h-1v-2.96zm0-4.94v2.96h-1v-2.96zm0-4.93v2.96h-1v-2.97zm.02-4.94v2.95h-1v-2.96zm0-4.94v2.96h-1v-2.96zm0-4.94v2.96h-1v-2.96zm0-4.93v2.95h-1v-2.96zm0-4.95v2.96h-1v-2.95zm0-4.93v2.96h-1v-2.96zm.02-4.94v2.96h-1v-2.96zm0-4.93V739h-1v-2.95zm0-4.94v2.97h-1v-2.96zm0-4.92v2.96h-1v-2.96zm0-4.94v2.97h-1v-2.96zm0-3.45v1.47h-1v-1.48z" stroke="#3a414a" stroke-width=".05" fill="#3a414a"/><path d="M1044.35 831.92h-.52v-1h.52z" fill="#3a414a"/><path d="M1044.37 831.94h-.56v-1.05h.57zm-.5-1v.95h.45v-.96zM2173.94 734.82l-.86.5-9.75-16.47-9.75 16.48-.86-.5 10.6-17.95z" stroke="#3a414a" stroke-width=".05" fill="#3a414a"/><use xlink:href="#n" transform="matrix(1,0,0,1,1067.550134688661,820.7506577842936) translate(0 14.222222222222223)"/><path d="M1264.3 656.42h81.94" stroke="#3a414a" fill="none"/><path d="M1264.3 656.92h-.5v-1h.5z" stroke="#3a414a" stroke-width=".05" fill="#3a414a"/><path d="M1361 656.42l-14.26 4.63v-9.27z" stroke="#3a414a" fill="#3a414a"/><path d="M1363.33 656.42l37.5-37.5 37.5 37.5-37.5 37.5z" stroke="#3a414a" fill="#fff"/><path d="M1498.14 656.92h-58.6v-1h58.6zm68.35 0h-42.73v-1h42.72z" stroke="#3a414a" stroke-width=".05" fill="#3a414a"/><path d="M1439.55 656.92h-1l.5-.5-.5-.5h1z" fill="#3a414a"/><path d="M1439.58 656.94h-1.1l.53-.52-.52-.53h1.1zm-.98-1l.48.48-.48.47h.93v-.96z" stroke="#3a414a" stroke-width=".05" fill="#3a414a"/><path d="M1581.25 656.42l-14.26 4.63v-9.27z" fill="#3a414a"/><path d="M1582.87 656.42l-16.38 5.32V651.1zm-15.38 3.94l12.13-3.94-12.14-3.95z" stroke="#3a414a" stroke-width=".05" fill="#3a414a"/><use xlink:href="#o" transform="matrix(1,0,0,1,1498.1404013046397,645.750656167979) translate(0 14.222222222222223)"/><path d="M1744.3 656.42h61.94" stroke="#3a414a" fill="none"/><path d="M1744.3 656.92h-.5v-1h.5z" stroke="#3a414a" stroke-width=".05" fill="#3a414a"/><path d="M1821 656.42l-14.26 4.63v-9.27z" stroke="#3a414a" fill="#3a414a"/><path d="M1823.33 656.42l37.5-37.5 37.5 37.5-37.5 37.5z" stroke="#3a414a" fill="#fff"/><path d="M1899.54 656.42h166.95" stroke="#3a414a" fill="none"/><path d="M1899.55 656.92h-1l.5-.5-.5-.5h1z" stroke="#3a414a" stroke-width=".05" fill="#3a414a"/><path d="M2081.25 656.42l-14.26 4.63v-9.27z" stroke="#3a414a" fill="#3a414a"/><path d="M1401.33 617.7h-1v-9.03h1zm0-30.37h-1v-3.92h1z" stroke="#3a414a" stroke-width=".05" fill="#3a414a"/><path d="M1401.33 618.7l-.5-.5-.5.5v-1h1z" fill="#3a414a"/><path d="M1401.36 618.77l-.53-.52-.52.52v-1.1h1.06zm-1-1.05v.93l.47-.48.48.48v-.93z" stroke="#3a414a" stroke-width=".05" fill="#3a414a"/><path d="M1405.47 582.9h-9.27l4.63-14.26z" fill="#3a414a"/><path d="M1406.16 583.4h-10.65l5.33-16.37zm-9.27-1h7.88l-3.95-12.14z" stroke="#3a414a" stroke-width=".05" fill="#3a414a"/><use xlink:href="#p" transform="matrix(1,0,0,1,1388.0185185185187,587.3333333333334) translate(0 14.222222222222223)"/><path d="M1316.46 446a6 6 0 0 1 6-6h156.75a6 6 0 0 1 6 6v114.56a6 6 0 0 1-6 6h-156.74a6 6 0 0 1-6-6z" stroke="#3a414a" fill="#fff"/><use xlink:href="#q" transform="matrix(1,0,0,1,1316.4583333333335,440) translate(5.029691358024715 53.49652777777778)"/><use xlink:href="#r" transform="matrix(1,0,0,1,1316.4583333333335,440) translate(20.98648148148147 80.16319444444446)"/><use xlink:href="#s" transform="matrix(1,0,0,1,1316.4583333333335,440) translate(39.50499999999999 80.16319444444446)"/><path d="M1315.5 503.28h-78.62" stroke="#3a414a" fill="none"/><path d="M1316 503.78h-.52v-1h.5z" stroke="#3a414a" stroke-width=".05" fill="#3a414a"/><path d="M1222.12 503.28l14.26-4.63v9.27z" stroke="#3a414a" fill="#3a414a"/><path d="M1220 503.28c0 16.57-13.43 30-30 30s-30-13.43-30-30 13.43-30 30-30 30 13.43 30 30z" stroke="#3a414a" fill="#f4d9ff"/><path d="M1217 503.28c0 14.9-12.1 27-27 27s-27-12.1-27-27 12.1-27 27-27 27 12.1 27 27z" stroke="#3a414a" fill="#f4d9ff"/><use xlink:href="#t" transform="matrix(1,0,0,1,1160,535.28125) translate(1.60493827160494 17.77777777777778)"/><path d="M1663.33 595.45v-86.17a6 6 0 0 0-6-6h-155.27" stroke="#3a414a" fill="none"/><path d="M1663.83 595.95h-1v-.5h1z" stroke="#3a414a" stroke-width=".05" fill="#3a414a"/><path d="M1487.3 503.28l14.26-4.63v9.27z" stroke="#3a414a" fill="#3a414a"/><path d="M2158.33 502.86l1 .24.95.4.87.52.78.66.66.78.53.87.4.94.22 1 .08 1v86.18h-1V509.3l-.07-.88-.2-.84-.33-.8-.45-.73-.56-.66-.65-.57-.74-.45-.8-.33-.82-.2-358.4-.04v-1zm-384.14-.05v1l-272.14-.02v-1z" stroke="#3a414a" stroke-width=".05" fill="#3a414a"/><path d="M2163.83 595.95h-1v-.5h1z" fill="#3a414a"/><path d="M2163.86 595.98h-1.05v-.56h1.06zm-1-.5v.45h.95v-.46z" stroke="#3a414a" stroke-width=".05" fill="#3a414a"/><path d="M1501.56 507.92l-14.27-4.64 14.26-4.63z" fill="#3a414a"/><path d="M1502.06 508.6l-16.4-5.32 16.4-5.32zm-13.15-5.32l12.16 3.95v-7.9z" stroke="#3a414a" stroke-width=".05" fill="#3a414a"/><use xlink:href="#p" transform="matrix(1,0,0,1,1774.1851851851852,492.6145833333333) translate(0 14.222222222222223)"/><path d="M2244.3 656.42h98.6" stroke="#3a414a" fill="none"/><path d="M2244.3 656.92h-.5v-1h.5z" stroke="#3a414a" stroke-width=".05" fill="#3a414a"/><path d="M2357.67 656.42l-14.26 4.63v-9.27z" stroke="#3a414a" fill="#3a414a"/><path d="M2360 656.42l37.5-37.5 37.5 37.5-37.5 37.5z" stroke="#3a414a" fill="#fff"/><path d="M2398 925.8v.15l.04.1.04.12.06.1.08.1.1.07.1.06.1.04.1.03.4.03.27.06.25.1.23.15.2.2.2.2.13.24.12.25.06.28.02 215.07h-1l-.02-214.96-.02-.1-.04-.1-.06-.1-.08-.1-.1-.07-.1-.07-.1-.04-.1-.03-.4-.04-.27-.06-.25-.1-.23-.15-.2-.18-.2-.2-.13-.24-.12-.26-.06-.27-.02-.25v-178.1h1zm0-199.38h-1v-31.3h1z" stroke="#3a414a" stroke-width=".05" fill="#3a414a"/><path d="M2398 695.14h-1v-1.02l.5.5.5-.5z" fill="#3a414a"/><path d="M2398.03 695.16h-1.06v-1.1l.53.53.53-.54zm-.53-.5l-.47-.48v.93h.94v-.92z" stroke="#3a414a" stroke-width=".05" fill="#3a414a"/><path d="M2400 1157.92l-4.64-14.27h9.28z" fill="#3a414a"/><path d="M2400 1159.54l-5.32-16.4h10.64zm-3.95-15.4l3.95 12.16 3.95-12.15z" stroke="#3a414a" stroke-width=".05" fill="#3a414a"/><use xlink:href="#u" transform="matrix(1,0,0,1,2381.746913580247,726.4172886174697) translate(0 14.222222222222223)"/><path d="M2320 1166a6 6 0 0 1 6-6h148a6 6 0 0 1 6 6v108a6 6 0 0 1-6 6h-148a6 6 0 0 1-6-6z" stroke="#3a414a" fill="#fff"/><path d="M2385 1238.8h6.75v30H2385zm11.63 0h6.74v30h-6.74zm11.62 0h6.75v30h-6.75z" fill="#3a414a"/><path d="M2329.46 1203.2h34.14v-11.33s-3.3-5.66-10.04-7.47h-13.1c-6.28 1.93-11.12 8.3-11.12 8.3l.12 10.5z" stroke="#000" fill="#f4f6f7"/><path d="M2329.46 1203.2h34.14v-11.33s-3.3-5.66-10.04-7.47h-13.1c-6.28 1.93-11.12 8.3-11.12 8.3l.12 10.5zM2336.9 1197.04v5.56M2356.62 1197.16v5.8" stroke="#000" fill="none"/><path d="M2354.74 1176.8c0-4.34-3.45-7.84-7.7-7.84-4.23 0-7.66 3.5-7.66 7.83 0 4.32 3.43 7.84 7.67 7.84s7.7-3.52 7.7-7.85z" stroke="#000" fill="#020202"/><path d="M2354.74 1176.8c0-4.34-3.45-7.84-7.7-7.84-4.23 0-7.66 3.5-7.66 7.83 0 4.32 3.43 7.84 7.67 7.84s7.7-3.52 7.7-7.85z" stroke="#000" fill="none"/><path d="M2340.03 1178.48s3.98-3.5 7.6-2.62c3.64.9 6.58-1 6.58-1 .35 2.45.07 5.43-2.06 8.1 0 0 1.54 1.07 1.54 2.16 0 1.1.18 2.7-1.42 4.33-1.6 1.63-7.8 1.8-9.57 0-1.78-1.8-1.78-2.64-1.78-3.84 0-1.2.83-1.8 1.77-2.77-1.55-.85-3.56-3.45-2.67-4.35z" stroke="#000" fill="#f0eff0"/><path d="M2340.03 1178.48s3.98-3.5 7.6-2.62c3.64.9 6.58-1 6.58-1 .35 2.45.07 5.43-2.06 8.1 0 0 1.54 1.07 1.54 2.16 0 1.1.18 2.7-1.42 4.33-1.6 1.63-7.8 1.8-9.57 0-1.78-1.8-1.78-2.64-1.78-3.84 0-1.2.83-1.8 1.77-2.77-1.55-.85-3.56-3.45-2.67-4.35z" stroke="#000" fill="none"/><use xlink:href="#v" transform="matrix(1,0,0,1,2320,1160) translate(61.32598765432099 51.52777777777778)"/><use xlink:href="#w" transform="matrix(1,0,0,1,2320,1160) translate(6.671666666666669 78.19444444444446)"/><path d="M2700.43 1215l-.25 1-.4.95-.52.87-.66.78-.78.66-.87.53-.94.38-.98.24-1 .08h-213.06v-1h213.02l.88-.07.84-.2.8-.33.73-.45.66-.56.55-.67.45-.73.33-.8.2-.82.07-450.33h1z" stroke="#3a414a" stroke-width=".05" fill="#3a414a"/><path d="M2480.98 1220.5h-.52v-1h.52z" fill="#3a414a"/><path d="M2481 1220.53h-.56v-1.06h.56zm-.5-1v.94h.45v-.94z" stroke="#3a414a" stroke-width=".05" fill="#3a414a"/><path d="M2700.3 743.22h-.6l.3-.9z" fill="#3a414a"/><path d="M2700.82 743.22h-1.64l.82-2.5z" stroke="#3a414a" stroke-width=".05" fill="#3a414a"/><use xlink:href="#x" transform="matrix(1,0,0,1,2605.8765432098767,743.2191609750906) translate(0 14.222222222222223)"/><use xlink:href="#y" transform="matrix(1,0,0,1,2605.8765432098767,743.2191609750906) translate(24.69135802469136 14.222222222222223)"/><use xlink:href="#z" transform="matrix(1,0,0,1,2605.8765432098767,743.2191609750906) translate(76.88888888888889 14.222222222222223)"/><path d="M2662.5 702.5L2700 665l37.5 37.5L2700 740z" stroke="#3a414a" fill="#fff"/><path d="M2746.06 585.74l-40.94.02-.82.2-.8.33-.73.44-.66.56-.55.66-.45.73-.33.8-.2.83-.07.88v72.6h-1v-72.63l.08-1 .24-1 .4-.93.52-.87.66-.78.78-.67.87-.53.94-.4 1-.24 41.06-.02zm98.2-63.27l-.08 57.72-.25 1-.4.94-.52.87-.65.8-.78.65-.87.53-.94.4-1 .23-1 .1-81.82.04v-1l81.8-.05.87-.08.85-.2.8-.33.73-.46.66-.56.56-.66.45-.73.33-.8.2-.83.07-57.6z" stroke="#3a414a" stroke-width=".05" fill="#3a414a"/><path d="M2700.5 664.8l-.5-.5-.5.5v-1.02h1z" fill="#3a414a"/><path d="M2700.53 664.85l-.53-.52-.53.52v-1.1h1.06zm-1-1.04v.93l.47-.47.47.47v-.92z" stroke="#3a414a" stroke-width=".05" fill="#3a414a"/><path d="M2848.4 521.97h-9.3l4.65-14.26z" fill="#3a414a"/><path d="M2849.07 522.47h-10.64l5.32-16.38zm-9.27-1h7.9l-3.95-12.15z" stroke="#3a414a" stroke-width=".05" fill="#3a414a"/><use xlink:href="#A" transform="matrix(1,0,0,1,2746.061728395062,574.5239021496759) translate(0 14.222222222222223)"/><path d="M2760 386a6 6 0 0 1 6-6h155.5a6 6 0 0 1 6 6v113.63a6 6 0 0 1-6 6H2766a6 6 0 0 1-6-6z" stroke="#3a414a" fill="#fff"/><path d="M2768.68 395.76h35v20h-35z" stroke="#3a414a"/><path d="M2768.68 395.76l17.5 10 17.5-10" stroke="#fff" fill="none"/><use xlink:href="#B" transform="matrix(1,0,0,1,2760,380) translate(5.264259259259271 58.78777777777778)"/><use xlink:href="#C" transform="matrix(1,0,0,1,2760,380) translate(23.690185185185165 85.45444444444445)"/><path d="M2849.37 896.8l.07.87.2.84.33.8.45.74.56.66.66.56.74.45.8.34.8.2 89.17.07v1l-89.28-.06-1-.24-.95-.4-.87-.53-.78-.66-.66-.77-.52-.87-.4-.94-.23-1-.08-1-.05-138.36h1zm-5.48-194.72l.98.24.94.4.87.52.77.66.66.78.53.87.4.94.24 1v29.63h-1v-29.5l-.2-.83-.33-.8-.45-.73-.56-.66-.66-.55-.73-.45-.8-.33-.84-.2-.88-.07H2738.7v-1h104.2z" stroke="#3a414a" stroke-width=".05" fill="#3a414a"/><path d="M2738.72 703h-1l.5-.5-.5-.5h1z" fill="#3a414a"/><path d="M2738.74 703.02h-1.1l.53-.52-.52-.52h1.1zm-.97-1l.47.48-.47.48h.92V702z" stroke="#3a414a" stroke-width=".05" fill="#3a414a"/><path d="M2957.92 902.8l-14.27 4.65v-9.27z" fill="#3a414a"/><path d="M2959.54 902.8l-16.4 5.34V897.5zm-15.4 3.96l12.16-3.95-12.15-3.93z" stroke="#3a414a" stroke-width=".05" fill="#3a414a"/><use xlink:href="#D" transform="matrix(1,0,0,1,2820.773125180915,737.130826918286) translate(0 14.222222222222223)"/><use xlink:href="#E" transform="matrix(1,0,0,1,2820.773125180915,737.130826918286) translate(14.814814814814817 14.222222222222223)"/><use xlink:href="#F" transform="matrix(1,0,0,1,2820.773125180915,737.130826918286) translate(46.32098765432099 14.222222222222223)"/><path d="M2960 846a6 6 0 0 1 6-6h155.5a6 6 0 0 1 6 6v113.63a6 6 0 0 1-6 6H2966a6 6 0 0 1-6-6z" stroke="#3a414a" fill="#fff"/><use xlink:href="#G" transform="matrix(1,0,0,1,2960,840) translate(23.13462962962962 53.21527777777778)"/><use xlink:href="#H" transform="matrix(1,0,0,1,2960,840) translate(131.5296913580247 53.21527777777778)"/><use xlink:href="#I" transform="matrix(1,0,0,1,2960,840) translate(29.24574074074073 79.88194444444446)"/><path d="M2860.06 660.54l-134.6.03-.8.2-.8.33-.74.45-.65.56-.56.67-.45.73-.33.8-.2.84-.07.88v18.13h-1v-18.17l.08-1 .24-1 .4-.93.52-.87.66-.78.77-.66.87-.53.94-.38 1.02-.25 134.7-.03zm123.1-.04l-113.22.03v-1l113.2-.03z" stroke="#3a414a" stroke-width=".05" fill="#3a414a"/><path d="M2720.85 685.15l-1-1 1-.02z" fill="#3a414a"/><path d="M2720.88 685.2l-1.1-1.08h1.1zm-.97-1.03l.93.92v-.94z" stroke="#3a414a" stroke-width=".05" fill="#3a414a"/><path d="M2997.92 660l-14.27 4.64v-9.28z" fill="#3a414a"/><path d="M2999.54 660l-16.4 5.32v-10.64zm-15.4 3.95l12.16-3.95-12.15-3.95z" stroke="#3a414a" stroke-width=".05" fill="#3a414a"/><use xlink:href="#J" transform="matrix(1,0,0,1,2860.061728395062,649.3333333333334) translate(0 14.222222222222223)"/><path d="M3000 606a6 6 0 0 1 6-6h148a6 6 0 0 1 6 6v108a6 6 0 0 1-6 6h-148a6 6 0 0 1-6-6z" stroke="#3a414a" fill="#fff"/><path d="M3009.46 643.2h34.14v-11.33s-3.3-5.66-10.04-7.47h-13.1c-6.28 1.93-11.12 8.3-11.12 8.3l.12 10.5z" stroke="#000" fill="#f4f6f7"/><path d="M3009.46 643.2h34.14v-11.33s-3.3-5.66-10.04-7.47h-13.1c-6.28 1.93-11.12 8.3-11.12 8.3l.12 10.5zM3016.9 637.04v5.56M3036.62 637.16v5.8" stroke="#000" fill="none"/><path d="M3034.74 616.8c0-4.34-3.45-7.84-7.7-7.84-4.23 0-7.66 3.5-7.66 7.83 0 4.32 3.43 7.84 7.67 7.84s7.7-3.52 7.7-7.85z" stroke="#000" fill="#020202"/><path d="M3034.74 616.8c0-4.34-3.45-7.84-7.7-7.84-4.23 0-7.66 3.5-7.66 7.83 0 4.32 3.43 7.84 7.67 7.84s7.7-3.52 7.7-7.85z" stroke="#000" fill="none"/><path d="M3020.03 618.48s3.98-3.5 7.6-2.62c3.64.9 6.58-1 6.58-1 .35 2.45.07 5.43-2.06 8.1 0 0 1.54 1.07 1.54 2.16 0 1.1.18 2.7-1.42 4.33-1.6 1.63-7.8 1.8-9.57 0-1.78-1.8-1.78-2.64-1.78-3.84 0-1.2.83-1.8 1.77-2.77-1.55-.85-3.56-3.45-2.67-4.35z" stroke="#000" fill="#f0eff0"/><path d="M3020.03 618.48s3.98-3.5 7.6-2.62c3.64.9 6.58-1 6.58-1 .35 2.45.07 5.43-2.06 8.1 0 0 1.54 1.07 1.54 2.16 0 1.1.18 2.7-1.42 4.33-1.6 1.63-7.8 1.8-9.57 0-1.78-1.8-1.78-2.64-1.78-3.84 0-1.2.83-1.8 1.77-2.77-1.55-.85-3.56-3.45-2.67-4.35z" stroke="#000" fill="none"/><use xlink:href="#K" transform="matrix(1,0,0,1,3000,600) translate(52.714876543209876 62.77777777777778)"/><path d="M3160.96 660h121.95" stroke="#3a414a" fill="none"/><path d="M3160.98 660.5h-.52v-1h.52z" stroke="#3a414a" stroke-width=".05" fill="#3a414a"/><path d="M3297.67 660l-14.26 4.64v-9.28z" stroke="#3a414a" fill="#3a414a"/><path d="M3300 660l37.5-37.5L3375 660l-37.5 37.5z" stroke="#3a414a" fill="#fff"/><use xlink:href="#L" transform="matrix(1,0,0,1,3300,697.5) translate(20.833333333333336 17.77777777777778)"/><use xlink:href="#M" transform="matrix(1,0,0,1,3300,697.5) translate(-19.87654320987656 44.44444444444444)"/><path d="M3410.7 442.4l1.02.23.94.4.87.52.77.67.67.77.53.86.4.94.23 1 .08 1-.07 206.2-.24 1-.4.95-.53.87-.67.78-.77.66-.87.53-.94.38-1 .24-1 .08h-33.5v-1h33.47l.87-.07.84-.2.8-.33.74-.45.66-.56.56-.67.45-.73.34-.8.2-.82.07-206.05-.06-.88-.2-.84-.33-.78-.44-.74-.56-.66-.66-.56-.74-.45-.8-.32-.8-.2-260.8-.03v-1zm-286.5-.06v1l-179.85-.03v-1z" stroke="#3a414a" stroke-width=".05" fill="#3a414a"/><path d="M3376.22 660.5h-1l.5-.5-.5-.5h1z" fill="#3a414a"/><path d="M3376.24 660.52h-1.1l.53-.52-.52-.52h1.1zm-.97-1l.47.48-.47.48h.92v-.96z" stroke="#3a414a" stroke-width=".05" fill="#3a414a"/><path d="M2943.85 447.45l-14.27-4.64 14.27-4.62z" fill="#3a414a"/><path d="M2944.35 448.14l-16.4-5.33 16.4-5.3zm-13.15-5.33l12.15 3.96v-7.9z" stroke="#3a414a" stroke-width=".05" fill="#3a414a"/><use xlink:href="#N" transform="matrix(1,0,0,1,3124.185185185185,432.1458333333333) translate(0 14.222222222222223)"/><path d="M3237.2 908.2l-92.85.04v-1l92.84-.04zm100.8-6.44l-.08 1-.24 1-.4.93-.52.86-.66.78-.78.66-.87.53-.94.4-1 .24-69.7.02v-1l69.58-.03.82-.2.8-.33.73-.45.66-.57.55-.66.45-.73.33-.8.2-.84.07-.88v-203h1z" stroke="#3a414a" stroke-width=".05" fill="#3a414a"/><path d="M3338 698.72h-1v-1l.5.5.5-.5z" fill="#3a414a"/><path d="M3338.03 698.74h-1.06v-1.1l.53.53.53-.52zm-.53-.5l-.47-.47v.92h.94v-.93z" stroke="#3a414a" stroke-width=".05" fill="#3a414a"/><path d="M3143.85 912.38l-14.27-4.64 14.27-4.63z" fill="#3a414a"/><path d="M3144.35 913.06l-16.38-5.32 16.38-5.32zm-13.15-5.32l12.15 3.95v-7.9z" stroke="#3a414a" stroke-width=".05" fill="#3a414a"/><use xlink:href="#p" transform="matrix(1,0,0,1,3237.185185185185,897.0739332903893) translate(0 14.222222222222223)"/><path d="M2843.75 379.04V306a6 6 0 0 1 6-6h193.37" stroke="#3a414a" fill="none"/><path d="M2844.25 379.54h-1v-.52h1z" stroke="#3a414a" stroke-width=".05" fill="#3a414a"/><path d="M3057.88 300l-14.26 4.64v-9.28z" stroke="#3a414a" fill="#3a414a"/><path d="M3120 300c0 16.57-13.43 30-30 30s-30-13.43-30-30 13.43-30 30-30 30 13.43 30 30z" stroke="#3a414a" fill="#f4d9ff"/><path d="M3117 300c0 14.9-12.1 27-27 27s-27-12.1-27-27 12.1-27 27-27 27 12.1 27 27z" stroke="#3a414a" fill="#f4d9ff"/><use xlink:href="#t" transform="matrix(1,0,0,1,3060,332) translate(1.60493827160494 17.77777777777778)"/><path d="M3128.5 957h371.75a3.5 3.5 0 0 0 3.5-3.5 3.5 3.5 0 0 1 3.5-3.5h355.87" stroke="#3a414a" fill="none"/><path d="M3128.5 957.5h-.5v-1h.5z" stroke="#3a414a" stroke-width=".05" fill="#3a414a"/><path d="M3877.88 950l-14.26 4.64v-9.28z" stroke="#3a414a" fill="#3a414a"/><path d="M3940 950c0 16.57-13.43 30-30 30s-30-13.43-30-30 13.43-30 30-30 30 13.43 30 30z" stroke="#3a414a" fill="#ffd9d9"/><path d="M3937 950c0 14.9-12.1 27-27 27s-27-12.1-27-27 12.1-27 27-27 27 12.1 27 27z" stroke="#3a414a" fill="#ffd9d9"/><use xlink:href="#t" transform="matrix(1,0,0,1,3880,982) translate(1.60493827160494 17.77777777777778)"/><path d="M2318.63 1219.5v1h-1.5v-1zm-3.5 0v1h-3v-1zm-5 0v1h-3v-1zm-5 0v1h-3v-1zm-5 0v1h-3v-1zm-5 0v1h-3v-1zm-5 0v1h-3v-1zm-5 0v1h-3v-1zm-5 0v1h-3v-1zm-5 0v1h-3v-1zm-5 0v1h-3v-1zm-5 0v1h-3v-1zm-5 0v1h-3v-1zm-5 0v1h-3v-1zm-5 0v1h-3v-1zm-5.02 0v1h-3v-1zm-5 0v1h-3v-1zm-5 0v1h-3v-1zm-5 0v1h-3v-1zm-5 0v1h-3v-1zm-5 0v1h-3v-1zm-5 0v1h-3v-1zm-5 0v1h-3v-1zm-5 0v1h-3v-1zm-5 0v1h-3v-1zm-5 0v1h-3v-1zm-5 0v1h-3v-1zm-5 0v1h-3v-1zm-5 0v1h-3v-1zm-5 0v1h-3v-1zm-5 0v1h-3v-1zm-5 0v1h-3v-1zm-5 0v1h-3v-1zm-5 0v1h-3v-1zm-5 0v1h-3v-1zm-5 0v1h-3v-1zm-5 0v1h-3v-1zm-5 0v1h-3v-1zm-5 0v1h-3v-1zm-5 0v1h-3v-1zm-5 0v1h-3v-1zm-5 0v1h-3v-1zm-5 0v1h-3v-1zm-5 0v1h-3v-1zm-5 0v1h-3v-1zm-5 0v1h-3v-1zm-5 0v1h-3v-1zm-5 0v1h-3v-1zm-5 0v1h-3v-1zm-5.02 0v1h-3v-1zm-5 0v1h-3v-1zm-5 0v1h-3v-1zm-5 0v1h-3v-1zm-5 0v1h-3v-1zm-5 0v1l-3-.02v-1zm-5-.02v1h-3v-1zm-5 0v1h-3v-1zm-5 0v1h-3v-1zm-5 0v1h-3v-1zm-5 0v1h-3v-1zm-5 0v1h-3v-1zm-5 0v1h-3v-1zm-5 0v1h-3v-1zm-5 0v1h-3v-1zm-5 0v1h-3v-1zm-5 0v1h-3v-1zm-5 0v1h-3v-1zm-5 0v1h-3v-1zm-5 0v1h-3v-1zm-5 0v1h-3v-1zm-5 0v1h-3v-1zm-5 0v1h-3v-1zm-5.02 0v1h-3v-1zm-5 0v1h-3v-1zm-5 0v1h-3v-1zm-5 0v1h-3v-1zm-5 0v1h-3v-1zm-5 0v1h-3v-1zm-5 0v1h-3v-1zm-5 0v1h-3v-1zm-5 0v1h-3v-1zm-5 0v1h-3v-1zm-5 0v1h-3v-1zm-5 0v1h-3v-1zm-5 0v1h-3v-1zm-5 0v1h-3v-1zm-5 0v1h-3v-1zm-5 0v1h-3v-1zm-5 0v1h-3v-1zm-5 0v1h-3v-1zm-5 0v1h-3v-1zm-5 0v1h-3v-1zm-5 0v1h-3v-1zm-5 0v1h-3v-1zm-5 0v1h-3.02v-1zm-5.02 0v1h-3v-1zm-5 0v1h-3v-1zm-5 0v1h-3v-1zm-5 0v1h-3v-1zm-5 0v1h-3v-1zm-5 0v1h-3v-1zm-5 0v1h-3v-1zm-5 0v1h-3v-1zm-5 0v1h-3v-1zm-5 0v1h-3v-1zm-5 0v1h-3v-1zm-5 0v1h-3v-1zm-5 0v1h-3v-1zm-5 0v1h-3v-1zm-5 0v1h-3v-1zm-5 0v1h-3v-1zm-5 0v1h-3v-1zm-5 0v1h-3v-1zm-5 0v1h-3v-1zm-5 0v1h-3v-1zm-5 0v1h-3v-1zm-5 0v1h-3v-1zm-5 0v1H1732v-1zm-5.02 0v1h-3v-1zm-5 0v1h-3v-1zm-5 0v1h-3v-1zm-5 0v1h-3v-1zm-5 0v1h-3v-1zm-5 0v1h-3v-1zm-5 0v1h-3v-1zm-5 0v1h-3v-1zm-5 0v1l-3-.02v-1zm-5-.02v1h-3v-1zm-5 0v1h-3v-1zm-5 0v1h-3v-1zm-5 0v1h-3v-1zm-5 0v1h-3v-1zm-5 0v1h-3v-1zm-5 0v1h-3v-1zm-5 0v1h-3v-1zm-5 0v1h-3v-1zm-5 0v1h-3v-1zm-5 0v1h-3v-1zm-5 0v1h-3v-1zm-5 0v1h-3v-1zm-5 0v1H1617v-1zm-5.02 0v1h-3v-1zm-5 0v1h-3v-1zm-5 0v1h-3v-1zm-5 0v1h-3v-1zm-5 0v1h-3v-1zm-5 0v1h-3v-1zm-5 0v1h-3v-1zm-5 0v1h-3v-1zm-5 0v1h-3v-1zm-5 0v1h-3v-1zm-5 0v1h-3v-1zm-5 0v1h-3v-1zm-5 0v1h-3v-1zm-5 0v1h-3v-1zm-5 0v1h-3v-1zm-5 0v1h-3v-1zm-5 0v1h-3v-1zm-5 0v1h-3v-1zm-5 0v1h-3v-1zm-5 0v1h-3v-1zm-5 0v1h-.1v-1zm-70.12 0v1h-2.9v-1zm-4.9 0v1h-3v-1zm-5 0v1h-3v-1zm-5 0v1h-3v-1zm-5 0v1h-3v-1zm-5 0v1h-3v-1zm-5 0v1h-3v-1zm-5 0v1h-3v-1zm-5 0v1h-3v-1zm-5 0v1h-3v-1zm-5 0v1h-3v-1zm-5 0l-.02 1h-3v-1zm-5.02 0v1h-3v-1zm-5 0v1h-3v-1zm-5 0v1h-3v-1zm-5 0v1h-3v-1zm-5 0v1h-3v-1zm-5 0v1h-3v-1zm-5 0v1h-3v-1zm-5 0v1h-3v-1zm-5 0v1h-3v-1zm-5 0v1h-3v-1zm-5 0v1h-3v-1zm-5 0v1l-3-.02v-1zm-5-.02v1h-3v-1zm-5 0v1h-3v-1zm-5 0v1h-3v-1zm-5 0v1h-3v-1zm-5 0v1h-3v-1zm-5 0v1h-3v-1zm-5 0v1h-3v-1zm-5 0v1h-3v-1zm-5 0v1h-3v-1zm-5 0v1h-3v-1zm-5.02 0v1h-3v-1zm-5 0v1h-3v-1zm-5 0v1h-3v-1zm-5 0v1h-3v-1zm-5 0v1h-3v-1zm-5 0v1h-3v-1zm-5 0v1h-3v-1zm-5 0v1h-3v-1zm-5 0v1h-3v-1zm-5 0v1h-3v-1zm-5 0v1h-3v-1zm-5 0v1h-3v-1zm-5 0v1h-3v-1zm-5 0v1h-3v-1zm-5 0v1h-3v-1zm-5 0v1h-3v-1zm-5 0v1h-3v-1zm-5 0v1h-3v-1zm-5 0v1h-3v-1zm-5 0v1h-3v-1zm-5 0v1h-3v-1zm-5 0v1h-3v-1zm-5 0v1h-3v-1zm-5.02 0v1h-3v-1zm-5 0v1h-3v-1zm-5 0v1h-3v-1zm-5 0v1h-3v-1zm-5 0v1h-3v-1zm-5 0v1h-3v-1zm-5 0v1h-3v-1zm-5 0v1h-3v-1zm-5 0v1h-3v-1zm-5 0v1h-3v-1zm-5 0v1h-3v-1zm-5 0v1h-3v-1zm-5 0v1h-3v-1zm-5 0v1h-3v-1zm-5 0v1h-3v-1zm-5 0v1h-3v-1zm-5 0v1h-3v-1zm-5 0v1h-3v-1zm-5 0v1h-3v-1zm-5 0v1h-3v-1zm-5 0v1h-3v-1zm-5 0v1h-3v-1zm-5 0v1h-3.02v-1zm-5.02 0v1h-3v-1zm-5 0v1h-3v-1zm-5 0v1h-3v-1zm-5 0v1h-3v-1zm-5 0v1h-3v-1zm-5 0v1h-3v-1zm-5 0v1h-3v-1zm-5 0v1h-3v-1zm-5 0v1h-3v-1zm-5 0v1h-3v-1zm-5 0v1h-3v-1zm-7.27-.2l.82.2h1.45v1h-1.56l-1.02-.26-.34-.14.4-.92zm-2.75-2l.57.65.57.48-.65.76-.63-.54-.67-.78-.44-.7.86-.54zm-1.05-3.26l.07.88.07.28-.97.24-.1-.36-.07-1v-1.53h1zm0-3.5h-1v-3h1zm0-5.02h-1v-3h1zm0-5.02h-1v-3.02h1zm0-5.03h-1v-3h1zm0-5h-1v-3.03h1zm0-5.03h-1v-3.02h1zm0-5.03h-1v-3h1zm0-5.02h-1v-3.02h1zm0-5.03h-1v-3.02h1zm0-5.03h-1v-3h1zm0-5.02h-1v-3.02h1zm0-5.03h-1v-3h1zm0-5.02h-1v-3h1zm0-5.02h-1v-3.02h1zm0-5.03h-1v-3h1zm0-5.02h-1v-3h1zm0-5.02h-1v-3h1zm0-5.02h-1v-3h1zm0-5.02h-1v-3.02h1zm0-5.03h-1v-3h1zm0-5.02h-1v-3h1zm0-5h-1v-3.03h1zm0-5.04h-1v-3h1zm0-5.02h-1v-3h1zm0-5.02h-1v-3.02h1zm0-5.03h-1v-3.02h1zm0-5.03h-1v-3h1zm0-5.02h-1v-3.02h1zm0-5.03h-1v-3h1zm0-5.02h-1v-3.02h1zm0-5.03h-1v-3h1zm0-5.02h-1v-3h1zm0-5.02h-1v-3.02h1zm0-5.03h-1v-3h1zm0-5.02h-1v-3h1zm0-5.02h-1v-3.02h1zm0-5.03h-1v-3h1zm0-5.02h-1v-3h1zm0-5h-1v-3.03h1zm0-5.04h-1v-3h1zm0-5.02h-1v-3.02h1zm0-5.02h-1v-3.02h1zm0-5.03h-1v-3.02h1zm0-5.03h-1v-3.02h1zm0-5.03h-1v-3h1zm0-5.02h-1v-3h1zm0-5.02h-1v-3.02h1zm0-5.03h-1v-3h1zm0-5.02h-1v-3h1zm0-5.02h-1v-3.02h1zm0-5.03h-1v-3h1zm0-5.02h-1v-3.02h1zm0-5.02h-1v-3.02h1zm0-5.03h-1v-3h1zm0-5.02h-1v-3h1zm0-5.02h-1v-3h1zm0-5.02h-1v-3h1zm0-5.02h-1v-3.02h1zm0-5.03h-1v-3h1zm0-5h-1v-3.02h1zm0-5.03h-1v-3.02h1zm0-5.03h-1v-3h1zm0-5.02h-1v-3h1zm0-5.02h-1v-3.02h1zm0-5.03h-1v-3h1zm0-5.02h-1v-3.02h1zm0-5.03h-1v-1.5h1z" stroke="#3a414a" stroke-width=".05" fill="#3a414a"/><path d="M983.83 877.43h-1v-.53l.5.02.5-.02z" fill="#3a414a"/><path d="M983.86 877.46h-1.05v-.6l.53.03.53-.03zm-.53-.52h-.47v.47h.95v-.48zM2319.54 1220l-17.95 10.6-.5-.85 16.47-9.75-16.48-9.75.5-.86z" stroke="#3a414a" stroke-width=".05" fill="#3a414a"/><use xlink:href="#n" transform="matrix(1,0,0,1,1444.8814619534207,1209.3333333333333) translate(0 14.222222222222223)"/><path d="M2400 1280.96v1.5m0 1.96v2.97m0 1.97v2.96m0 1.98v2.98m0 1.98v2.96m0 1.98v2.97m0 1.97v2.97m0 2v2.95m0 1.98v2.97m0 1.98v2.96m0 1.98v2.97m0 1.96v2.97m0 1.98v2.97m0 1.98v2.97m0 1.97v2.96m0 1.98v2.97m0 1.98v2.97m0 1.98v2.96m0 1.97v2.97m0 1.97v2.98m0 1.98v2.96m0 1.98v2.97m0 1.98v2.96m0 2v2.96m0 1.97v2.97m0 1.98v2.96m0 1.98v2.97m0 1.97v2.96m0 1.98v2.98m0 1.97v2.97m0 1.98v2.96m0 1.98v2.97m0 2v2.95m0 1.98v2.97m0 1.97v2.97m0 1.98v1.48l.07.94.08.32m.58 1.58l.42.7.6.7.62.52m1.47.82l.3.13.92.23h1.5m2 0h2.98m2 0h2.98m2 0h2.98m2 0h2.98m2 0h2.98m2 0h2.98m2 0h2.98m2 0h2.98m2 0h2.98m2 0h2.98m2 0h2.98m2 0h2.98m2 0h2.98m2 0h2.98m2 0h2.98m2 0h2.98m2 0h2.98m2 0h2.98m2 0l2.98.02m2 0h2.98m2 0h2.98m2 0h2.98m2 0h2.98m2 0h2.98m2 0h3m1.98 0h3m1.98 0h3m1.98 0h3m1.98 0h3m1.98 0h3m1.98 0h3m1.98 0h3m1.98 0h3m1.98 0h3m1.98 0h3m1.98 0h3m1.98 0h3m1.98 0h3m1.98 0h3m1.98.02h3m1.98 0h3m1.98 0h3m1.98 0h3m1.98 0h3m1.98 0h3m2 0h2.97m2 0h2.98m2 0h2.98m2 0h3m2 0h2.98m2 0h2.98m2 0h2.98m2 0h2.98m2 0h2.98m2 0h2.98m2 0h2.98m2 0h2.98m2 0h2.98m2 0h2.98m2 0l2.98.02m2 0h2.98m2 0h2.98m2 0h2.98m2 0h2.98m2 0h2.98m2 0h2.98m2 0h2.98m2 0h2.98m2 0h2.98m2 0h2.98m2 0h2.98m2 0h2.98m2 0h2.98m2 0h2.98m2 0h1.5" stroke="#3a414a" fill="none"/><path d="M2400.5 1280.98h-1v-.52h1z" stroke="#3a414a" stroke-width=".05" fill="#3a414a"/><path d="M2761.3 1470.18l17.22-10.18-17.22-10.18" stroke="#3a414a" fill="none"/><path d="M2900 1426.25c0-6.2-26.86-11.25-60-11.25s-60 5.04-60 11.25V1496c0 3.96 26.86 9 60 9s60-5.04 60-11.25z" stroke="#3a414a" fill="#fff"/><path d="M2900 1426.25c0 6.2-26.86 11.25-60 11.25s-60-5.04-60-11.25m120 8.55c0 3.96-26.86 9-60 9s-60-5.04-60-11.25m120 8.55c0 3.96-26.86 9-60 9s-60-5.04-60-11.25" stroke="#3a414a" fill="#fff"/><g><use xlink:href="#O" transform="matrix(1,0,0,1,2780,1455) translate(12.592592592592595 17.77777777777778)"/><use xlink:href="#P" transform="matrix(1,0,0,1,2780,1455) translate(31.080246913580247 44.44444444444444)"/><use xlink:href="#Q" transform="matrix(1,0,0,1,2780,1455) translate(66.82098765432099 44.44444444444444)"/></g><path d="M3740 556.25c0-6.2-26.86-11.25-60-11.25s-60 5.04-60 11.25V626c0 3.96 26.86 9 60 9s60-5.04 60-11.25z" stroke="#3a414a" fill="#fff"/><path d="M3740 556.25c0 6.2-26.86 11.25-60 11.25s-60-5.04-60-11.25m120 8.55c0 3.96-26.86 9-60 9s-60-5.04-60-11.25m120 8.55c0 3.96-26.86 9-60 9s-60-5.04-60-11.25" stroke="#3a414a" fill="#fff"/><g><use xlink:href="#R" transform="matrix(1,0,0,1,3620,585) translate(32.28395061728395 17.77777777777778)"/><use xlink:href="#S" transform="matrix(1,0,0,1,3620,585) translate(-3.4567901234567984 44.44444444444444)"/></g><path d="M3680.5 543.6h-1v-1.5h1zm0-3.5h-1v-3h1zm0-4.98h-1v-3h1zm0-4.98h-1v-3h1zm0-5l-1 .02v-3h1zm0-4.97h-1v-3h1zm-.02-4.98h-1v-3h1zm0-5h-1v-2.98h1zm0-4.98h-1v-2.98h1zm0-4.98h-1v-3h1zm0-4.98h-1v-3h1zm0-4.98h-1v-3h1zm0-5l-1 .02v-3h1zm0-4.97h-1l-.02-2.98h1zm-.02-4.97h-1v-3h1zm0-4.98h-1v-3h1zm0-5l-1 .02v-3h1zm0-4.97h-1v-3h1zm0-4.98h-1v-3h1zm0-4.98h-1v-3h1zm0-5l-1 .02-.02-3h1zm-.02-4.97h-1v-3h1zm0-4.98h-1v-3h1zm0-4.98h-1v-3h1zm0-5h-1v-2.98h1zm0-4.98h-1v-3h1zm0-4.98h-1v-3h1zm-.26-7.55l.25 1v1.56h-1v-1.44l-.2-.82-.1-.27.9-.38zm-2.36-3.26l.78.66.54.64-.76.65-.5-.6-.65-.55-.65-.4.53-.85zm-2.8-1.16l.36.1-.24.96-.28-.07-.88-.07h-1.48v-1h1.52zm-745.08.92h-1.5v-1h1.5zm5 0h-3v-1h3zm5 0h-3v-1h3zm5 0h-3v-1h3zm5 0h-3v-1h3zm5.02 0h-3v-1h3zm5 0h-3v-1h3zm5 0h-3v-1h3zm5 0h-3v-1h3zm5 0h-3v-1h3zm5.02 0h-3v-1h3zm5 0h-3v-1h3zm5 0h-3v-1h3zm5 0h-3v-1h3zm5 0h-3v-1h3zm5.02 0h-3v-1h3zm5 0h-3v-1h3zm5 0h-3v-1h3zm5 0h-3v-1h3zm5 0h-3v-1h3zm5 0h-3v-1h3zm5.02 0h-3v-1h3zm5 0h-3v-1h3zm5 0h-3v-1h3zm5 0h-3v-1h3zm5 0h-3v-1h3zm5.02 0h-3v-1h3zm5 0h-3v-1h3zm5 0h-3v-1h3zm5 0h-3v-1h3zm5 0h-3v-1h3zm5.02 0h-3v-1h3zm5 0h-3v-1h3zm5 0h-3v-1h3zm5 0h-3v-1h3zm5 0h-3v-1h3zm5.02 0h-3v-1h3zm5 0h-3v-1h3zm5 0h-3v-1h3zm5 0h-3v-1h3zm5 0h-3v-1h3zm5 0h-3v-1h3zm5.02 0h-3v-1h3zm5 0h-3v-1h3zm5 0h-3v-1h3zm5 0h-3v-1h3zm5 0h-3v-1h3zm5.02 0h-3v-1h3zm5 0h-3v-1h3zm5 0h-3v-1h3zm5 0h-3v-1h3zm5 0h-3v-1h3zm5.02 0h-3v-1h3zm5 0h-3v-1h3zm5 0h-3v-1h3zm5 0h-3v-1h3zm5 0h-3v-1h3zm5 0h-3v-1h3zm5.02 0h-3v-1h3zm5 0h-3v-1h3zm5 0h-3v-1h3zm5 0h-3v-1h3zm5 0h-3v-1h3zm5.02 0h-3v-1h3zm5 0h-3v-1h3zm5 0h-3v-1h3zm70.06 0h-3v-1h3zm5 0h-3v-1h3zm5 0h-3v-1h3zm5 0h-3v-1h3zm5 0h-3v-1h3zm5.02 0h-3v-1h3zm5 0h-3v-1h3zm5 0h-3v-1h3zm5 0h-3v-1h3zm5 0h-3v-1h3zm5 0h-3v-1h3zm5.02 0h-3v-1h3zm5 0h-3v-1h3zm5 0h-3v-1h3zm5 0h-3v-1h3zm5 0h-3v-1h3zm5.02 0h-3v-1h3zm5 0h-3v-1h3zm5 0h-3v-1h3zm5 0h-3v-1h3zm5 0h-3v-1h3zm5.02 0h-3v-1h3zm5 0h-3v-1h3zm5 0h-3v-1h3zm5 0h-3v-1h3zm5 0h-3v-1h3zm5.02 0h-3v-1h3zm5 0h-3v-1h3zm5 0h-3v-1h3zm5 0h-3v-1h3zm5 0h-3v-1h3zm5 0h-3v-1h3zm5.02 0h-3v-1h3zm5 0h-3v-1h3zm5 0h-3v-1h3zm5 0h-3v-1h3zm5 0h-3v-1h3zm5.02 0h-3v-1h3zm5 0h-3v-1h3zm5 0h-3v-1h3zm5 0h-3v-1h3zm5 0h-3v-1h3zm5.02 0h-3v-1h3zm5 0h-3v-1h3zm5 0h-3v-1h3zm5 0h-3v-1h3zm5 0h-3v-1h3zm5 0h-3v-1h3zm5.02 0h-3v-1h3zm5 0h-3v-1h3zm5 0h-3v-1h3zm5 0h-3v-1h3zm5 0h-3v-1h3zm5.02 0h-3v-1h3zm5 0h-3v-1h3zm5 0h-3v-1h3zm5 0h-3v-1h3zm5 0h-3v-1h3zm5.02 0h-3v-1h3zm5 0h-3v-1h3zm5 0h-3v-1h3zm5 0h-3v-1h3zm5 0h-3v-1h3zm5 0h-3v-1h3zm5.02 0h-3v-1h3zm5 0h-3v-1h3zm5 0h-3v-1h3zm5 0h-3v-1h3zm5 0h-3v-1h3zm5.02 0h-3v-1h3zm-350.27 0h-.16v-1h.16z" stroke="#3a414a" stroke-width=".05" fill="#3a414a"/><path d="M2928.45 404.5h-.5v-1h.5z" fill="#3a414a"/><path d="M2928.48 404.53h-.57v-1.05h.58zm-.52-1v.95h.47v-.95zM3690.6 526.56L3680 544.5l-10.6-17.94.85-.5 9.75 16.48 9.75-16.5z" stroke="#3a414a" stroke-width=".05" fill="#3a414a"/><g><use xlink:href="#T" transform="matrix(1,0,0,1,3255.925925925926,393.33423389699254) translate(0 14.222222222222223)"/></g><path d="M3129.98 933.84h-1.5v-1h1.5zm5 0h-3v-1h3zm5 0h-3v-1h3zm5.02 0h-3v-1h3zm5 0h-3v-1h3zm5 0h-3v-1h3zm5 0h-3v-1h3zm5.02 0h-3v-1h3zm5 0h-3v-1h3zm5 0h-3v-1h3zm5 0h-3v-1h3zm5.02 0h-3v-1h3zm5 0h-3v-1h3zm5 0h-3v-1h3zm5 0h-3v-1h3zm5.02 0h-3v-1h3zm5 0h-3v-1h3zm5 0h-3v-1h3zm5 0h-3v-1h3zm5 0h-3v-1h3zm5.02 0h-3v-1h3zm5 0h-3v-1h3zm5 0h-3v-1h3zm5 0h-3v-1h3zm5.02 0h-3v-1h3zm5 0h-3v-1h3zm5 0h-3v-1h3zm5 0h-3v-1h3zm5.02 0h-3v-1h3zm5 0h-3v-1h3zm5 0h-3v-1h3zm5 0h-3v-1h3zm5.02 0h-3v-1h3zm5 0h-3v-1h3zm5 0h-3v-1h3zm5 0h-3v-1h3zm5.02 0h-3v-1h3zm5 0h-3v-1h3zm5 0h-3v-1h3zm5 0h-3v-1h3zm5 0h-3v-1h3zm5.02 0h-3v-1h3zm5 0h-3v-1h3zm5 0h-3v-1h3zm5 0h-3v-1h3zm5.02 0h-3v-1h3zm5 0h-3v-1h3zm5 0h-3v-1h3zm5 0h-3v-1h3zm5.02 0h-3v-1h3zm5 0h-3v-1h3zm5 0h-3v-1h3zm5 0h-3v-1h3zm5.02 0h-3v-1h3zm5 0h-3v-1h3zm5 0h-3v-1h3zm5 0h-3v-1h3zm5 0h-3v-1h3zm5.02 0h-3v-1h3zm5 0h-3v-1h3zm5 0h-3v-1h3zm5 0h-3v-1h3zm5.02 0h-3v-1h3zm5 0h-3v-1h3zm5 0h-3v-1h3zm5 0h-3v-1h3zm5.02 0h-3v-1h3zm5 0h-3v-1h3zm5 0h-3v-1h3zm5 0h-3v-1h3zm5.02 0h-3v-1h3zm5 0h-3v-1h3zm5 0h-3v-1h3zm5 0h-3v-1h3zm5.02 0h-3v-1h3zm5 0h-3v-1h3zm5 0h-3v-1h3zm5 0h-3v-1h3zm5 0h-3v-1h3zm5.02 0h-3v-1h3zm5 0h-3v-1h3zm5 0h-3v-1h3zm5 0h-3v-1h3zm5.02 0h-3v-1h3zm5 0h-3v-1h3zm5 0h-3v-1h3zm5 0h-3v-1h3zm5.02 0h-3v-1h3zm5 0h-3v-1h3zm5 0h-3v-1h3zm5 0h-3v-1h3zm5.02 0h-3v-1h3zm5 0h-3v-1h3zm5 0h-3v-1h3zm5 0h-3v-1h3zm5.02 0h-3v-1h3zm5 0h-3v-1h3zm5 0h-3v-1h3zm5 0h-3v-1h3zm5 0h-3v-1h3zm5.02 0h-3v-1h3zm5 0h-3v-1h3zm5 0h-3v-1h3zm5 0h-3v-1h3zm5.02 0h-3v-1h3zm5 0h-3v-1h3zm5 0h-3v-1h3zm5 0h-3v-1h3zm5.02 0h-3v-1h3zm4.88-.17l-.36.1-1 .07h-1.52v-1h1.48l.88-.07.28-.07zm3.76-2.37l-.54.63-.78.67-.7.44-.54-.86.65-.4.66-.55.48-.58zm1.3-4.53v1.57l-.26 1-.14.35-.92-.4.1-.26.2-.82v-1.45zm0-5.04v3.02h-1v-3.02zm0-5.03v3.02h-1v-3.02zm0-5.03v3.02h-1v-3.03zm0-5.03v3.02h-1v-3.02zm0-5.03v3.03h-1v-3.02zm0-5.03v3.02h-1v-3.03zm0-5.03v3.02h-1v-3.02zm0-5.03v3.03h-1v-3.02zm0-5.02v3.02h-1v-3.02zm0-5.04v3.02h-1v-3.02zm0-5.03v3.03h-1v-3.02zm0-5.02v3.02h-1v-3.02zm0-5.03v3.02h-1v-3.02zm0-5.03v3.02h-1v-3.02zm0-5.04v3.02h-1v-3.02zm0-5.03v3.02h-1v-3.02zm0-5.03v3.02h-1v-3.02zm0-5.03v3h-1v-3zm0-5.04v3h-1v-3zm0-5.04v3.02h-1v-3.02zm0-5.03v3h-1v-3zm0-5.04v3.02h-1v-3.02zm.02-5.03v3.02h-1v-3.02zm0-5.04v3h-1v-3zm0-5.04v3.02h-1v-3.02zm0-5.03v3.02h-1v-3.02zm0-5.03v3.02h-1v-3.02zm0-5.03v3h-1v-3zm0-5.04v3.02h-1v-3.02zm0-5.03v3.02h-1v-3.02zm0-5.03v3.02h-1v-3.03zm0-5.03v3.02h-1v-3.02zm0-5.04v3.02h-1v-3.02zm0-5.03v3.02h-1v-3.03zm0-5.03v3.02h-1v-3.02zm0-5.03v3.03h-1v-3.02zm0-5.02v3.02h-1v-3.02zm0-5.04v3.02h-1v-3.02zm.02-5.03v3.03h-1v-3.02zm0-5.02v3.02h-1v-3.02zm0-5.03v3.02h-1v-3.02zm0-5.04v3.03h-1v-3.02zm0-5.02v3.02h-1v-3.02zm0-5.03v3.02h-1v-3.02zm0-5.03v3.02h-1v-3.02zm0-5.03v3h-1v-3zm0-5.05v3.02h-1v-3.02zm0-5.03v3.02h-1v-3.02zm0-5.03v3h-1v-3zm0-5.04v3.02h-1v-3.02zm0-5.03v3h-1v-3zm0-5.04v3h-1v-3zm0-5.04v3.02h-1v-3.02zm.02-5.03v3.02h-1v-3.02zm0-5.03v3.02h-1V650zm0-5.04v3.02h-1v-3.02zm0-5.03v3.02h-1v-3.02zm0-3.52v1.52h-1v-1.5z" stroke="#3a414a" stroke-width=".05" fill="#3a414a"/><path d="M3128.5 933.84h-.52v-1h.52z" fill="#3a414a"/><path d="M3128.52 933.86h-.56v-1.05h.56zm-.5-1v.95h.45v-.94zM3690.6 653.44l-.85.5-9.75-16.48-9.75 16.5-.86-.52 10.6-17.94z" stroke="#3a414a" stroke-width=".05" fill="#3a414a"/><defs><path fill="#3a414a" d="M30-248c87 1 191-15 191 75 0 78-77 80-158 76V0H30v-248zm33 125c57 0 124 11 124-50 0-59-68-47-124-48v98" id="U"/><path fill="#3a414a" d="M100-194c62-1 85 37 85 99 1 63-27 99-86 99S16-35 15-95c0-66 28-99 85-99zM99-20c44 1 53-31 53-75 0-43-8-75-51-75s-53 32-53 75 10 74 51 75" id="V"/><path fill="#3a414a" d="M24 0v-261h32V0H24" id="W"/><g id="a"><use transform="matrix(0.06172839506172839,0,0,0.06172839506172839,0,0)" xlink:href="#U"/><use transform="matrix(0.06172839506172839,0,0,0.06172839506172839,14.814814814814813,0)" xlink:href="#V"/><use transform="matrix(0.06172839506172839,0,0,0.06172839506172839,27.160493827160494,0)" xlink:href="#V"/><use transform="matrix(0.06172839506172839,0,0,0.06172839506172839,39.50617283950617,0)" xlink:href="#W"/></g><path fill="#3a414a" d="M30 0v-248h33v221h125V0H30" id="X"/><path fill="#3a414a" d="M141-36C126-15 110 5 73 4 37 3 15-17 15-53c-1-64 63-63 125-63 3-35-9-54-41-54-24 1-41 7-42 31l-33-3c5-37 33-52 76-52 45 0 72 20 72 64v82c-1 20 7 32 28 27v20c-31 9-61-2-59-35zM48-53c0 20 12 33 32 33 41-3 63-29 60-74-43 2-92-5-92 41" id="Y"/><path fill="#3a414a" d="M117-194c89-4 53 116 60 194h-32v-121c0-31-8-49-39-48C34-167 62-67 57 0H25l-1-190h30c1 10-1 24 2 32 11-22 29-35 61-36" id="Z"/><path fill="#3a414a" d="M100-194c63 0 86 42 84 106H49c0 40 14 67 53 68 26 1 43-12 49-29l28 8c-11 28-37 45-77 45C44 4 14-33 15-96c1-61 26-98 85-98zm52 81c6-60-76-77-97-28-3 7-6 17-6 28h103" id="aa"/><g id="b"><use transform="matrix(0.06172839506172839,0,0,0.06172839506172839,0,0)" xlink:href="#X"/><use transform="matrix(0.06172839506172839,0,0,0.06172839506172839,12.345679012345679,0)" xlink:href="#Y"/><use transform="matrix(0.06172839506172839,0,0,0.06172839506172839,24.691358024691358,0)" xlink:href="#Z"/><use transform="matrix(0.06172839506172839,0,0,0.06172839506172839,37.03703703703704,0)" xlink:href="#aa"/></g><path fill="#3a414a" d="M266 0h-40l-56-210L115 0H75L2-248h35L96-30l15-64 43-154h32l59 218 59-218h35" id="ab"/><path fill="#3a414a" d="M24-231v-30h32v30H24zM24 0v-190h32V0H24" id="ac"/><path fill="#3a414a" d="M135-143c-3-34-86-38-87 0 15 53 115 12 119 90S17 21 10-45l28-5c4 36 97 45 98 0-10-56-113-15-118-90-4-57 82-63 122-42 12 7 21 19 24 35" id="ad"/><path fill="#3a414a" d="M143 0L79-87 56-68V0H24v-261h32v163l83-92h37l-77 82L181 0h-38" id="ae"/><g id="c"><use transform="matrix(0.06172839506172839,0,0,0.06172839506172839,0,0)" xlink:href="#ab"/><use transform="matrix(0.06172839506172839,0,0,0.06172839506172839,20.925925925925924,0)" xlink:href="#Z"/><use transform="matrix(0.06172839506172839,0,0,0.06172839506172839,33.2716049382716,0)" xlink:href="#ac"/><use transform="matrix(0.06172839506172839,0,0,0.06172839506172839,38.148148148148145,0)" xlink:href="#V"/><use transform="matrix(0.06172839506172839,0,0,0.06172839506172839,50.49382716049382,0)" xlink:href="#ad"/><use transform="matrix(0.06172839506172839,0,0,0.06172839506172839,61.60493827160494,0)" xlink:href="#aa"/><use transform="matrix(0.06172839506172839,0,0,0.06172839506172839,73.95061728395062,0)" xlink:href="#ae"/></g><path fill="#3a414a" d="M115-194c55 1 70 41 70 98S169 2 115 4C84 4 66-9 55-30l1 105H24l-1-265h31l2 30c10-21 28-34 59-34zm-8 174c40 0 45-34 45-75s-6-73-45-74c-42 0-51 32-51 76 0 43 10 73 51 73" id="af"/><path fill="#3a414a" d="M114-163C36-179 61-72 57 0H25l-1-190h30c1 12-1 29 2 39 6-27 23-49 58-41v29" id="ag"/><path fill="#3a414a" d="M9 0v-24l116-142H16v-24h144v24L44-24h123V0H9" id="ah"/><path fill="#3a414a" d="M179-190L93 31C79 59 56 82 12 73V49c39 6 53-20 64-50L1-190h34L92-34l54-156h33" id="ai"/><path fill="#3a414a" d="M24-231v-30h32v30H24zM-9 49c24 4 33-6 33-30v-209h32V24c2 40-23 58-65 49V49" id="aj"/><path fill="#3a414a" d="M100-194c63 0 86 42 84 106H49c0 40 14 67 53 68 26 1 43-12 49-29l28 8c-11 28-37 45-77 45C44 4 14-33 15-96c1-61 26-98 85-98zm52 81c6-60-76-77-97-28-3 7-6 17-6 28h103zM106 40c-1 20 24 18 37 12v18c-24 11-66 4-62-28 3-27 17-46 51-42-13 8-25 19-26 40" id="ak"/><path fill="#3a414a" d="M96-169c-40 0-48 33-48 73s9 75 48 75c24 0 41-14 43-38l32 2c-6 37-31 61-74 61-59 0-76-41-82-99-10-93 101-131 147-64 4 7 5 14 7 22l-32 3c-4-21-16-35-41-35" id="al"/><g id="d"><use transform="matrix(0.06172839506172839,0,0,0.06172839506172839,0,0)" xlink:href="#af"/><use transform="matrix(0.06172839506172839,0,0,0.06172839506172839,12.345679012345679,0)" xlink:href="#ag"/><use transform="matrix(0.06172839506172839,0,0,0.06172839506172839,19.691358024691358,0)" xlink:href="#ah"/><use transform="matrix(0.06172839506172839,0,0,0.06172839506172839,30.80246913580247,0)" xlink:href="#ai"/><use transform="matrix(0.06172839506172839,0,0,0.06172839506172839,41.91358024691358,0)" xlink:href="#aj"/><use transform="matrix(0.06172839506172839,0,0,0.06172839506172839,46.79012345679013,0)" xlink:href="#ak"/><use transform="matrix(0.06172839506172839,0,0,0.06172839506172839,59.135802469135804,0)" xlink:href="#al"/><use transform="matrix(0.06172839506172839,0,0,0.06172839506172839,70.24691358024691,0)" xlink:href="#ac"/><use transform="matrix(0.06172839506172839,0,0,0.06172839506172839,75.12345679012346,0)" xlink:href="#aa"/></g><path fill="#3a414a" d="M206 0h-36l-40-164L89 0H53L-1-190h32L70-26l43-164h34l41 164 42-164h31" id="am"/><path fill="#3a414a" d="M84 4C-5 8 30-112 23-190h32v120c0 31 7 50 39 49 72-2 45-101 50-169h31l1 190h-30c-1-10 1-25-2-33-11 22-28 36-60 37" id="an"/><g id="e"><use transform="matrix(0.06172839506172839,0,0,0.06172839506172839,0,0)" xlink:href="#am"/><use transform="matrix(0.06172839506172839,0,0,0.06172839506172839,15.987654320987653,0)" xlink:href="#Z"/><use transform="matrix(0.06172839506172839,0,0,0.06172839506172839,28.333333333333332,0)" xlink:href="#ac"/><use transform="matrix(0.06172839506172839,0,0,0.06172839506172839,33.20987654320987,0)" xlink:href="#V"/><use transform="matrix(0.06172839506172839,0,0,0.06172839506172839,45.55555555555555,0)" xlink:href="#ad"/><use transform="matrix(0.06172839506172839,0,0,0.06172839506172839,56.66666666666666,0)" xlink:href="#ae"/><use transform="matrix(0.06172839506172839,0,0,0.06172839506172839,67.77777777777777,0)" xlink:href="#an"/></g><path fill="#3a414a" d="M106-169C34-169 62-67 57 0H25v-261h32l-1 103c12-21 28-36 61-36 89 0 53 116 60 194h-32v-121c2-32-8-49-39-48" id="ao"/><path fill="#3a414a" d="M210-169c-67 3-38 105-44 169h-31v-121c0-29-5-50-35-48C34-165 62-65 56 0H25l-1-190h30c1 10-1 24 2 32 10-44 99-50 107 0 11-21 27-35 58-36 85-2 47 119 55 194h-31v-121c0-29-5-49-35-48" id="ap"/><g id="f"><use transform="matrix(0.06172839506172839,0,0,0.06172839506172839,0,0)" xlink:href="#Y"/><use transform="matrix(0.06172839506172839,0,0,0.06172839506172839,12.345679012345679,0)" xlink:href="#ag"/><use transform="matrix(0.06172839506172839,0,0,0.06172839506172839,19.691358024691358,0)" xlink:href="#al"/><use transform="matrix(0.06172839506172839,0,0,0.06172839506172839,30.80246913580247,0)" xlink:href="#ao"/><use transform="matrix(0.06172839506172839,0,0,0.06172839506172839,43.148148148148145,0)" xlink:href="#an"/><use transform="matrix(0.06172839506172839,0,0,0.06172839506172839,55.49382716049382,0)" xlink:href="#am"/><use transform="matrix(0.06172839506172839,0,0,0.06172839506172839,71.48148148148148,0)" xlink:href="#an"/><use transform="matrix(0.06172839506172839,0,0,0.06172839506172839,83.82716049382717,0)" xlink:href="#ap"/></g><path fill="#333" d="M231 0h-52l-39-155L100 0H48L-1-190h46L77-45c9-52 24-97 36-145h53l37 145 32-145h46" id="aq"/><path fill="#333" d="M135-194c87-1 58 113 63 194h-50c-7-57 23-157-34-157-59 0-34 97-39 157H25l-1-190h47c2 12-1 28 3 38 12-26 28-41 61-42" id="ar"/><path fill="#333" d="M25-224v-37h50v37H25zM25 0v-190h50V0H25" id="as"/><path fill="#333" d="M110-194c64 0 96 36 96 99 0 64-35 99-97 99-61 0-95-36-95-99 0-62 34-99 96-99zm-1 164c35 0 45-28 45-65 0-40-10-65-43-65-34 0-45 26-45 65 0 36 10 65 43 65" id="at"/><path fill="#333" d="M137-138c1-29-70-34-71-4 15 46 118 7 119 86 1 83-164 76-172 9l43-7c4 19 20 25 44 25 33 8 57-30 24-41C81-84 22-81 20-136c-2-80 154-74 161-7" id="au"/><path fill="#333" d="M185-48c-13 30-37 53-82 52C43 2 14-33 14-96s30-98 90-98c62 0 83 45 84 108H66c0 31 8 55 39 56 18 0 30-7 34-22zm-45-69c5-46-57-63-70-21-2 6-4 13-4 21h74" id="av"/><g id="g"><use transform="matrix(0.04938271604938272,0,0,0.04938271604938272,0,0)" xlink:href="#aq"/><use transform="matrix(0.04938271604938272,0,0,0.04938271604938272,13.827160493827162,0)" xlink:href="#ar"/><use transform="matrix(0.04938271604938272,0,0,0.04938271604938272,24.641975308641975,0)" xlink:href="#as"/><use transform="matrix(0.04938271604938272,0,0,0.04938271604938272,29.58024691358025,0)" xlink:href="#at"/><use transform="matrix(0.04938271604938272,0,0,0.04938271604938272,40.39506172839506,0)" xlink:href="#au"/><use transform="matrix(0.04938271604938272,0,0,0.04938271604938272,50.27160493827161,0)" xlink:href="#av"/></g><path fill="#3a414a" d="M85-194c31 0 48 13 60 33l-1-100h32l1 261h-30c-2-10 0-23-3-31C134-8 116 4 85 4 32 4 16-35 15-94c0-66 23-100 70-100zm9 24c-40 0-46 34-46 75 0 40 6 74 45 74 42 0 51-32 51-76 0-42-9-74-50-73" id="aw"/><g id="h"><use transform="matrix(0.06172839506172839,0,0,0.06172839506172839,0,0)" xlink:href="#ad"/><use transform="matrix(0.06172839506172839,0,0,0.06172839506172839,11.11111111111111,0)" xlink:href="#af"/><use transform="matrix(0.06172839506172839,0,0,0.06172839506172839,23.45679012345679,0)" xlink:href="#ag"/><use transform="matrix(0.06172839506172839,0,0,0.06172839506172839,30.80246913580247,0)" xlink:href="#Y"/><use transform="matrix(0.06172839506172839,0,0,0.06172839506172839,43.148148148148145,0)" xlink:href="#am"/><use transform="matrix(0.06172839506172839,0,0,0.06172839506172839,59.1358024691358,0)" xlink:href="#aw"/><use transform="matrix(0.06172839506172839,0,0,0.06172839506172839,71.48148148148148,0)" xlink:href="#ah"/><use transform="matrix(0.06172839506172839,0,0,0.06172839506172839,82.5925925925926,0)" xlink:href="#aa"/><use transform="matrix(0.06172839506172839,0,0,0.06172839506172839,94.93827160493828,0)" xlink:href="#Z"/><use transform="matrix(0.06172839506172839,0,0,0.06172839506172839,107.28395061728396,0)" xlink:href="#ac"/><use transform="matrix(0.06172839506172839,0,0,0.06172839506172839,112.16049382716051,0)" xlink:href="#aa"/></g><g id="i"><use transform="matrix(0.06172839506172839,0,0,0.06172839506172839,0,0)" xlink:href="#af"/><use transform="matrix(0.06172839506172839,0,0,0.06172839506172839,12.345679012345679,0)" xlink:href="#V"/><use transform="matrix(0.06172839506172839,0,0,0.06172839506172839,24.691358024691358,0)" xlink:href="#af"/><use transform="matrix(0.06172839506172839,0,0,0.06172839506172839,37.03703703703704,0)" xlink:href="#ag"/><use transform="matrix(0.06172839506172839,0,0,0.06172839506172839,44.382716049382715,0)" xlink:href="#Y"/><use transform="matrix(0.06172839506172839,0,0,0.06172839506172839,56.72839506172839,0)" xlink:href="#am"/><use transform="matrix(0.06172839506172839,0,0,0.06172839506172839,72.71604938271605,0)" xlink:href="#Z"/><use transform="matrix(0.06172839506172839,0,0,0.06172839506172839,85.06172839506173,0)" xlink:href="#V"/><use transform="matrix(0.06172839506172839,0,0,0.06172839506172839,97.40740740740742,0)" xlink:href="#ad"/><use transform="matrix(0.06172839506172839,0,0,0.06172839506172839,108.51851851851853,0)" xlink:href="#al"/><use transform="matrix(0.06172839506172839,0,0,0.06172839506172839,119.62962962962965,0)" xlink:href="#ac"/></g><path fill="#3a414a" d="M101-234c-31-9-42 10-38 44h38v23H63V0H32v-167H5v-23h27c-7-52 17-82 69-68v24" id="ax"/><g id="j"><use transform="matrix(0.06172839506172839,0,0,0.06172839506172839,0,0)" xlink:href="#ax"/><use transform="matrix(0.06172839506172839,0,0,0.06172839506172839,6.172839506172839,0)" xlink:href="#V"/><use transform="matrix(0.06172839506172839,0,0,0.06172839506172839,18.51851851851852,0)" xlink:href="#ag"/><use transform="matrix(0.06172839506172839,0,0,0.06172839506172839,25.864197530864196,0)" xlink:href="#ap"/><use transform="matrix(0.06172839506172839,0,0,0.06172839506172839,44.32098765432099,0)" xlink:href="#Y"/><use transform="matrix(0.06172839506172839,0,0,0.06172839506172839,56.666666666666664,0)" xlink:href="#W"/><use transform="matrix(0.06172839506172839,0,0,0.06172839506172839,61.54320987654321,0)" xlink:href="#Z"/><use transform="matrix(0.06172839506172839,0,0,0.06172839506172839,73.88888888888889,0)" xlink:href="#aa"/><use transform="matrix(0.06172839506172839,0,0,0.06172839506172839,86.23456790123457,0)" xlink:href="#aj"/></g><path fill="#3a414a" d="M177-190C167-65 218 103 67 71c-23-6-38-20-44-43l32-5c15 47 100 32 89-28v-30C133-14 115 1 83 1 29 1 15-40 15-95c0-56 16-97 71-98 29-1 48 16 59 35 1-10 0-23 2-32h30zM94-22c36 0 50-32 50-73 0-42-14-75-50-75-39 0-46 34-46 75s6 73 46 73" id="ay"/><path fill="#3a414a" d="M24 0v-95L3-83v-28l21-12v-138h32v120l22-13v28l-22 12V0H24" id="az"/><path fill="#3a414a" d="M100-194c62-1 85 37 85 99 1 63-27 99-86 99S16-35 15-95c0-66 28-99 85-99zM99-20c44 1 53-31 53-75 0-43-8-75-51-75s-53 32-53 75 10 74 51 75zM76-211c8-23 27-35 38-54h36v5l-58 49H76" id="aA"/><g id="k"><use transform="matrix(0.06172839506172839,0,0,0.06172839506172839,0,0)" xlink:href="#ay"/><use transform="matrix(0.06172839506172839,0,0,0.06172839506172839,12.345679012345679,0)" xlink:href="#az"/><use transform="matrix(0.06172839506172839,0,0,0.06172839506172839,17.22222222222222,0)" xlink:href="#aA"/><use transform="matrix(0.06172839506172839,0,0,0.06172839506172839,29.5679012345679,0)" xlink:href="#am"/><use transform="matrix(0.06172839506172839,0,0,0.06172839506172839,45.55555555555555,0)" xlink:href="#Z"/><use transform="matrix(0.06172839506172839,0,0,0.06172839506172839,57.90123456790123,0)" xlink:href="#aa"/><use transform="matrix(0.06172839506172839,0,0,0.06172839506172839,70.24691358024691,0)" xlink:href="#ay"/><use transform="matrix(0.06172839506172839,0,0,0.06172839506172839,82.5925925925926,0)" xlink:href="#V"/></g><path fill="#3a414a" d="M141-36C126-15 110 5 73 4 37 3 15-17 15-53c-1-64 63-63 125-63 3-35-9-54-41-54-24 1-41 7-42 31l-33-3c5-37 33-52 76-52 45 0 72 20 72 64v82c-1 20 7 32 28 27v20c-31 9-61-2-59-35zM48-53c0 20 12 33 32 33 41-3 63-29 60-74-43 2-92-5-92 41zm116 93c-1 20 24 18 37 12v18c-24 11-66 4-62-28 3-27 17-46 51-42-13 8-25 19-26 40" id="aB"/><g id="l"><use transform="matrix(0.06172839506172839,0,0,0.06172839506172839,0,0)" xlink:href="#ah"/><use transform="matrix(0.06172839506172839,0,0,0.06172839506172839,11.11111111111111,0)" xlink:href="#Y"/><use transform="matrix(0.06172839506172839,0,0,0.06172839506172839,23.45679012345679,0)" xlink:href="#az"/><use transform="matrix(0.06172839506172839,0,0,0.06172839506172839,28.333333333333336,0)" xlink:href="#aB"/><use transform="matrix(0.06172839506172839,0,0,0.06172839506172839,40.67901234567901,0)" xlink:href="#al"/><use transform="matrix(0.06172839506172839,0,0,0.06172839506172839,51.79012345679013,0)" xlink:href="#ah"/><use transform="matrix(0.06172839506172839,0,0,0.06172839506172839,62.90123456790124,0)" xlink:href="#Z"/><use transform="matrix(0.06172839506172839,0,0,0.06172839506172839,75.24691358024693,0)" xlink:href="#ac"/><use transform="matrix(0.06172839506172839,0,0,0.06172839506172839,80.12345679012347,0)" xlink:href="#ae"/><use transform="matrix(0.06172839506172839,0,0,0.06172839506172839,91.23456790123458,0)" xlink:href="#aA"/><use transform="matrix(0.06172839506172839,0,0,0.06172839506172839,103.58024691358027,0)" xlink:href="#am"/></g><path fill="#3a414a" d="M118-194c89-4 53 116 60 194h-32v-121c0-31-8-49-39-48C35-167 63-67 58 0H26l-1-190h30c1 10-1 24 2 32 11-22 29-35 61-36zm-37-17c8-23 27-35 38-54h36v5l-58 49H81" id="aC"/><g id="m"><use transform="matrix(0.06172839506172839,0,0,0.06172839506172839,0,0)" xlink:href="#an"/><use transform="matrix(0.06172839506172839,0,0,0.06172839506172839,12.345679012345679,0)" xlink:href="#af"/><use transform="matrix(0.06172839506172839,0,0,0.06172839506172839,24.691358024691358,0)" xlink:href="#ag"/><use transform="matrix(0.06172839506172839,0,0,0.06172839506172839,32.03703703703704,0)" xlink:href="#Y"/><use transform="matrix(0.06172839506172839,0,0,0.06172839506172839,44.382716049382715,0)" xlink:href="#am"/><use transform="matrix(0.06172839506172839,0,0,0.06172839506172839,60.37037037037037,0)" xlink:href="#Z"/><use transform="matrix(0.06172839506172839,0,0,0.06172839506172839,72.71604938271605,0)" xlink:href="#ac"/><use transform="matrix(0.06172839506172839,0,0,0.06172839506172839,77.5925925925926,0)" xlink:href="#aa"/><use transform="matrix(0.06172839506172839,0,0,0.06172839506172839,89.93827160493828,0)" xlink:href="#aC"/></g><path fill="#333" d="M147 0L96-86 75-71V0H25v-261h50v150l67-79h53l-66 74L201 0h-54" id="aD"/><g id="n"><use transform="matrix(0.04938271604938272,0,0,0.04938271604938272,0,0)" xlink:href="#aq"/><use transform="matrix(0.04938271604938272,0,0,0.04938271604938272,13.827160493827162,0)" xlink:href="#ar"/><use transform="matrix(0.04938271604938272,0,0,0.04938271604938272,24.641975308641975,0)" xlink:href="#as"/><use transform="matrix(0.04938271604938272,0,0,0.04938271604938272,29.58024691358025,0)" xlink:href="#at"/><use transform="matrix(0.04938271604938272,0,0,0.04938271604938272,40.39506172839506,0)" xlink:href="#au"/><use transform="matrix(0.04938271604938272,0,0,0.04938271604938272,50.27160493827161,0)" xlink:href="#av"/><use transform="matrix(0.04938271604938272,0,0,0.04938271604938272,60.14814814814815,0)" xlink:href="#aD"/></g><path fill="#333" d="M115-3C79 11 28 4 28-45v-112H4v-33h27l15-45h31v45h36v33H77v99c-1 23 16 31 38 25v30" id="aE"/><path fill="#333" d="M133-34C117-15 103 5 69 4 32 3 11-16 11-54c-1-60 55-63 116-61 1-26-3-47-28-47-18 1-26 9-28 27l-52-2c7-38 36-58 82-57s74 22 75 68l1 82c-1 14 12 18 25 15v27c-30 8-71 5-69-32zm-48 3c29 0 43-24 42-57-32 0-66-3-65 30 0 17 8 27 23 27" id="aF"/><g id="o"><use transform="matrix(0.04938271604938272,0,0,0.04938271604938272,0,0)" xlink:href="#aE"/><use transform="matrix(0.04938271604938272,0,0,0.04938271604938272,5.8765432098765435,0)" xlink:href="#aF"/><use transform="matrix(0.04938271604938272,0,0,0.04938271604938272,15.753086419753087,0)" xlink:href="#aD"/></g><g id="p"><use transform="matrix(0.04938271604938272,0,0,0.04938271604938272,0,0)" xlink:href="#ar"/><use transform="matrix(0.04938271604938272,0,0,0.04938271604938272,10.814814814814815,0)" xlink:href="#as"/><use transform="matrix(0.04938271604938272,0,0,0.04938271604938272,15.753086419753087,0)" xlink:href="#av"/></g><g id="q"><use transform="matrix(0.06172839506172839,0,0,0.06172839506172839,0,0)" xlink:href="#U"/><use transform="matrix(0.06172839506172839,0,0,0.06172839506172839,14.814814814814813,0)" xlink:href="#V"/><use transform="matrix(0.06172839506172839,0,0,0.06172839506172839,27.160493827160494,0)" xlink:href="#ac"/><use transform="matrix(0.06172839506172839,0,0,0.06172839506172839,32.03703703703704,0)" xlink:href="#Z"/><use transform="matrix(0.06172839506172839,0,0,0.06172839506172839,44.382716049382715,0)" xlink:href="#ax"/><use transform="matrix(0.06172839506172839,0,0,0.06172839506172839,50.55555555555556,0)" xlink:href="#V"/><use transform="matrix(0.06172839506172839,0,0,0.06172839506172839,62.901234567901234,0)" xlink:href="#ag"/><use transform="matrix(0.06172839506172839,0,0,0.06172839506172839,70.24691358024691,0)" xlink:href="#ap"/><use transform="matrix(0.06172839506172839,0,0,0.06172839506172839,88.7037037037037,0)" xlink:href="#V"/><use transform="matrix(0.06172839506172839,0,0,0.06172839506172839,101.04938271604938,0)" xlink:href="#am"/><use transform="matrix(0.06172839506172839,0,0,0.06172839506172839,117.03703703703704,0)" xlink:href="#Y"/><use transform="matrix(0.06172839506172839,0,0,0.06172839506172839,129.3827160493827,0)" xlink:href="#Z"/><use transform="matrix(0.06172839506172839,0,0,0.06172839506172839,141.72839506172838,0)" xlink:href="#ac"/><use transform="matrix(0.06172839506172839,0,0,0.06172839506172839,146.6049382716049,0)" xlink:href="#aa"/></g><use transform="matrix(0.06172839506172839,0,0,0.06172839506172839,0,0)" xlink:href="#V" id="r"/><g id="s"><use transform="matrix(0.06172839506172839,0,0,0.06172839506172839,0,0)" xlink:href="#V"/><use transform="matrix(0.06172839506172839,0,0,0.06172839506172839,12.345679012345679,0)" xlink:href="#aw"/><use transform="matrix(0.06172839506172839,0,0,0.06172839506172839,24.691358024691358,0)" xlink:href="#ag"/><use transform="matrix(0.06172839506172839,0,0,0.06172839506172839,32.03703703703704,0)" xlink:href="#ah"/><use transform="matrix(0.06172839506172839,0,0,0.06172839506172839,43.14814814814815,0)" xlink:href="#an"/><use transform="matrix(0.06172839506172839,0,0,0.06172839506172839,55.49382716049383,0)" xlink:href="#al"/><use transform="matrix(0.06172839506172839,0,0,0.06172839506172839,66.60493827160494,0)" xlink:href="#aa"/><use transform="matrix(0.06172839506172839,0,0,0.06172839506172839,78.95061728395062,0)" xlink:href="#Z"/><use transform="matrix(0.06172839506172839,0,0,0.06172839506172839,91.2962962962963,0)" xlink:href="#ac"/><use transform="matrix(0.06172839506172839,0,0,0.06172839506172839,96.17283950617285,0)" xlink:href="#an"/></g><path fill="#3a414a" d="M30 0v-248h187v28H63v79h144v27H63v87h162V0H30" id="aG"/><path fill="#3a414a" d="M108 0H70L1-190h34L89-25l56-165h34" id="aH"/><path fill="#3a414a" d="M59-47c-2 24 18 29 38 22v24C64 9 27 4 27-40v-127H5v-23h24l9-43h21v43h35v23H59v120" id="aI"/><g id="t"><use transform="matrix(0.06172839506172839,0,0,0.06172839506172839,0,0)" xlink:href="#aG"/><use transform="matrix(0.06172839506172839,0,0,0.06172839506172839,14.814814814814813,0)" xlink:href="#aH"/><use transform="matrix(0.06172839506172839,0,0,0.06172839506172839,25.925925925925924,0)" xlink:href="#aa"/><use transform="matrix(0.06172839506172839,0,0,0.06172839506172839,38.2716049382716,0)" xlink:href="#Z"/><use transform="matrix(0.06172839506172839,0,0,0.06172839506172839,50.61728395061728,0)" xlink:href="#aI"/></g><path fill="#333" d="M110-251c83-7 118 89 53 130-17 10-36 21-38 46H78c2-56 65-53 71-103 2-21-15-35-38-34-25 1-41 14-44 38l-50-2c6-48 39-70 93-75zM77 0v-47h51V0H77" id="aJ"/><g id="u"><use transform="matrix(0.04938271604938272,0,0,0.04938271604938272,0,0)" xlink:href="#at"/><use transform="matrix(0.04938271604938272,0,0,0.04938271604938272,10.814814814814815,0)" xlink:href="#aD"/><use transform="matrix(0.04938271604938272,0,0,0.04938271604938272,20.69135802469136,0)" xlink:href="#aJ"/></g><g id="v"><use transform="matrix(0.06172839506172839,0,0,0.06172839506172839,0,0)" xlink:href="#am"/><use transform="matrix(0.06172839506172839,0,0,0.06172839506172839,15.987654320987653,0)" xlink:href="#ai"/><use transform="matrix(0.06172839506172839,0,0,0.06172839506172839,27.098765432098766,0)" xlink:href="#aw"/><use transform="matrix(0.06172839506172839,0,0,0.06172839506172839,39.44444444444444,0)" xlink:href="#Y"/><use transform="matrix(0.06172839506172839,0,0,0.06172839506172839,51.79012345679012,0)" xlink:href="#Z"/><use transform="matrix(0.06172839506172839,0,0,0.06172839506172839,64.1358024691358,0)" xlink:href="#ac"/><use transform="matrix(0.06172839506172839,0,0,0.06172839506172839,69.01234567901234,0)" xlink:href="#aa"/></g><g id="w"><use transform="matrix(0.06172839506172839,0,0,0.06172839506172839,0,0)" xlink:href="#V"/><use transform="matrix(0.06172839506172839,0,0,0.06172839506172839,12.345679012345679,0)" xlink:href="#af"/><use transform="matrix(0.06172839506172839,0,0,0.06172839506172839,24.691358024691358,0)" xlink:href="#ac"/><use transform="matrix(0.06172839506172839,0,0,0.06172839506172839,29.5679012345679,0)" xlink:href="#Z"/><use transform="matrix(0.06172839506172839,0,0,0.06172839506172839,41.913580246913575,0)" xlink:href="#ac"/><use transform="matrix(0.06172839506172839,0,0,0.06172839506172839,46.79012345679012,0)" xlink:href="#ac"/></g><path fill="#333" d="M25 0v-261h50V0H25" id="aK"/><g id="x"><use transform="matrix(0.04938271604938272,0,0,0.04938271604938272,0,0)" xlink:href="#as"/><use transform="matrix(0.04938271604938272,0,0,0.04938271604938272,4.938271604938272,0)" xlink:href="#aK"/><use transform="matrix(0.04938271604938272,0,0,0.04938271604938272,9.876543209876544,0)" xlink:href="#av"/></g><path fill="#333" d="M135-194c53 0 70 44 70 98 0 56-19 98-73 100-31 1-45-17-59-34 3 33 2 69 2 105H25l-1-265h48c2 10 0 23 3 31 11-24 29-35 60-35zM114-30c33 0 39-31 40-66 0-38-9-64-40-64-56 0-55 130 0 130" id="aL"/><g id="y"><use transform="matrix(0.04938271604938272,0,0,0.04938271604938272,0,0)" xlink:href="#at"/><use transform="matrix(0.04938271604938272,0,0,0.04938271604938272,10.814814814814815,0)" xlink:href="#aL"/><use transform="matrix(0.04938271604938272,0,0,0.04938271604938272,21.62962962962963,0)" xlink:href="#as"/><use transform="matrix(0.04938271604938272,0,0,0.04938271604938272,26.567901234567902,0)" xlink:href="#ar"/><use transform="matrix(0.04938271604938272,0,0,0.04938271604938272,37.382716049382715,0)" xlink:href="#as"/><use transform="matrix(0.04938271604938272,0,0,0.04938271604938272,42.32098765432099,0)" xlink:href="#as"/></g><path fill="#333" d="M12 0v-35l95-120H19v-35h142v35L67-36h103V0H12" id="aM"/><path fill="#333" d="M123 10C108 53 80 86 19 72V37c35 8 53-11 59-39L3-190h52l48 148c12-52 28-100 44-148h51" id="aN"/><path fill="#333" d="M190-63c-7 42-38 67-86 67-59 0-84-38-90-98-12-110 154-137 174-36l-49 2c-2-19-15-32-35-32-30 0-35 28-38 64-6 74 65 87 74 30" id="aO"/><path fill="#333" d="M114-157C55-157 80-60 75 0H25v-261h50l-1 109c12-26 28-41 61-42 86-1 58 113 63 194h-50c-7-57 23-157-34-157" id="aP"/><g id="z"><use transform="matrix(0.04938271604938272,0,0,0.04938271604938272,0,0)" xlink:href="#aL"/><use transform="matrix(0.04938271604938272,0,0,0.04938271604938272,10.814814814814815,0)" xlink:href="#at"/><use transform="matrix(0.04938271604938272,0,0,0.04938271604938272,21.62962962962963,0)" xlink:href="#aM"/><use transform="matrix(0.04938271604938272,0,0,0.04938271604938272,30.518518518518523,0)" xlink:href="#aN"/><use transform="matrix(0.04938271604938272,0,0,0.04938271604938272,40.39506172839506,0)" xlink:href="#aE"/><use transform="matrix(0.04938271604938272,0,0,0.04938271604938272,46.27160493827161,0)" xlink:href="#aN"/><use transform="matrix(0.04938271604938272,0,0,0.04938271604938272,56.14814814814815,0)" xlink:href="#aq"/><use transform="matrix(0.04938271604938272,0,0,0.04938271604938272,69.97530864197532,0)" xlink:href="#ar"/><use transform="matrix(0.04938271604938272,0,0,0.04938271604938272,80.79012345679013,0)" xlink:href="#aN"/><use transform="matrix(0.04938271604938272,0,0,0.04938271604938272,90.66666666666667,0)" xlink:href="#aO"/><use transform="matrix(0.04938271604938272,0,0,0.04938271604938272,100.54320987654322,0)" xlink:href="#aP"/></g><path fill="#333" d="M128-127c34 4 56 21 59 58 7 91-148 94-172 28-4-9-6-17-7-26l51-5c1 24 16 35 40 36 23 0 39-12 38-36-1-31-31-36-65-34v-40c32 2 59-3 59-33 0-20-13-33-34-33s-33 13-35 32l-50-3c6-44 37-68 86-68 50 0 83 20 83 66 0 35-22 52-53 58" id="aQ"/><use transform="matrix(0.04938271604938272,0,0,0.04938271604938272,0,0)" xlink:href="#aQ" id="A"/><g id="B"><use transform="matrix(0.06172839506172839,0,0,0.06172839506172839,0,0)" xlink:href="#af"/><use transform="matrix(0.06172839506172839,0,0,0.06172839506172839,12.345679012345679,0)" xlink:href="#V"/><use transform="matrix(0.06172839506172839,0,0,0.06172839506172839,24.691358024691358,0)" xlink:href="#ac"/><use transform="matrix(0.06172839506172839,0,0,0.06172839506172839,29.5679012345679,0)" xlink:href="#Z"/><use transform="matrix(0.06172839506172839,0,0,0.06172839506172839,41.913580246913575,0)" xlink:href="#ax"/><use transform="matrix(0.06172839506172839,0,0,0.06172839506172839,48.08641975308642,0)" xlink:href="#V"/><use transform="matrix(0.06172839506172839,0,0,0.06172839506172839,60.432098765432094,0)" xlink:href="#ag"/><use transform="matrix(0.06172839506172839,0,0,0.06172839506172839,67.77777777777777,0)" xlink:href="#ap"/><use transform="matrix(0.06172839506172839,0,0,0.06172839506172839,86.23456790123456,0)" xlink:href="#V"/><use transform="matrix(0.06172839506172839,0,0,0.06172839506172839,98.58024691358024,0)" xlink:href="#am"/><use transform="matrix(0.06172839506172839,0,0,0.06172839506172839,114.5679012345679,0)" xlink:href="#Y"/><use transform="matrix(0.06172839506172839,0,0,0.06172839506172839,126.91358024691357,0)" xlink:href="#Z"/><use transform="matrix(0.06172839506172839,0,0,0.06172839506172839,139.25925925925927,0)" xlink:href="#ac"/><use transform="matrix(0.06172839506172839,0,0,0.06172839506172839,144.1358024691358,0)" xlink:href="#aa"/></g><g id="C"><use transform="matrix(0.06172839506172839,0,0,0.06172839506172839,0,0)" xlink:href="#V"/><use transform="matrix(0.06172839506172839,0,0,0.06172839506172839,12.345679012345679,0)" xlink:href="#af"/><use transform="matrix(0.06172839506172839,0,0,0.06172839506172839,24.691358024691358,0)" xlink:href="#ag"/><use transform="matrix(0.06172839506172839,0,0,0.06172839506172839,32.03703703703704,0)" xlink:href="#ah"/><use transform="matrix(0.06172839506172839,0,0,0.06172839506172839,43.14814814814815,0)" xlink:href="#ai"/><use transform="matrix(0.06172839506172839,0,0,0.06172839506172839,54.25925925925927,0)" xlink:href="#ah"/><use transform="matrix(0.06172839506172839,0,0,0.06172839506172839,65.37037037037038,0)" xlink:href="#Z"/><use transform="matrix(0.06172839506172839,0,0,0.06172839506172839,77.71604938271606,0)" xlink:href="#Y"/><use transform="matrix(0.06172839506172839,0,0,0.06172839506172839,90.06172839506175,0)" xlink:href="#Z"/><use transform="matrix(0.06172839506172839,0,0,0.06172839506172839,102.40740740740743,0)" xlink:href="#ac"/><use transform="matrix(0.06172839506172839,0,0,0.06172839506172839,107.28395061728398,0)" xlink:href="#an"/></g><path fill="#333" d="M101-251c68 0 84 54 84 127C185-50 166 4 99 4S15-52 14-124c-1-75 17-127 87-127zm-1 216c37-5 36-46 36-89s4-89-36-89c-39 0-36 45-36 89 0 43-3 85 36 89" id="aR"/><use transform="matrix(0.04938271604938272,0,0,0.04938271604938272,0,0)" xlink:href="#aR" id="D"/><path fill="#333" d="M85 4C-2 5 27-109 22-190h50c7 57-23 150 33 157 60-5 35-97 40-157h50l1 190h-47c-2-12 1-28-3-38-12 25-28 42-61 42" id="aS"/><path fill="#333" d="M135-194c52 0 70 43 70 98 0 56-19 99-73 100-30 1-46-15-58-35L72 0H24l1-261h50v104c11-23 29-37 60-37zM114-30c31 0 40-27 40-66 0-37-7-63-39-63s-41 28-41 65c0 36 8 64 40 64" id="aT"/><g id="E"><use transform="matrix(0.04938271604938272,0,0,0.04938271604938272,0,0)" xlink:href="#aK"/><use transform="matrix(0.04938271604938272,0,0,0.04938271604938272,4.938271604938272,0)" xlink:href="#aS"/><use transform="matrix(0.04938271604938272,0,0,0.04938271604938272,15.753086419753087,0)" xlink:href="#aT"/></g><path fill="#333" d="M23 0v-37h61v-169l-59 37v-38l62-41h46v211h57V0H23" id="aU"/><use transform="matrix(0.04938271604938272,0,0,0.04938271604938272,0,0)" xlink:href="#aU" id="F"/><g id="G"><use transform="matrix(0.06172839506172839,0,0,0.06172839506172839,0,0)" xlink:href="#ac"/><use transform="matrix(0.06172839506172839,0,0,0.06172839506172839,4.876543209876543,0)" xlink:href="#Z"/><use transform="matrix(0.06172839506172839,0,0,0.06172839506172839,17.22222222222222,0)" xlink:href="#ax"/><use transform="matrix(0.06172839506172839,0,0,0.06172839506172839,23.39506172839506,0)" xlink:href="#V"/><use transform="matrix(0.06172839506172839,0,0,0.06172839506172839,35.74074074074074,0)" xlink:href="#ag"/><use transform="matrix(0.06172839506172839,0,0,0.06172839506172839,43.08641975308642,0)" xlink:href="#ap"/><use transform="matrix(0.06172839506172839,0,0,0.06172839506172839,61.5432098765432,0)" xlink:href="#Y"/><use transform="matrix(0.06172839506172839,0,0,0.06172839506172839,73.88888888888889,0)" xlink:href="#al"/><use transform="matrix(0.06172839506172839,0,0,0.06172839506172839,85,0)" xlink:href="#aj"/><use transform="matrix(0.06172839506172839,0,0,0.06172839506172839,89.87654320987654,0)" xlink:href="#Y"/></g><use transform="matrix(0.06172839506172839,0,0,0.06172839506172839,0,0)" xlink:href="#V" id="H"/><g id="I"><use transform="matrix(0.06172839506172839,0,0,0.06172839506172839,0,0)" xlink:href="#V"/><use transform="matrix(0.06172839506172839,0,0,0.06172839506172839,12.345679012345679,0)" xlink:href="#aw"/><use transform="matrix(0.06172839506172839,0,0,0.06172839506172839,24.691358024691358,0)" xlink:href="#ag"/><use transform="matrix(0.06172839506172839,0,0,0.06172839506172839,32.03703703703704,0)" xlink:href="#ah"/><use transform="matrix(0.06172839506172839,0,0,0.06172839506172839,43.14814814814815,0)" xlink:href="#an"/><use transform="matrix(0.06172839506172839,0,0,0.06172839506172839,55.49382716049383,0)" xlink:href="#al"/><use transform="matrix(0.06172839506172839,0,0,0.06172839506172839,66.60493827160494,0)" xlink:href="#aa"/><use transform="matrix(0.06172839506172839,0,0,0.06172839506172839,78.95061728395062,0)" xlink:href="#Z"/><use transform="matrix(0.06172839506172839,0,0,0.06172839506172839,91.2962962962963,0)" xlink:href="#ac"/><use transform="matrix(0.06172839506172839,0,0,0.06172839506172839,96.17283950617285,0)" xlink:href="#an"/></g><path fill="#333" d="M182-182c0 78-84 86-111 141h115V0H12c-6-101 99-100 120-180 1-22-12-31-33-32-23 0-32 14-35 34l-49-3c5-45 32-70 84-70 51 0 83 22 83 69" id="aV"/><use transform="matrix(0.04938271604938272,0,0,0.04938271604938272,0,0)" xlink:href="#aV" id="J"/><g id="K"><use transform="matrix(0.06172839506172839,0,0,0.06172839506172839,0,0)" xlink:href="#W"/><use transform="matrix(0.06172839506172839,0,0,0.06172839506172839,4.876543209876543,0)" xlink:href="#V"/><use transform="matrix(0.06172839506172839,0,0,0.06172839506172839,17.22222222222222,0)" xlink:href="#ad"/><use transform="matrix(0.06172839506172839,0,0,0.06172839506172839,28.333333333333332,0)" xlink:href="#V"/><use transform="matrix(0.06172839506172839,0,0,0.06172839506172839,40.67901234567901,0)" xlink:href="#am"/><use transform="matrix(0.06172839506172839,0,0,0.06172839506172839,56.666666666666664,0)" xlink:href="#Y"/><use transform="matrix(0.06172839506172839,0,0,0.06172839506172839,69.01234567901234,0)" xlink:href="#Z"/><use transform="matrix(0.06172839506172839,0,0,0.06172839506172839,81.35802469135803,0)" xlink:href="#ac"/><use transform="matrix(0.06172839506172839,0,0,0.06172839506172839,86.23456790123457,0)" xlink:href="#aa"/></g><g id="L"><use transform="matrix(0.06172839506172839,0,0,0.06172839506172839,0,0)" xlink:href="#al"/><use transform="matrix(0.06172839506172839,0,0,0.06172839506172839,11.11111111111111,0)" xlink:href="#ah"/><use transform="matrix(0.06172839506172839,0,0,0.06172839506172839,22.22222222222222,0)" xlink:href="#ai"/></g><path fill="#3a414a" d="M103-251c84 0 111 97 45 133-19 10-37 24-39 52H78c0-63 77-55 77-114 0-30-21-42-52-43-32 0-53 17-56 46l-32-2c7-45 34-72 88-72zM77 0v-35h34V0H77" id="aW"/><g id="M"><use transform="matrix(0.06172839506172839,0,0,0.06172839506172839,0,0)" xlink:href="#af"/><use transform="matrix(0.06172839506172839,0,0,0.06172839506172839,12.345679012345679,0)" xlink:href="#ag"/><use transform="matrix(0.06172839506172839,0,0,0.06172839506172839,19.691358024691358,0)" xlink:href="#ah"/><use transform="matrix(0.06172839506172839,0,0,0.06172839506172839,30.80246913580247,0)" xlink:href="#ai"/><use transform="matrix(0.06172839506172839,0,0,0.06172839506172839,41.91358024691358,0)" xlink:href="#ah"/><use transform="matrix(0.06172839506172839,0,0,0.06172839506172839,53.0246913580247,0)" xlink:href="#Z"/><use transform="matrix(0.06172839506172839,0,0,0.06172839506172839,65.37037037037038,0)" xlink:href="#Y"/><use transform="matrix(0.06172839506172839,0,0,0.06172839506172839,77.71604938271606,0)" xlink:href="#Z"/><use transform="matrix(0.06172839506172839,0,0,0.06172839506172839,90.06172839506175,0)" xlink:href="#Y"/><use transform="matrix(0.06172839506172839,0,0,0.06172839506172839,102.40740740740743,0)" xlink:href="#aW"/></g><g id="N"><use transform="matrix(0.04938271604938272,0,0,0.04938271604938272,0,0)" xlink:href="#aE"/><use transform="matrix(0.04938271604938272,0,0,0.04938271604938272,5.8765432098765435,0)" xlink:href="#aF"/><use transform="matrix(0.04938271604938272,0,0,0.04938271604938272,15.753086419753087,0)" xlink:href="#aD"/></g><g id="O"><use transform="matrix(0.06172839506172839,0,0,0.06172839506172839,0,0)" xlink:href="#Y"/><use transform="matrix(0.06172839506172839,0,0,0.06172839506172839,12.345679012345679,0)" xlink:href="#ag"/><use transform="matrix(0.06172839506172839,0,0,0.06172839506172839,19.691358024691358,0)" xlink:href="#al"/><use transform="matrix(0.06172839506172839,0,0,0.06172839506172839,30.80246913580247,0)" xlink:href="#ao"/><use transform="matrix(0.06172839506172839,0,0,0.06172839506172839,43.148148148148145,0)" xlink:href="#ac"/><use transform="matrix(0.06172839506172839,0,0,0.06172839506172839,48.02469135802469,0)" xlink:href="#am"/><use transform="matrix(0.06172839506172839,0,0,0.06172839506172839,64.01234567901234,0)" xlink:href="#an"/><use transform="matrix(0.06172839506172839,0,0,0.06172839506172839,76.35802469135803,0)" xlink:href="#ap"/></g><g id="P"><use transform="matrix(0.06172839506172839,0,0,0.06172839506172839,0,0)" xlink:href="#V"/><use transform="matrix(0.06172839506172839,0,0,0.06172839506172839,12.345679012345679,0)" xlink:href="#af"/><use transform="matrix(0.06172839506172839,0,0,0.06172839506172839,24.691358024691358,0)" xlink:href="#ac"/></g><g id="Q"><use transform="matrix(0.06172839506172839,0,0,0.06172839506172839,0,0)" xlink:href="#Z"/><use transform="matrix(0.06172839506172839,0,0,0.06172839506172839,12.345679012345679,0)" xlink:href="#ac"/><use transform="matrix(0.06172839506172839,0,0,0.06172839506172839,17.22222222222222,0)" xlink:href="#ac"/></g><g id="R"><use transform="matrix(0.06172839506172839,0,0,0.06172839506172839,0,0)" xlink:href="#am"/><use transform="matrix(0.06172839506172839,0,0,0.06172839506172839,15.987654320987653,0)" xlink:href="#ai"/><use transform="matrix(0.06172839506172839,0,0,0.06172839506172839,27.098765432098766,0)" xlink:href="#Z"/><use transform="matrix(0.06172839506172839,0,0,0.06172839506172839,39.44444444444444,0)" xlink:href="#ac"/><use transform="matrix(0.06172839506172839,0,0,0.06172839506172839,44.32098765432099,0)" xlink:href="#ae"/></g><g id="S"><use transform="matrix(0.06172839506172839,0,0,0.06172839506172839,0,0)" xlink:href="#ag"/><use transform="matrix(0.06172839506172839,0,0,0.06172839506172839,7.345679012345679,0)" xlink:href="#V"/><use transform="matrix(0.06172839506172839,0,0,0.06172839506172839,19.691358024691358,0)" xlink:href="#af"/><use transform="matrix(0.06172839506172839,0,0,0.06172839506172839,32.03703703703704,0)" xlink:href="#Y"/><use transform="matrix(0.06172839506172839,0,0,0.06172839506172839,44.382716049382715,0)" xlink:href="#aI"/><use transform="matrix(0.06172839506172839,0,0,0.06172839506172839,50.55555555555556,0)" xlink:href="#ag"/><use transform="matrix(0.06172839506172839,0,0,0.06172839506172839,57.901234567901234,0)" xlink:href="#ai"/><use transform="matrix(0.06172839506172839,0,0,0.06172839506172839,69.01234567901234,0)" xlink:href="#am"/><use transform="matrix(0.06172839506172839,0,0,0.06172839506172839,85,0)" xlink:href="#Y"/><use transform="matrix(0.06172839506172839,0,0,0.06172839506172839,97.34567901234568,0)" xlink:href="#Z"/><use transform="matrix(0.06172839506172839,0,0,0.06172839506172839,109.69135802469137,0)" xlink:href="#ac"/><use transform="matrix(0.06172839506172839,0,0,0.06172839506172839,114.56790123456791,0)" xlink:href="#Y"/></g><path fill="#333" d="M88-194c31-1 46 15 58 34l-1-101h50l1 261h-48c-2-10 0-23-3-31C134-8 116 4 84 4 32 4 16-41 15-95c0-56 19-97 73-99zm17 164c33 0 40-30 41-66 1-37-9-64-41-64s-38 30-39 65c0 43 13 65 39 65" id="aX"/><path fill="#333" d="M25-224v-37h50v37H25zM75 22c2 45-34 59-81 51V38c22 5 31-5 31-27v-201h50V22" id="aY"/><g id="T"><use transform="matrix(0.04938271604938272,0,0,0.04938271604938272,0,0)" xlink:href="#aX"/><use transform="matrix(0.04938271604938272,0,0,0.04938271604938272,10.814814814814815,0)" xlink:href="#av"/><use transform="matrix(0.04938271604938272,0,0,0.04938271604938272,20.69135802469136,0)" xlink:href="#aO"/><use transform="matrix(0.04938271604938272,0,0,0.04938271604938272,30.567901234567906,0)" xlink:href="#aN"/><use transform="matrix(0.04938271604938272,0,0,0.04938271604938272,40.44444444444445,0)" xlink:href="#aM"/><use transform="matrix(0.04938271604938272,0,0,0.04938271604938272,49.33333333333334,0)" xlink:href="#aY"/><use transform="matrix(0.04938271604938272,0,0,0.04938271604938272,54.27160493827161,0)" xlink:href="#aF"/></g></defs></g></svg>