<svg xmlns="http://www.w3.org/2000/svg" xmlns:xlink="http://www.w3.org/1999/xlink" xmlns:lucid="lucid" width="3477.73" height="1740"><g transform="translate(-220 -200)" lucid:page-tab-id="R~y~Oo2Et95g"><path d="M0 0h3677.73v2581.67H0z" fill="#fff"/><path d="M281.67 1920H246c-3.3 0-6-2.7-6-6V226c0-3.3 2.7-6 6-6h35.67z" stroke="#3a414a" fill="#fff"/><path d="M281.67 220h3390.06c3.32 0 6 2.7 6 6v634H281.67zM3677.73 860v1054c0 3.3-2.68 6-6 6H281.67V860z" stroke="#3a414a" fill="none"/><use xlink:href="#a" transform="matrix(-1.8369701987210297e-16,-1,1,-1.8369701987210297e-16,239.99999999999977,1920) translate(792.0679012345679 25.444444444444443)"/><use xlink:href="#b" transform="matrix(-1.8369701987210297e-16,-1,1,-1.8369701987210297e-16,239.99999999999977,1920) translate(859.8456790123457 25.444444444444443)"/><use xlink:href="#c" transform="matrix(-1.8369701987210297e-16,-1,1,-1.8369701987210297e-16,281.6666666666667,860) translate(292.28395061728395 25.444444444444443)"/><use xlink:href="#d" transform="matrix(-1.8369701987210297e-16,-1,1,-1.8369701987210297e-16,281.6666666666665,1920) translate(438.2098765432099 25.444444444444443)"/><use xlink:href="#e" transform="matrix(-1.8369701987210297e-16,-1,1,-1.8369701987210297e-16,281.6666666666665,1920) translate(546.6666666666666 25.444444444444443)"/><path d="M440 377.5c0 16.57-13.43 30-30 30s-30-13.43-30-30 13.43-30 30-30 30 13.43 30 30z" stroke="#e08fff" fill="#fff"/><path d="M390 366.25h40v22.5h-40z" stroke="#e08fff" fill="#fff"/><path d="M390 366.25l20 11.25 20-11.25" stroke="#e08fff" fill="none"/><use xlink:href="#f" transform="matrix(1,0,0,1,380,409.5) translate(-23.61111111111112 17.77777777777778)"/><path d="M880 966c0-3.3 2.7-6 6-6h148c3.3 0 6 2.7 6 6v68c0 3.3-2.7 6-6 6H886c-3.3 0-6-2.7-6-6z" stroke="#3a414a" fill="#fff"/><path d="M888.6 975.3h35v20h-35z" stroke="#3a414a" fill="#fff"/><path d="M888.6 975.3l17.5 10 17.5-10" stroke="#3a414a" fill="none"/><use xlink:href="#g" transform="matrix(1,0,0,1,880,960) translate(74.57382716049383 25.844444444444445)"/><use xlink:href="#h" transform="matrix(1,0,0,1,880,960) translate(55.37012345679013 42.111111111111114)"/><use xlink:href="#i" transform="matrix(1,0,0,1,880,960) translate(133.57814814814816 42.111111111111114)"/><use xlink:href="#j" transform="matrix(1,0,0,1,880,960) translate(61.949753086419754 58.37777777777778)"/><path d="M600 377.5l37.5-37.5 37.5 37.5-37.5 37.5z" stroke="#3a414a" fill="#fff"/><path d="M622.5 362.5l30 30m-30 0l30-30" stroke="#3a414a" fill="none"/><path d="M517.5 282.67c0-3.32 2.7-6 6-6h228c3.3 0 6 2.68 6 6V334c0 3.3-2.7 6-6 6h-228c-3.3 0-6-2.7-6-6z" stroke="#000" stroke-opacity="0" fill="#fff" fill-opacity="0"/><use xlink:href="#k" transform="matrix(1,0,0,1,522.5,281.6666666666667) translate(25.64197530864199 29.319444444444443)"/><use xlink:href="#l" transform="matrix(1,0,0,1,522.5,281.6666666666667) translate(44.61111111111112 29.319444444444443)"/><use xlink:href="#m" transform="matrix(1,0,0,1,522.5,281.6666666666667) translate(72.17901234567901 29.319444444444443)"/><use xlink:href="#n" transform="matrix(1,0,0,1,522.5,281.6666666666667) translate(126.62345679012346 29.319444444444443)"/><path d="M676.2 377.5h105.4c3.32 0 6 2.7 6 6v149.67c0 3.3 2.7 6 6 6h89.52" stroke="#3a414a" fill="none"/><path d="M676.22 378h-1l.5-.5-.5-.5h1z" stroke="#3a414a" stroke-width=".05" fill="#3a414a"/><path d="M897.88 539.17l-14.26 4.63v-9.27z" stroke="#3a414a" fill="#3a414a"/><path d="M900 503.5c0-3.3 2.7-6 6-6h128c3.3 0 6 2.7 6 6v71.33c0 3.32-2.7 6-6 6H906c-3.3 0-6-2.68-6-6z" stroke="#3a414a" fill="#fff"/><path d="M908.4 512.83h35v20h-35z" stroke="#3a414a"/><path d="M908.4 512.83l17.5 10 17.5-10" stroke="#fff" fill="none"/><use xlink:href="#o" transform="matrix(1,0,0,1,900.0000000000001,497.5) translate(60.06055555555557 29.041666666666664)"/><use xlink:href="#p" transform="matrix(1,0,0,1,900.0000000000001,497.5) translate(63.76425925925927 45.041666666666664)"/><use xlink:href="#q" transform="matrix(1,0,0,1,900.0000000000001,497.5) translate(33.042037037037055 61.041666666666664)"/><use xlink:href="#r" transform="matrix(1,0,0,1,900.0000000000001,497.5) translate(69.3012962962963 61.041666666666664)"/><path d="M637.5 416.2v35.4c0 3.32-2.7 6-6 6H566c-3.3 0-6 2.7-6 6v19.52" stroke="#3a414a" fill="none"/><path d="M638 416.22h-1v-1l.5.5.5-.5z" stroke="#3a414a" stroke-width=".05" fill="#3a414a"/><path d="M560 497.88l-4.64-14.26h9.28z" stroke="#3a414a" fill="#3a414a"/><path d="M480 506c0-3.3 2.7-6 6-6h148c3.3 0 6 2.7 6 6v48c0 3.3-2.7 6-6 6H486c-3.3 0-6-2.7-6-6z" stroke="#3a414a" fill="#fff"/><path d="M488.6 515.1h35v20h-35z" stroke="#3a414a"/><path d="M488.6 515.1l17.5 10 17.5-10" stroke="#fff" fill="none"/><use xlink:href="#s" transform="matrix(1,0,0,1,480,500) translate(52.43092592592594 25.666666666666664)"/><use xlink:href="#t" transform="matrix(1,0,0,1,480,500) translate(119.02351851851851 25.666666666666664)"/><use xlink:href="#u" transform="matrix(1,0,0,1,480,500) translate(82.02351851851853 41.66666666666666)"/><path d="M441 377.5h141.9" stroke="#3a414a" fill="none"/><path d="M441 378h-.54l.04-.5-.02-.5h.53z" stroke="#3a414a" stroke-width=".05" fill="#3a414a"/><path d="M597.67 377.5l-14.26 4.64v-9.28z" stroke="#3a414a" fill="#3a414a"/><path d="M970 581.83V943.13" stroke="#3a414a" fill="none"/><path d="M970.5 581.85h-1v-.52h1z" stroke="#3a414a" stroke-width=".05" fill="#3a414a"/><path d="M970 957.88l-4.64-14.26h9.28z" stroke="#3a414a" fill="#3a414a"/><path d="M560 561v382.12" stroke="#3a414a" fill="none"/><path d="M560.5 561h-1v-.5h1z" stroke="#3a414a" stroke-width=".05" fill="#3a414a"/><path d="M560 957.88l-4.64-14.26h9.28z" stroke="#3a414a" fill="#3a414a"/><path d="M480 966c0-3.3 2.7-6 6-6h148c3.3 0 6 2.7 6 6v68c0 3.3-2.7 6-6 6H486c-3.3 0-6-2.7-6-6z" stroke="#3a414a" fill="#fff"/><path d="M488.6 975.3h35v20h-35z" stroke="#3a414a" fill="#fff"/><path d="M488.6 975.3l17.5 10 17.5-10" stroke="#3a414a" fill="none"/><use xlink:href="#g" transform="matrix(1,0,0,1,480,960) translate(74.57382716049383 25.844444444444445)"/><use xlink:href="#h" transform="matrix(1,0,0,1,480,960) translate(55.37012345679013 42.111111111111114)"/><use xlink:href="#i" transform="matrix(1,0,0,1,480,960) translate(133.57814814814816 42.111111111111114)"/><use xlink:href="#j" transform="matrix(1,0,0,1,480,960) translate(61.949753086419754 58.37777777777778)"/><path d="M560 1041v117.6" stroke="#3a414a" fill="none"/><path d="M560.5 1041h-1v-.5h1z" stroke="#3a414a" stroke-width=".05" fill="#3a414a"/><path d="M549.82 1141.3l10.18 17.22 10.18-17.22" stroke="#3a414a" fill="none"/><path d="M480 1166c0-3.3 2.7-6 6-6h148c3.3 0 6 2.7 6 6v108c0 3.3-2.7 6-6 6H486c-3.3 0-6-2.7-6-6z" stroke="#3a414a" fill="#fff"/><path d="M488.6 1194.1v-14.7l7-4.2h12.95c1.05 0 .35 2.1-.7 4h-8.75l-.35.4h23.8c.35 0 1.05 1.9-.7 3.8h-14l-.35.4h14s1.05 1.9-1.05 3.8H508.9l-.35.4h11.2s1.05 1.9-1.05 3.8h-10.5l-.35.4h9.8s1.05 1.9-.7 4H492.1z" stroke="#3a414a" fill="#fff"/><use xlink:href="#v" transform="matrix(1,0,0,1,480,1160) translate(5.770432098765449 53.69444444444444)"/><use xlink:href="#w" transform="matrix(1,0,0,1,480,1160) translate(56.671666666666674 53.69444444444444)"/><use xlink:href="#x" transform="matrix(1,0,0,1,480,1160) translate(136.9556172839506 53.69444444444444)"/><use xlink:href="#y" transform="matrix(1,0,0,1,480,1160) translate(57.57907407407408 72.36111111111111)"/><path d="M560 1281v33c0 3.3 2.7 6 6 6h268c3.3 0 6 2.7 6 6v33" stroke="#3a414a" fill="none"/><path d="M560.5 1281h-1v-.5h1zM840.5 1359.5h-1v-.5h1z" stroke="#3a414a" stroke-width=".05" fill="#3a414a"/><path d="M960 1041v153c0 3.3-2.7 6-6 6H846c-3.3 0-6 2.7-6 6v137.12" stroke="#3a414a" fill="none"/><path d="M960.5 1041h-1v-.5h1z" stroke="#3a414a" stroke-width=".05" fill="#3a414a"/><path d="M840 1357.88l-4.64-14.26h9.28z" stroke="#3a414a" fill="#3a414a"/><path d="M760 1366c0-3.3 2.7-6 6-6h148c3.3 0 6 2.7 6 6v108c0 3.3-2.7 6-6 6H766c-3.3 0-6-2.7-6-6z" stroke="#3a414a" fill="#fff"/><path d="M787.7 1374.64l3.15-3.14 2.94 2.94-3.16 3.13 1.16 2.78h4.44v4.15h-4.44l-1.16 2.8 3.15 3.14-2.95 2.94-3.15-3.14-2.8 1.15v4.45h-4.14v-4.46l-2.8-1.16-3.14 3.14-2.94-2.94 3.14-3.13-1.15-2.77h-4.44v-4.15h4.44l1.15-2.8-3.14-3.14 2.94-2.94 3.13 3.14 2.8-1.15v-4.47h4.16v4.46l2.8 1.14z" stroke="#000" stroke-width="2" fill="#fff"/><path d="M787.7 1374.64l3.15-3.14 2.94 2.94-3.16 3.13 1.16 2.78h4.44v4.15h-4.44l-1.16 2.8 3.15 3.14-2.95 2.94-3.15-3.14-2.8 1.15v4.45h-4.14v-4.46l-2.8-1.16-3.14 3.14-2.94-2.94 3.14-3.13-1.15-2.77h-4.44v-4.15h4.44l1.15-2.8-3.14-3.14 2.94-2.94 3.13 3.14 2.8-1.15v-4.47h4.16v4.46l2.8 1.14z" stroke="#000" stroke-width="2" fill="#fff"/><path d="M787.4 1382.43c0-2.52-2.05-4.55-4.56-4.55-2.52 0-4.55 2.03-4.55 4.55 0 2.5 2.02 4.57 4.54 4.57 2.5 0 4.55-2.06 4.55-4.57z" stroke="#000" stroke-width="2" fill="#fff"/><path d="M795.07 1382l3.14-3.15 2.95 2.94-3.14 3.12 1.16 2.8h4.44v4.16h-4.44l-1.15 2.78 3.15 3.16-2.94 2.93-3.13-3.16-2.8 1.16v4.44h-4.15v-4.44l-2.8-1.17-3.15 3.15-2.9-2.93 3.12-3.16-1.18-2.78h-4.44v-4.15h4.44l1.17-2.8-3.16-3.14 2.93-2.95 3.16 3.14 2.8-1.16v-4.44h4.14v4.44l2.8 1.15z" stroke="#000" stroke-width="2" fill="#fff"/><path d="M795.07 1382l3.14-3.15 2.95 2.94-3.14 3.12 1.16 2.8h4.44v4.16h-4.44l-1.15 2.78 3.15 3.16-2.94 2.93-3.13-3.16-2.8 1.16v4.44h-4.15v-4.44l-2.8-1.17-3.15 3.15-2.9-2.93 3.12-3.16-1.18-2.78h-4.44v-4.15h4.44l1.17-2.8-3.16-3.14 2.93-2.95 3.16 3.14 2.8-1.16v-4.44h4.14v4.44l2.8 1.15z" stroke="#000" stroke-width="2" fill="#fff"/><path d="M794.76 1389.8c0-2.52-2.05-4.57-4.57-4.57-2.53 0-4.56 2.06-4.56 4.57 0 2.52 2.03 4.55 4.55 4.55 2.5 0 4.56-2.03 4.56-4.55z" stroke="#000" stroke-width="2" fill="#fff"/><use xlink:href="#z" transform="matrix(1,0,0,1,760,1360) translate(67.03 51.9)"/><use xlink:href="#A" transform="matrix(1,0,0,1,760,1360) translate(36.05499999999999 73.5)"/><path d="M921 1420h101.9" stroke="#3a414a" fill="none"/><path d="M921 1420.5h-.5v-1h.5z" stroke="#3a414a" stroke-width=".05" fill="#3a414a"/><path d="M1037.67 1420l-14.26 4.64v-9.28z" stroke="#3a414a" fill="#3a414a"/><path d="M1040 1420l37.5-37.5 37.5 37.5-37.5 37.5z" stroke="#3a414a" fill="#fff"/><path d="M1077.5 1397.5v45M1055 1420h45M1116.2 1420h45.4c3.32 0 6-2.7 6-6v-68c0-3.3 2.7-6 6-6h29.52" stroke="#3a414a" fill="none"/><path d="M1116.22 1420.5h-1l.5-.5-.5-.5h1z" stroke="#3a414a" stroke-width=".05" fill="#3a414a"/><path d="M1217.88 1340l-14.26 4.64v-9.28z" stroke="#3a414a" fill="#3a414a"/><path d="M1220 1286c0-3.3 2.7-6 6-6h148c3.3 0 6 2.7 6 6v108c0 3.3-2.7 6-6 6h-148c-3.3 0-6-2.7-6-6z" stroke="#3a414a" fill="#fff"/><path d="M1228.6 1314.1v-14.7l7-4.2h12.95c1.05 0 .35 2.1-.7 4h-8.75l-.35.4h23.8c.35 0 1.05 1.9-.7 3.8h-14l-.35.4h14s1.05 1.9-1.05 3.8h-11.55l-.35.4h11.2s1.05 1.9-1.05 3.8h-10.5l-.35.4h9.8s1.05 1.9-.7 4h-24.85z" stroke="#3a414a" fill="#fff"/><use xlink:href="#B" transform="matrix(1,0,0,1,1220,1280) translate(20.171666666666688 64.75)"/><use xlink:href="#C" transform="matrix(1,0,0,1,1220,1280) translate(87.83833333333334 64.75)"/><path d="M1220 1446c0-3.3 2.7-6 6-6h148c3.3 0 6 2.7 6 6v108c0 3.3-2.7 6-6 6h-148c-3.3 0-6-2.7-6-6z" stroke="#3a414a" fill="#fff"/><path d="M1229.46 1483.2h34.14v-11.33s-3.3-5.66-10.04-7.47h-13.1c-6.28 1.93-11.12 8.3-11.12 8.3l.12 10.5z" stroke="#000" fill="#f4f6f7"/><path d="M1229.46 1483.2h34.14v-11.33s-3.3-5.66-10.04-7.47h-13.1c-6.28 1.93-11.12 8.3-11.12 8.3l.12 10.5zM1236.9 1477.04v5.56M1256.62 1477.16v5.8" stroke="#000" fill="none"/><path d="M1254.74 1456.8c0-4.34-3.45-7.84-7.7-7.84-4.23 0-7.66 3.5-7.66 7.83 0 4.32 3.43 7.84 7.67 7.84s7.7-3.52 7.7-7.85z" stroke="#000" fill="#020202"/><path d="M1254.74 1456.8c0-4.34-3.45-7.84-7.7-7.84-4.23 0-7.66 3.5-7.66 7.83 0 4.32 3.43 7.84 7.67 7.84s7.7-3.52 7.7-7.85z" stroke="#000" fill="none"/><path d="M1240.03 1458.48s3.98-3.5 7.6-2.62c3.64.9 6.58-1 6.58-1 .35 2.45.07 5.43-2.06 8.1 0 0 1.54 1.07 1.54 2.16 0 1.1.18 2.7-1.42 4.33-1.6 1.63-7.8 1.8-9.57 0-1.78-1.8-1.78-2.64-1.78-3.84 0-1.2.83-1.8 1.77-2.77-1.55-.85-3.56-3.45-2.67-4.35z" stroke="#000" fill="#f0eff0"/><path d="M1240.03 1458.48s3.98-3.5 7.6-2.62c3.64.9 6.58-1 6.58-1 .35 2.45.07 5.43-2.06 8.1 0 0 1.54 1.07 1.54 2.16 0 1.1.18 2.7-1.42 4.33-1.6 1.63-7.8 1.8-9.57 0-1.78-1.8-1.78-2.64-1.78-3.84 0-1.2.83-1.8 1.77-2.77-1.55-.85-3.56-3.45-2.67-4.35z" stroke="#000" fill="none"/><use xlink:href="#D" transform="matrix(1,0,0,1,1220,1440) translate(50.580000000000005 54.06666666666667)"/><use xlink:href="#E" transform="matrix(1,0,0,1,1220,1440) translate(119.11518518518518 54.06666666666667)"/><use xlink:href="#F" transform="matrix(1,0,0,1,1220,1440) translate(32.877222222222215 67.66666666666667)"/><use xlink:href="#G" transform="matrix(1,0,0,1,1220,1440) translate(81.89388888888888 67.66666666666667)"/><path d="M1116.2 1420h45.4c3.32 0 6 2.7 6 6v68c0 3.3 2.7 6 6 6h29.52" stroke="#3a414a" fill="none"/><path d="M1116.22 1420.5h-1l.5-.5-.5-.5h1z" stroke="#3a414a" stroke-width=".05" fill="#3a414a"/><path d="M1217.88 1500l-14.26 4.64v-9.28z" stroke="#3a414a" fill="#3a414a"/><path d="M1581.04 1500.5h-32.33v-1h32.34zm57.96 0h-32.33v-1H1639z" stroke="#3a414a" stroke-width=".05" fill="#3a414a"/><path d="M1548.72 1500.5h-1l.5-.5-.5-.5h1z" fill="#3a414a"/><path d="M1548.74 1500.53h-1.1l.53-.53-.52-.53h1.1zm-.97-1l.47.47-.47.47h.92v-.94z" stroke="#3a414a" stroke-width=".05" fill="#3a414a"/><path d="M1639.5 1500.5h-.5v-1h.5z" fill="#3a414a"/><path d="M1639.53 1500.53h-.57v-1.06h.57zm-.52-1v.94h.47v-.94z" stroke="#3a414a" stroke-width=".05" fill="#3a414a"/><use xlink:href="#H" transform="matrix(1,0,0,1,1581.0387385757786,1489.3333333333333) translate(0 14.222222222222223)"/><path d="M1381 1500h74.4" stroke="#3a414a" fill="none"/><path d="M1381 1500.5h-.5v-1h.5z" stroke="#3a414a" stroke-width=".05" fill="#3a414a"/><path d="M1470.17 1500l-14.26 4.64v-9.28z" stroke="#3a414a" fill="#3a414a"/><path d="M1640 1446c0-3.3 2.7-6 6-6h148c3.3 0 6 2.7 6 6v108c0 3.3-2.7 6-6 6h-148c-3.3 0-6-2.7-6-6z" stroke="#3a414a" fill="#fff"/><path d="M1667.7 1454.64l3.15-3.14 2.94 2.94-3.16 3.13 1.16 2.78h4.44v4.15h-4.44l-1.16 2.8 3.15 3.14-2.95 2.94-3.15-3.14-2.8 1.15v4.45h-4.14v-4.46l-2.8-1.16-3.14 3.14-2.94-2.94 3.14-3.13-1.15-2.77h-4.44v-4.15h4.44l1.15-2.8-3.14-3.14 2.94-2.94 3.13 3.14 2.8-1.15v-4.47h4.16v4.46l2.8 1.14z" stroke="#000" stroke-width="2" fill="#fff"/><path d="M1667.7 1454.64l3.15-3.14 2.94 2.94-3.16 3.13 1.16 2.78h4.44v4.15h-4.44l-1.16 2.8 3.15 3.14-2.95 2.94-3.15-3.14-2.8 1.15v4.45h-4.14v-4.46l-2.8-1.16-3.14 3.14-2.94-2.94 3.14-3.13-1.15-2.77h-4.44v-4.15h4.44l1.15-2.8-3.14-3.14 2.94-2.94 3.13 3.14 2.8-1.15v-4.47h4.16v4.46l2.8 1.14z" stroke="#000" stroke-width="2" fill="#fff"/><path d="M1667.4 1462.43c0-2.52-2.05-4.55-4.56-4.55-2.52 0-4.55 2.03-4.55 4.55 0 2.5 2.02 4.57 4.54 4.57 2.5 0 4.55-2.06 4.55-4.57z" stroke="#000" stroke-width="2" fill="#fff"/><path d="M1675.07 1462l3.14-3.15 2.95 2.94-3.14 3.12 1.16 2.8h4.44v4.16h-4.44l-1.15 2.78 3.15 3.16-2.94 2.93-3.13-3.16-2.8 1.16v4.44h-4.15v-4.44l-2.8-1.17-3.15 3.15-2.9-2.93 3.12-3.16-1.18-2.78h-4.44v-4.15h4.44l1.17-2.8-3.16-3.14 2.93-2.95 3.16 3.14 2.8-1.16v-4.44h4.14v4.44l2.8 1.15z" stroke="#000" stroke-width="2" fill="#fff"/><path d="M1675.07 1462l3.14-3.15 2.95 2.94-3.14 3.12 1.16 2.8h4.44v4.16h-4.44l-1.15 2.78 3.15 3.16-2.94 2.93-3.13-3.16-2.8 1.16v4.44h-4.15v-4.44l-2.8-1.17-3.15 3.15-2.9-2.93 3.12-3.16-1.18-2.78h-4.44v-4.15h4.44l1.17-2.8-3.16-3.14 2.93-2.95 3.16 3.14 2.8-1.16v-4.44h4.14v4.44l2.8 1.15z" stroke="#000" stroke-width="2" fill="#fff"/><path d="M1674.76 1469.8c0-2.52-2.05-4.57-4.57-4.57-2.53 0-4.56 2.06-4.56 4.57 0 2.52 2.03 4.55 4.55 4.55 2.5 0 4.56-2.03 4.56-4.55z" stroke="#000" stroke-width="2" fill="#fff"/><use xlink:href="#I" transform="matrix(1,0,0,1,1640,1440) translate(57.65314814814814 51.52777777777778)"/><use xlink:href="#J" transform="matrix(1,0,0,1,1640,1440) translate(25.74574074074073 78.19444444444446)"/><path d="M1472.5 1500l37.5-37.5 37.5 37.5-37.5 37.5z" stroke="#3a414a" fill="#fff"/><path d="M1495 1485l30 30m-30 0l30-30" stroke="#3a414a" fill="none"/><path d="M1400 1426c0-3.3 2.7-6 6-6h228c3.3 0 6 2.7 6 6v48c0 3.3-2.7 6-6 6h-228c-3.3 0-6-2.7-6-6z" stroke="#000" stroke-opacity="0" fill="#fff" fill-opacity="0"/><use xlink:href="#K" transform="matrix(1,0,0,1,1405,1425) translate(38.580246913580254 30.27777777777778)"/><use xlink:href="#L" transform="matrix(1,0,0,1,1405,1425) translate(82.96296296296296 30.27777777777778)"/><use xlink:href="#M" transform="matrix(1,0,0,1,1405,1425) translate(179.07407407407408 30.27777777777778)"/><path d="M1420 1146c0-3.3 2.7-6 6-6h148c3.3 0 6 2.7 6 6v108c0 3.3-2.7 6-6 6h-148c-3.3 0-6-2.7-6-6z" stroke="#3a414a" fill="#fff"/><path d="M1429.46 1183.2h34.14v-11.33s-3.3-5.66-10.04-7.47h-13.1c-6.28 1.93-11.12 8.3-11.12 8.3l.12 10.5z" stroke="#000" fill="#f4f6f7"/><path d="M1429.46 1183.2h34.14v-11.33s-3.3-5.66-10.04-7.47h-13.1c-6.28 1.93-11.12 8.3-11.12 8.3l.12 10.5zM1436.9 1177.04v5.56M1456.62 1177.16v5.8" stroke="#000" fill="none"/><path d="M1454.74 1156.8c0-4.34-3.45-7.84-7.7-7.84-4.23 0-7.66 3.5-7.66 7.83 0 4.32 3.43 7.84 7.67 7.84s7.7-3.52 7.7-7.85z" stroke="#000" fill="#020202"/><path d="M1454.74 1156.8c0-4.34-3.45-7.84-7.7-7.84-4.23 0-7.66 3.5-7.66 7.83 0 4.32 3.43 7.84 7.67 7.84s7.7-3.52 7.7-7.85z" stroke="#000" fill="none"/><path d="M1440.03 1158.48s3.98-3.5 7.6-2.62c3.64.9 6.58-1 6.58-1 .35 2.45.07 5.43-2.06 8.1 0 0 1.54 1.07 1.54 2.16 0 1.1.18 2.7-1.42 4.33-1.6 1.63-7.8 1.8-9.57 0-1.78-1.8-1.78-2.64-1.78-3.84 0-1.2.83-1.8 1.77-2.77-1.55-.85-3.56-3.45-2.67-4.35z" stroke="#000" fill="#f0eff0"/><path d="M1440.03 1158.48s3.98-3.5 7.6-2.62c3.64.9 6.58-1 6.58-1 .35 2.45.07 5.43-2.06 8.1 0 0 1.54 1.07 1.54 2.16 0 1.1.18 2.7-1.42 4.33-1.6 1.63-7.8 1.8-9.57 0-1.78-1.8-1.78-2.64-1.78-3.84 0-1.2.83-1.8 1.77-2.77-1.55-.85-3.56-3.45-2.67-4.35z" stroke="#000" fill="none"/><use xlink:href="#N" transform="matrix(1,0,0,1,1420,1140) translate(62.005 51.52777777777778)"/><use xlink:href="#O" transform="matrix(1,0,0,1,1420,1140) translate(38.09141975308641 78.19444444444446)"/><path d="M1581 1200h353c3.3 0 6-2.7 6-6V536.88" stroke="#3a414a" fill="none"/><path d="M1581 1200.5h-.5v-1h.5z" stroke="#3a414a" stroke-width=".05" fill="#3a414a"/><path d="M1940 522.12l4.64 14.26h-9.28z" stroke="#3a414a" fill="#3a414a"/><path d="M1860 406c0-3.3 2.7-6 6-6h148c3.3 0 6 2.7 6 6v108c0 3.3-2.7 6-6 6h-148c-3.3 0-6-2.7-6-6z" stroke="#3a414a" fill="#fff"/><path d="M1868.6 415.7h35v20h-35z" stroke="#3a414a"/><path d="M1868.6 415.7l17.5 10 17.5-10" stroke="#fff" fill="none"/><use xlink:href="#P" transform="matrix(1,0,0,1,1860,400) translate(17.890802469135814 53.69444444444444)"/><use xlink:href="#Q" transform="matrix(1,0,0,1,1860,400) translate(133.47722222222222 53.69444444444444)"/><use xlink:href="#R" transform="matrix(1,0,0,1,1860,400) translate(51.961790123456794 72.36111111111111)"/><path d="M2021 460h261.9" stroke="#3a414a" fill="none"/><path d="M2021 460.5h-.5v-1h.5z" stroke="#3a414a" stroke-width=".05" fill="#3a414a"/><path d="M2297.67 460l-14.26 4.64v-9.28z" stroke="#3a414a" fill="#3a414a"/><path d="M2300 460l37.5-37.5L2375 460l-37.5 37.5z" stroke="#3a414a" fill="#fff"/><path d="M2322.5 445l30 30m-30 0l30-30" stroke="#3a414a" fill="none"/><path d="M2217.5 364.33c0-3.3 2.7-6 6-6h228c3.3 0 6 2.7 6 6v51.34c0 3.3-2.7 6-6 6h-228c-3.3 0-6-2.7-6-6z" stroke="#000" stroke-opacity="0" fill="#fff" fill-opacity="0"/><use xlink:href="#K" transform="matrix(1,0,0,1,2222.5,363.3333333333333) translate(5.216049382716037 17.77777777777778)"/><use xlink:href="#S" transform="matrix(1,0,0,1,2222.5,363.3333333333333) translate(49.59876543209875 17.77777777777778)"/><use xlink:href="#T" transform="matrix(1,0,0,1,2222.5,363.3333333333333) translate(90.27777777777776 17.77777777777778)"/><use xlink:href="#M" transform="matrix(1,0,0,1,2222.5,363.3333333333333) translate(108.82716049382717 44.44444444444444)"/><path d="M2494.8 460.5h-118.6v-1h118.6zm128.32 0h-102.7v-1h102.7z" stroke="#3a414a" stroke-width=".05" fill="#3a414a"/><path d="M2376.22 460.5h-1l.5-.5-.5-.5h1z" fill="#3a414a"/><path d="M2376.24 460.52h-1.1l.53-.52-.52-.52h1.1zm-.97-1l.47.48-.47.48h.92v-.96z" stroke="#3a414a" stroke-width=".05" fill="#3a414a"/><path d="M2637.88 460l-14.26 4.64v-9.28z" fill="#3a414a"/><path d="M2639.5 460l-16.38 5.32v-10.64zm-15.38 3.95l12.14-3.95-12.14-3.95z" stroke="#3a414a" stroke-width=".05" fill="#3a414a"/><use xlink:href="#H" transform="matrix(1,0,0,1,2494.7887385757786,449.3333333333333) translate(0 14.222222222222223)"/><path d="M2640 406c0-3.3 2.7-6 6-6h148c3.3 0 6 2.7 6 6v108c0 3.3-2.7 6-6 6h-148c-3.3 0-6-2.7-6-6z" stroke="#3a414a" fill="#fff"/><path d="M2648.6 434.1v-14.7l7-4.2h12.95c1.05 0 .35 2.1-.7 4h-8.75l-.35.4h23.8c.35 0 1.05 1.9-.7 3.8h-14l-.35.4h14s1.05 1.9-1.05 3.8h-11.55l-.35.4h11.2s1.05 1.9-1.05 3.8h-10.5l-.35.4h9.8s1.05 1.9-.7 4h-24.85z" stroke="#3a414a" fill="#fff"/><use xlink:href="#U" transform="matrix(1,0,0,1,2640,400) translate(49.745740740740736 36.52777777777778)"/><use xlink:href="#V" transform="matrix(1,0,0,1,2640,400) translate(36.208703703703705 63.19444444444445)"/><use xlink:href="#W" transform="matrix(1,0,0,1,2640,400) translate(99.10993827160493 63.19444444444445)"/><use xlink:href="#X" transform="matrix(1,0,0,1,2640,400) translate(37.47413580246913 89.86111111111111)"/><path d="M2338 679h-1v-79.48h1zm0-100.8h-1v-79.5h1z" stroke="#3a414a" stroke-width=".05" fill="#3a414a"/><path d="M2338 498.72h-1v-1l.5.5.5-.5z" fill="#3a414a"/><path d="M2338.03 498.74h-1.06v-1.1l.53.53.53-.52zm-1-.05h.94v-.93l-.47.47-.47-.47z" stroke="#3a414a" stroke-width=".05" fill="#3a414a"/><path d="M2338 679.54l-.5-.04-.5.02V679h1z" fill="#3a414a"/><path d="M2338.03 679.57l-.52-.05-.53.02v-.58h1.06zm-1-.56v.5l.48-.03.47.04v-.5z" stroke="#3a414a" stroke-width=".05" fill="#3a414a"/><use xlink:href="#Y" transform="matrix(1,0,0,1,2324.685185185185,578.1867307929433) translate(0 14.222222222222223)"/><path d="M2367.5 710c0 16.57-13.43 30-30 30s-30-13.43-30-30 13.43-30 30-30 30 13.43 30 30z" stroke="#3a414a" fill="#979ea8"/><path d="M2364.5 710c0 14.9-12.1 27-27 27s-27-12.1-27-27 12.1-27 27-27 27 12.1 27 27z" stroke="#3a414a" fill="#979ea8"/><path d="M2720.5 1494.07l-.87 3.22-2.34 2.33-3.23.87h-897.2v-1h897.06l2.84-.77 1.96-1.96.77-2.84V521h1z" stroke="#3a414a" stroke-width=".05" fill="#3a414a"/><path d="M2720.5 521h-1v-.5h1z" fill="#3a414a"/><path d="M2720.53 521.04h-1.06v-.56h1.06zm-1-.5v.45h.94v-.48z" stroke="#3a414a" stroke-width=".05" fill="#3a414a"/><path d="M1816.38 1504.64l-14.26-4.64 14.26-4.64z" fill="#3a414a"/><path d="M1816.88 1505.32l-16.38-5.32 16.38-5.32zm-13.14-5.32l12.14 3.95v-7.9zM1501.4 1358.8l2.22 1.62 1.5.24 3.14 1.03 1.96 2.67.28 1.74v79.3h-1v-79.2l-.23-1.44-1.63-2.22-2.76-.9-1.66-.27-2.68-1.96-1-3.05h1.05zm-.9-23.78h-1V1261h1z" stroke="#3a414a" stroke-width=".05" fill="#3a414a"/><path d="M1500.5 1261h-1v-.5h1z" fill="#3a414a"/><path d="M1500.53 1261.04h-1.06v-.57h1.06zm-1-.5v.45h.94v-.47z" stroke="#3a414a" stroke-width=".05" fill="#3a414a"/><path d="M1510 1460.17l-4.64-14.26h9.28z" fill="#3a414a"/><path d="M1510 1461.8l-5.32-16.4h10.64zm-3.95-15.4l3.95 12.16 3.95-12.15z" stroke="#3a414a" stroke-width=".05" fill="#3a414a"/><g><use xlink:href="#Y" transform="matrix(1,0,0,1,1487.1851851851852,1335.0180934131006) translate(0 14.222222222222223)"/></g><path d="M1720 1561v102.12" stroke="#3a414a" fill="none"/><path d="M1720.5 1561h-1v-.5h1z" stroke="#3a414a" stroke-width=".05" fill="#3a414a"/><path d="M1720 1677.88l-4.64-14.26h9.28z" stroke="#3a414a" fill="#3a414a"/><path d="M1640 1686c0-3.3 2.7-6 6-6h148c3.3 0 6 2.7 6 6v108c0 3.3-2.7 6-6 6h-148c-3.3 0-6-2.7-6-6z" stroke="#3a414a" fill="#fff"/><path d="M1649.46 1723.2h34.14v-11.33s-3.3-5.66-10.04-7.47h-13.1c-6.28 1.93-11.12 8.3-11.12 8.3l.12 10.5z" stroke="#000" fill="#f4f6f7"/><path d="M1649.46 1723.2h34.14v-11.33s-3.3-5.66-10.04-7.47h-13.1c-6.28 1.93-11.12 8.3-11.12 8.3l.12 10.5zM1656.9 1717.04v5.56M1676.62 1717.16v5.8" stroke="#000" fill="none"/><path d="M1674.74 1696.8c0-4.34-3.45-7.84-7.7-7.84-4.23 0-7.66 3.5-7.66 7.83 0 4.32 3.43 7.84 7.67 7.84s7.7-3.52 7.7-7.85z" stroke="#000" fill="#020202"/><path d="M1674.74 1696.8c0-4.34-3.45-7.84-7.7-7.84-4.23 0-7.66 3.5-7.66 7.83 0 4.32 3.43 7.84 7.67 7.84s7.7-3.52 7.7-7.85z" stroke="#000" fill="none"/><path d="M1660.03 1698.48s3.98-3.5 7.6-2.62c3.64.9 6.58-1 6.58-1 .35 2.45.07 5.43-2.06 8.1 0 0 1.54 1.07 1.54 2.16 0 1.1.18 2.7-1.42 4.33-1.6 1.63-7.8 1.8-9.57 0-1.78-1.8-1.78-2.64-1.78-3.84 0-1.2.83-1.8 1.77-2.77-1.55-.85-3.56-3.45-2.67-4.35z" stroke="#000" fill="#f0eff0"/><path d="M1660.03 1698.48s3.98-3.5 7.6-2.62c3.64.9 6.58-1 6.58-1 .35 2.45.07 5.43-2.06 8.1 0 0 1.54 1.07 1.54 2.16 0 1.1.18 2.7-1.42 4.33-1.6 1.63-7.8 1.8-9.57 0-1.78-1.8-1.78-2.64-1.78-3.84 0-1.2.83-1.8 1.77-2.77-1.55-.85-3.56-3.45-2.67-4.35z" stroke="#000" fill="none"/><g><use xlink:href="#Z" transform="matrix(1,0,0,1,1640,1680) translate(20.2519135802469 66.78777777777778)"/><use xlink:href="#aa" transform="matrix(1,0,0,1,1640,1680) translate(23.955617283950616 93.45444444444445)"/><use xlink:href="#W" transform="matrix(1,0,0,1,1640,1680) translate(111.36302469135802 93.45444444444445)"/></g><path d="M2940.5 1734.07l-.87 3.22-2.34 2.33-3.23.87H1801v-1h1132.93l2.84-.77 1.96-1.96.77-2.84V556.88h1z" stroke="#3a414a" stroke-width=".05" fill="#3a414a"/><path d="M1801 1740.5h-.5v-1h.5z" fill="#3a414a"/><path d="M1801.04 1740.53h-.57v-1.06h.57zm-.5-1v.94h.45v-.94z" stroke="#3a414a" stroke-width=".05" fill="#3a414a"/><path d="M2944.64 556.38h-9.28l4.64-14.26z" fill="#3a414a"/><path d="M2945.32 556.88h-10.64l5.32-16.38zm-9.27-1h7.9l-3.95-12.14z" stroke="#3a414a" stroke-width=".05" fill="#3a414a"/><path d="M2860 426c0-3.3 2.7-6 6-6h148c3.3 0 6 2.7 6 6v108c0 3.3-2.7 6-6 6h-148c-3.3 0-6-2.7-6-6z" stroke="#3a414a" fill="#fff"/><path d="M2868.6 454.1v-14.7l7-4.2h12.95c1.05 0 .35 2.1-.7 4h-8.75l-.35.4h23.8c.35 0 1.05 1.9-.7 3.8h-14l-.35.4h14s1.05 1.9-1.05 3.8h-11.55l-.35.4h11.2s1.05 1.9-1.05 3.8h-10.5l-.35.4h9.8s1.05 1.9-.7 4h-24.85z" stroke="#3a414a" fill="#fff"/><g><use xlink:href="#ab" transform="matrix(1,0,0,1,2860,420) translate(15.282777777777776 58.78777777777778)"/><use xlink:href="#ac" transform="matrix(1,0,0,1,2860,420) translate(10.313641975308636 85.45444444444445)"/><use xlink:href="#ad" transform="matrix(1,0,0,1,2860,420) translate(125.00500000000001 85.45444444444445)"/></g><path d="M560 959v-78.5" stroke="#3a414a" fill="none"/><path d="M560.5 959.5h-1v-.5h1z" stroke="#3a414a" stroke-width=".05" fill="#3a414a"/><path d="M560 880.5v-.5" stroke="#3a414a" fill="none"/><defs><path fill="#3a414a" d="M185-189c-5-48-123-54-124 2 14 75 158 14 163 119 3 78-121 87-175 55-17-10-28-26-33-46l33-7c5 56 141 63 141-1 0-78-155-14-162-118-5-82 145-84 179-34 5 7 8 16 11 25" id="ae"/><path fill="#3a414a" d="M100-194c63 0 86 42 84 106H49c0 40 14 67 53 68 26 1 43-12 49-29l28 8c-11 28-37 45-77 45C44 4 14-33 15-96c1-61 26-98 85-98zm52 81c6-60-76-77-97-28-3 7-6 17-6 28h103" id="af"/><path fill="#3a414a" d="M114-163C36-179 61-72 57 0H25l-1-190h30c1 12-1 29 2 39 6-27 23-49 58-41v29" id="ag"/><path fill="#3a414a" d="M108 0H70L1-190h34L89-25l56-165h34" id="ah"/><path fill="#3a414a" d="M24-231v-30h32v30H24zM24 0v-190h32V0H24" id="ai"/><path fill="#3a414a" d="M135-143c-3-34-86-38-87 0 15 53 115 12 119 90S17 21 10-45l28-5c4 36 97 45 98 0-10-56-113-15-118-90-4-57 82-63 122-42 12 7 21 19 24 35" id="aj"/><g id="a"><use transform="matrix(0.06172839506172839,0,0,0.06172839506172839,0,0)" xlink:href="#ae"/><use transform="matrix(0.06172839506172839,0,0,0.06172839506172839,14.814814814814813,0)" xlink:href="#af"/><use transform="matrix(0.06172839506172839,0,0,0.06172839506172839,27.160493827160494,0)" xlink:href="#ag"/><use transform="matrix(0.06172839506172839,0,0,0.06172839506172839,34.50617283950617,0)" xlink:href="#ah"/><use transform="matrix(0.06172839506172839,0,0,0.06172839506172839,45.61728395061728,0)" xlink:href="#ai"/><use transform="matrix(0.06172839506172839,0,0,0.06172839506172839,50.49382716049382,0)" xlink:href="#aj"/></g><path fill="#3a414a" d="M205 0l-28-72H64L36 0H1l101-248h38L239 0h-34zm-38-99l-47-123c-12 45-31 82-46 123h93" id="ak"/><path fill="#3a414a" d="M143 4C61 4 22-44 18-125c-5-107 100-154 193-111 17 8 29 25 37 43l-32 9c-13-25-37-40-76-40-61 0-88 39-88 99 0 61 29 100 91 101 35 0 62-11 79-27v-45h-74v-28h105v86C228-13 192 4 143 4" id="al"/><path fill="#3a414a" d="M30-248c118-7 216 8 213 122C240-48 200 0 122 0H30v-248zM63-27c89 8 146-16 146-99s-60-101-146-95v194" id="am"/><g id="b"><use transform="matrix(0.06172839506172839,0,0,0.06172839506172839,0,0)" xlink:href="#ak"/><use transform="matrix(0.06172839506172839,0,0,0.06172839506172839,14.814814814814813,0)" xlink:href="#al"/><use transform="matrix(0.06172839506172839,0,0,0.06172839506172839,32.09876543209876,0)" xlink:href="#am"/></g><path fill="#3a414a" d="M194 0L95-120 63-95V0H30v-248h33v124l119-124h40L117-140 236 0h-42" id="an"/><path fill="#3a414a" d="M24 0v-261h32V0H24" id="ao"/><path fill="#3a414a" d="M117-194c89-4 53 116 60 194h-32v-121c0-31-8-49-39-48C34-167 62-67 57 0H25l-1-190h30c1 10-1 24 2 32 11-22 29-35 61-36" id="ap"/><path fill="#3a414a" d="M59-47c-2 24 18 29 38 22v24C64 9 27 4 27-40v-127H5v-23h24l9-43h21v43h35v23H59v120" id="aq"/><g id="c"><use transform="matrix(0.06172839506172839,0,0,0.06172839506172839,0,0)" xlink:href="#an"/><use transform="matrix(0.06172839506172839,0,0,0.06172839506172839,14.814814814814813,0)" xlink:href="#ao"/><use transform="matrix(0.06172839506172839,0,0,0.06172839506172839,19.691358024691354,0)" xlink:href="#ai"/><use transform="matrix(0.06172839506172839,0,0,0.06172839506172839,24.5679012345679,0)" xlink:href="#af"/><use transform="matrix(0.06172839506172839,0,0,0.06172839506172839,36.913580246913575,0)" xlink:href="#ap"/><use transform="matrix(0.06172839506172839,0,0,0.06172839506172839,49.25925925925925,0)" xlink:href="#aq"/></g><path fill="#3a414a" d="M30-248c87 1 191-15 191 75 0 78-77 80-158 76V0H30v-248zm33 125c57 0 124 11 124-50 0-59-68-47-124-48v98" id="ar"/><path fill="#3a414a" d="M141-36C126-15 110 5 73 4 37 3 15-17 15-53c-1-64 63-63 125-63 3-35-9-54-41-54-24 1-41 7-42 31l-33-3c5-37 33-52 76-52 45 0 72 20 72 64v82c-1 20 7 32 28 27v20c-31 9-61-2-59-35zM48-53c0 20 12 33 32 33 41-3 63-29 60-74-43 2-92-5-92 41" id="as"/><path fill="#3a414a" d="M96-169c-40 0-48 33-48 73s9 75 48 75c24 0 41-14 43-38l32 2c-6 37-31 61-74 61-59 0-76-41-82-99-10-93 101-131 147-64 4 7 5 14 7 22l-32 3c-4-21-16-35-41-35" id="at"/><path fill="#3a414a" d="M100-194c62-1 85 37 85 99 1 63-27 99-86 99S16-35 15-95c0-66 28-99 85-99zM99-20c44 1 53-31 53-75 0-43-8-75-51-75s-53 32-53 75 10 74 51 75" id="au"/><path fill="#3a414a" d="M206 0h-36l-40-164L89 0H53L-1-190h32L70-26l43-164h34l41 164 42-164h31" id="av"/><path fill="#3a414a" d="M143 0L79-87 56-68V0H24v-261h32v163l83-92h37l-77 82L181 0h-38" id="aw"/><g id="d"><use transform="matrix(0.06172839506172839,0,0,0.06172839506172839,0,0)" xlink:href="#ar"/><use transform="matrix(0.06172839506172839,0,0,0.06172839506172839,14.814814814814813,0)" xlink:href="#ag"/><use transform="matrix(0.06172839506172839,0,0,0.06172839506172839,22.160493827160494,0)" xlink:href="#as"/><use transform="matrix(0.06172839506172839,0,0,0.06172839506172839,34.50617283950617,0)" xlink:href="#at"/><use transform="matrix(0.06172839506172839,0,0,0.06172839506172839,45.61728395061728,0)" xlink:href="#au"/><use transform="matrix(0.06172839506172839,0,0,0.06172839506172839,57.962962962962955,0)" xlink:href="#av"/><use transform="matrix(0.06172839506172839,0,0,0.06172839506172839,73.9506172839506,0)" xlink:href="#ap"/><use transform="matrix(0.06172839506172839,0,0,0.06172839506172839,86.29629629629629,0)" xlink:href="#ai"/><use transform="matrix(0.06172839506172839,0,0,0.06172839506172839,91.17283950617283,0)" xlink:href="#aw"/></g><path fill="#3a414a" d="M84 4C-5 8 30-112 23-190h32v120c0 31 7 50 39 49 72-2 45-101 50-169h31l1 190h-30c-1-10 1-25-2-33-11 22-28 36-60 37" id="ax"/><g id="e"><use transform="matrix(0.06172839506172839,0,0,0.06172839506172839,0,0)" xlink:href="#aj"/><use transform="matrix(0.06172839506172839,0,0,0.06172839506172839,11.11111111111111,0)" xlink:href="#af"/><use transform="matrix(0.06172839506172839,0,0,0.06172839506172839,23.45679012345679,0)" xlink:href="#ag"/><use transform="matrix(0.06172839506172839,0,0,0.06172839506172839,30.80246913580247,0)" xlink:href="#av"/><use transform="matrix(0.06172839506172839,0,0,0.06172839506172839,46.79012345679012,0)" xlink:href="#ai"/><use transform="matrix(0.06172839506172839,0,0,0.06172839506172839,51.666666666666664,0)" xlink:href="#aj"/><use transform="matrix(0.06172839506172839,0,0,0.06172839506172839,62.77777777777777,0)" xlink:href="#ax"/></g><path fill="#3a414a" d="M209 0H11v-25l151-195H24v-28h176v25L50-27h159V0" id="ay"/><path fill="#3a414a" d="M177-190C167-65 218 103 67 71c-23-6-38-20-44-43l32-5c15 47 100 32 89-28v-30C133-14 115 1 83 1 29 1 15-40 15-95c0-56 16-97 71-98 29-1 48 16 59 35 1-10 0-23 2-32h30zM94-22c36 0 50-32 50-73 0-42-14-75-50-75-39 0-46 34-46 75s6 73 46 73" id="az"/><path fill="#3a414a" d="M24 0v-95L3-83v-28l21-12v-138h32v120l22-13v28l-22 12V0H24" id="aA"/><path fill="#3a414a" d="M9 0v-24l116-142H16v-24h144v24L44-24h123V0H9" id="aB"/><g id="f"><use transform="matrix(0.06172839506172839,0,0,0.06172839506172839,0,0)" xlink:href="#ay"/><use transform="matrix(0.06172839506172839,0,0,0.06172839506172839,13.518518518518517,0)" xlink:href="#az"/><use transform="matrix(0.06172839506172839,0,0,0.06172839506172839,25.864197530864196,0)" xlink:href="#aA"/><use transform="matrix(0.06172839506172839,0,0,0.06172839506172839,30.74074074074074,0)" xlink:href="#au"/><use transform="matrix(0.06172839506172839,0,0,0.06172839506172839,43.08641975308642,0)" xlink:href="#aj"/><use transform="matrix(0.06172839506172839,0,0,0.06172839506172839,54.19753086419753,0)" xlink:href="#aB"/><use transform="matrix(0.06172839506172839,0,0,0.06172839506172839,65.30864197530865,0)" xlink:href="#af"/><use transform="matrix(0.06172839506172839,0,0,0.06172839506172839,77.65432098765433,0)" xlink:href="#ap"/><use transform="matrix(0.06172839506172839,0,0,0.06172839506172839,90.00000000000001,0)" xlink:href="#ai"/><use transform="matrix(0.06172839506172839,0,0,0.06172839506172839,94.87654320987656,0)" xlink:href="#af"/></g><path d="M30-248c87 1 191-15 191 75 0 78-77 80-158 76V0H30v-248zm33 125c57 0 124 11 124-50 0-59-68-47-124-48v98" id="aC"/><path d="M114-163C36-179 61-72 57 0H25l-1-190h30c1 12-1 29 2 39 6-27 23-49 58-41v29" id="aD"/><path d="M9 0v-24l116-142H16v-24h144v24L44-24h123V0H9" id="aE"/><path d="M179-190L93 31C79 59 56 82 12 73V49c39 6 53-20 64-50L1-190h34L92-34l54-156h33" id="aF"/><path d="M24-231v-30h32v30H24zM-9 49c24 4 33-6 33-30v-209h32V24c2 40-23 58-65 49V49" id="aG"/><path d="M100-194c63 0 86 42 84 106H49c0 40 14 67 53 68 26 1 43-12 49-29l28 8c-11 28-37 45-77 45C44 4 14-33 15-96c1-61 26-98 85-98zm52 81c6-60-76-77-97-28-3 7-6 17-6 28h103zM106 40c-1 20 24 18 37 12v18c-24 11-66 4-62-28 3-27 17-46 51-42-13 8-25 19-26 40" id="aH"/><path d="M96-169c-40 0-48 33-48 73s9 75 48 75c24 0 41-14 43-38l32 2c-6 37-31 61-74 61-59 0-76-41-82-99-10-93 101-131 147-64 4 7 5 14 7 22l-32 3c-4-21-16-35-41-35" id="aI"/><path d="M24-231v-30h32v30H24zM24 0v-190h32V0H24" id="aJ"/><path d="M100-194c63 0 86 42 84 106H49c0 40 14 67 53 68 26 1 43-12 49-29l28 8c-11 28-37 45-77 45C44 4 14-33 15-96c1-61 26-98 85-98zm52 81c6-60-76-77-97-28-3 7-6 17-6 28h103" id="aK"/><g id="g"><use transform="matrix(0.03765432098765432,0,0,0.03765432098765432,0,0)" xlink:href="#aC"/><use transform="matrix(0.03765432098765432,0,0,0.03765432098765432,9.037037037037036,0)" xlink:href="#aD"/><use transform="matrix(0.03765432098765432,0,0,0.03765432098765432,13.517901234567901,0)" xlink:href="#aE"/><use transform="matrix(0.03765432098765432,0,0,0.03765432098765432,20.29567901234568,0)" xlink:href="#aF"/><use transform="matrix(0.03765432098765432,0,0,0.03765432098765432,27.07345679012346,0)" xlink:href="#aG"/><use transform="matrix(0.03765432098765432,0,0,0.03765432098765432,30.04814814814815,0)" xlink:href="#aH"/><use transform="matrix(0.03765432098765432,0,0,0.03765432098765432,37.57901234567902,0)" xlink:href="#aI"/><use transform="matrix(0.03765432098765432,0,0,0.03765432098765432,44.3567901234568,0)" xlink:href="#aJ"/><use transform="matrix(0.03765432098765432,0,0,0.03765432098765432,47.33148148148148,0)" xlink:href="#aK"/></g><path d="M177-190C167-65 218 103 67 71c-23-6-38-20-44-43l32-5c15 47 100 32 89-28v-30C133-14 115 1 83 1 29 1 15-40 15-95c0-56 16-97 71-98 29-1 48 16 59 35 1-10 0-23 2-32h30zM94-22c36 0 50-32 50-73 0-42-14-75-50-75-39 0-46 34-46 75s6 73 46 73" id="aL"/><path d="M24 0v-95L3-83v-28l21-12v-138h32v120l22-13v28l-22 12V0H24" id="aM"/><path d="M100-194c62-1 85 37 85 99 1 63-27 99-86 99S16-35 15-95c0-66 28-99 85-99zM99-20c44 1 53-31 53-75 0-43-8-75-51-75s-53 32-53 75 10 74 51 75" id="aN"/><path d="M135-143c-3-34-86-38-87 0 15 53 115 12 119 90S17 21 10-45l28-5c4 36 97 45 98 0-10-56-113-15-118-90-4-57 82-63 122-42 12 7 21 19 24 35" id="aO"/><path d="M117-194c89-4 53 116 60 194h-32v-121c0-31-8-49-39-48C34-167 62-67 57 0H25l-1-190h30c1 10-1 24 2 32 11-22 29-35 61-36" id="aP"/><path d="M141-36C126-15 110 5 73 4 37 3 15-17 15-53c-1-64 63-63 125-63 3-35-9-54-41-54-24 1-41 7-42 31l-33-3c5-37 33-52 76-52 45 0 72 20 72 64v82c-1 20 7 32 28 27v20c-31 9-61-2-59-35zM48-53c0 20 12 33 32 33 41-3 63-29 60-74-43 2-92-5-92 41" id="aQ"/><g id="h"><use transform="matrix(0.03765432098765432,0,0,0.03765432098765432,0,0)" xlink:href="#aE"/><use transform="matrix(0.03765432098765432,0,0,0.03765432098765432,6.777777777777777,0)" xlink:href="#aL"/><use transform="matrix(0.03765432098765432,0,0,0.03765432098765432,14.30864197530864,0)" xlink:href="#aM"/><use transform="matrix(0.03765432098765432,0,0,0.03765432098765432,17.28333333333333,0)" xlink:href="#aN"/><use transform="matrix(0.03765432098765432,0,0,0.03765432098765432,24.814197530864195,0)" xlink:href="#aO"/><use transform="matrix(0.03765432098765432,0,0,0.03765432098765432,31.591975308641974,0)" xlink:href="#aE"/><use transform="matrix(0.03765432098765432,0,0,0.03765432098765432,38.36975308641975,0)" xlink:href="#aP"/><use transform="matrix(0.03765432098765432,0,0,0.03765432098765432,45.900617283950616,0)" xlink:href="#aJ"/><use transform="matrix(0.03765432098765432,0,0,0.03765432098765432,48.8753086419753,0)" xlink:href="#aK"/><use transform="matrix(0.03765432098765432,0,0,0.03765432098765432,56.40617283950617,0)" xlink:href="#aP"/><use transform="matrix(0.03765432098765432,0,0,0.03765432098765432,63.93703703703703,0)" xlink:href="#aJ"/><use transform="matrix(0.03765432098765432,0,0,0.03765432098765432,66.91172839506171,0)" xlink:href="#aQ"/></g><path d="M85-194c31 0 48 13 60 33l-1-100h32l1 261h-30c-2-10 0-23-3-31C134-8 116 4 85 4 32 4 16-35 15-94c0-66 23-100 70-100zm9 24c-40 0-46 34-46 75 0 40 6 74 45 74 42 0 51-32 51-76 0-42-9-74-50-73" id="aR"/><g id="i"><use transform="matrix(0.03765432098765432,0,0,0.03765432098765432,0,0)" xlink:href="#aN"/><use transform="matrix(0.03765432098765432,0,0,0.03765432098765432,7.530864197530864,0)" xlink:href="#aR"/></g><path d="M143 0L79-87 56-68V0H24v-261h32v163l83-92h37l-77 82L181 0h-38" id="aS"/><path d="M24 0v-261h32V0H24" id="aT"/><path d="M59-47c-2 24 18 29 38 22v24C64 9 27 4 27-40v-127H5v-23h24l9-43h21v43h35v23H59v120" id="aU"/><g id="j"><use transform="matrix(0.03765432098765432,0,0,0.03765432098765432,0,0)" xlink:href="#aS"/><use transform="matrix(0.03765432098765432,0,0,0.03765432098765432,6.777777777777777,0)" xlink:href="#aT"/><use transform="matrix(0.03765432098765432,0,0,0.03765432098765432,9.752469135802468,0)" xlink:href="#aK"/><use transform="matrix(0.03765432098765432,0,0,0.03765432098765432,17.28333333333333,0)" xlink:href="#aP"/><use transform="matrix(0.03765432098765432,0,0,0.03765432098765432,24.814197530864195,0)" xlink:href="#aU"/><use transform="matrix(0.03765432098765432,0,0,0.03765432098765432,28.579629629629625,0)" xlink:href="#aQ"/></g><path fill="#3a414a" d="M266 0h-40l-56-210L115 0H75L2-248h35L96-30l15-64 43-154h32l59 218 59-218h35" id="aV"/><use transform="matrix(0.04320987654320987,0,0,0.04320987654320987,0,0)" xlink:href="#aV" id="k"/><path fill="#3a414a" d="M24-231v-30h32v30H24zM-9 49c24 4 33-6 33-30v-209h32V24c2 40-23 58-65 49V49" id="aW"/><g id="l"><use transform="matrix(0.04320987654320987,0,0,0.04320987654320987,0,0)" xlink:href="#aW"/><use transform="matrix(0.04320987654320987,0,0,0.04320987654320987,3.4135802469135794,0)" xlink:href="#as"/><use transform="matrix(0.04320987654320987,0,0,0.04320987654320987,12.055555555555554,0)" xlink:href="#aw"/><use transform="matrix(0.04320987654320987,0,0,0.04320987654320987,19.83333333333333,0)" xlink:href="#ai"/></g><path fill="#3a414a" d="M115-194c55 1 70 41 70 98S169 2 115 4C84 4 66-9 55-30l1 105H24l-1-265h31l2 30c10-21 28-34 59-34zm-8 174c40 0 45-34 45-75s-6-73-45-74c-42 0-51 32-51 76 0 43 10 73 51 73" id="aX"/><path fill="#3a414a" d="M100-194c62-1 85 37 85 99 1 63-27 99-86 99S16-35 15-95c0-66 28-99 85-99zM99-20c44 1 53-31 53-75 0-43-8-75-51-75s-53 32-53 75 10 74 51 75zM76-211c8-23 27-35 38-54h36v5l-58 49H76" id="aY"/><path fill="#3a414a" d="M115-194c53 0 69 39 70 98 0 66-23 100-70 100C84 3 66-7 56-30L54 0H23l1-261h32v101c10-23 28-34 59-34zm-8 174c40 0 45-34 45-75 0-40-5-75-45-74-42 0-51 32-51 76 0 43 10 73 51 73" id="aZ"/><g id="m"><use transform="matrix(0.04320987654320987,0,0,0.04320987654320987,0,0)" xlink:href="#aj"/><use transform="matrix(0.04320987654320987,0,0,0.04320987654320987,7.777777777777776,0)" xlink:href="#aX"/><use transform="matrix(0.04320987654320987,0,0,0.04320987654320987,16.41975308641975,0)" xlink:href="#au"/><use transform="matrix(0.04320987654320987,0,0,0.04320987654320987,25.061728395061724,0)" xlink:href="#aj"/><use transform="matrix(0.04320987654320987,0,0,0.04320987654320987,32.8395061728395,0)" xlink:href="#aY"/><use transform="matrix(0.04320987654320987,0,0,0.04320987654320987,41.481481481481474,0)" xlink:href="#aZ"/></g><path fill="#3a414a" d="M179-190L93 31C79 59 56 82 12 73V49c39 6 53-20 64-50L1-190h34L92-34l54-156h33" id="ba"/><path fill="#3a414a" d="M103-251c84 0 111 97 45 133-19 10-37 24-39 52H78c0-63 77-55 77-114 0-30-21-42-52-43-32 0-53 17-56 46l-32-2c7-45 34-72 88-72zM77 0v-35h34V0H77" id="bb"/><g id="n"><use transform="matrix(0.04320987654320987,0,0,0.04320987654320987,0,0)" xlink:href="#aB"/><use transform="matrix(0.04320987654320987,0,0,0.04320987654320987,7.777777777777776,0)" xlink:href="#az"/><use transform="matrix(0.04320987654320987,0,0,0.04320987654320987,16.41975308641975,0)" xlink:href="#aA"/><use transform="matrix(0.04320987654320987,0,0,0.04320987654320987,19.83333333333333,0)" xlink:href="#au"/><use transform="matrix(0.04320987654320987,0,0,0.04320987654320987,28.475308641975303,0)" xlink:href="#aj"/><use transform="matrix(0.04320987654320987,0,0,0.04320987654320987,36.25308641975308,0)" xlink:href="#aB"/><use transform="matrix(0.04320987654320987,0,0,0.04320987654320987,44.03086419753086,0)" xlink:href="#au"/><use transform="matrix(0.04320987654320987,0,0,0.04320987654320987,52.672839506172835,0)" xlink:href="#ap"/><use transform="matrix(0.04320987654320987,0,0,0.04320987654320987,61.31481481481481,0)" xlink:href="#ba"/><use transform="matrix(0.04320987654320987,0,0,0.04320987654320987,69.09259259259258,0)" xlink:href="#bb"/></g><g id="o"><use transform="matrix(0.03703703703703702,0,0,0.03703703703703702,0,0)" xlink:href="#aB"/><use transform="matrix(0.03703703703703702,0,0,0.03703703703703702,6.666666666666663,0)" xlink:href="#az"/><use transform="matrix(0.03703703703703702,0,0,0.03703703703703702,14.074074074074067,0)" xlink:href="#aA"/><use transform="matrix(0.03703703703703702,0,0,0.03703703703703702,16.999999999999993,0)" xlink:href="#au"/><use transform="matrix(0.03703703703703702,0,0,0.03703703703703702,24.407407407407398,0)" xlink:href="#aj"/><use transform="matrix(0.03703703703703702,0,0,0.03703703703703702,31.074074074074062,0)" xlink:href="#aB"/><use transform="matrix(0.03703703703703702,0,0,0.03703703703703702,37.740740740740726,0)" xlink:href="#af"/><use transform="matrix(0.03703703703703702,0,0,0.03703703703703702,45.14814814814813,0)" xlink:href="#ap"/><use transform="matrix(0.03703703703703702,0,0,0.03703703703703702,52.555555555555536,0)" xlink:href="#ai"/><use transform="matrix(0.03703703703703702,0,0,0.03703703703703702,55.48148148148146,0)" xlink:href="#af"/></g><path fill="#3a414a" d="M135-143c-3-34-86-38-87 0 15 53 115 12 119 90S17 21 10-45l28-5c4 36 97 45 98 0-10-56-113-15-118-90-4-57 82-63 122-42 12 7 21 19 24 35zm-67-68c8-23 27-35 38-54h36v5l-58 49H68" id="bc"/><g id="p"><use transform="matrix(0.03703703703703702,0,0,0.03703703703703702,0,0)" xlink:href="#au"/><use transform="matrix(0.03703703703703702,0,0,0.03703703703703702,7.407407407407404,0)" xlink:href="#aj"/><use transform="matrix(0.03703703703703702,0,0,0.03703703703703702,14.074074074074067,0)" xlink:href="#au"/><use transform="matrix(0.03703703703703702,0,0,0.03703703703703702,21.481481481481474,0)" xlink:href="#aZ"/><use transform="matrix(0.03703703703703702,0,0,0.03703703703703702,28.888888888888875,0)" xlink:href="#ai"/><use transform="matrix(0.03703703703703702,0,0,0.03703703703703702,31.814814814814795,0)" xlink:href="#bc"/><use transform="matrix(0.03703703703703702,0,0,0.03703703703703702,38.48148148148146,0)" xlink:href="#at"/><use transform="matrix(0.03703703703703702,0,0,0.03703703703703702,45.14814814814812,0)" xlink:href="#ai"/><use transform="matrix(0.03703703703703702,0,0,0.03703703703703702,48.07407407407405,0)" xlink:href="#af"/></g><g id="q"><use transform="matrix(0.03703703703703702,0,0,0.03703703703703702,0,0)" xlink:href="#aX"/><use transform="matrix(0.03703703703703702,0,0,0.03703703703703702,7.407407407407404,0)" xlink:href="#ag"/><use transform="matrix(0.03703703703703702,0,0,0.03703703703703702,11.81481481481481,0)" xlink:href="#aB"/><use transform="matrix(0.03703703703703702,0,0,0.03703703703703702,18.481481481481474,0)" xlink:href="#af"/><use transform="matrix(0.03703703703703702,0,0,0.03703703703703702,25.88888888888888,0)" xlink:href="#aB"/></g><g id="r"><use transform="matrix(0.03703703703703702,0,0,0.03703703703703702,0,0)" xlink:href="#aj"/><use transform="matrix(0.03703703703703702,0,0,0.03703703703703702,6.666666666666663,0)" xlink:href="#af"/><use transform="matrix(0.03703703703703702,0,0,0.03703703703703702,14.074074074074067,0)" xlink:href="#ag"/><use transform="matrix(0.03703703703703702,0,0,0.03703703703703702,18.481481481481474,0)" xlink:href="#av"/><use transform="matrix(0.03703703703703702,0,0,0.03703703703703702,28.074074074074062,0)" xlink:href="#ai"/><use transform="matrix(0.03703703703703702,0,0,0.03703703703703702,30.999999999999986,0)" xlink:href="#aj"/></g><g id="s"><use transform="matrix(0.03703703703703702,0,0,0.03703703703703702,0,0)" xlink:href="#aB"/><use transform="matrix(0.03703703703703702,0,0,0.03703703703703702,6.666666666666663,0)" xlink:href="#az"/><use transform="matrix(0.03703703703703702,0,0,0.03703703703703702,14.074074074074067,0)" xlink:href="#aA"/><use transform="matrix(0.03703703703703702,0,0,0.03703703703703702,16.999999999999993,0)" xlink:href="#au"/><use transform="matrix(0.03703703703703702,0,0,0.03703703703703702,24.407407407407398,0)" xlink:href="#aj"/><use transform="matrix(0.03703703703703702,0,0,0.03703703703703702,31.074074074074062,0)" xlink:href="#aB"/><use transform="matrix(0.03703703703703702,0,0,0.03703703703703702,37.740740740740726,0)" xlink:href="#af"/><use transform="matrix(0.03703703703703702,0,0,0.03703703703703702,45.14814814814813,0)" xlink:href="#ap"/><use transform="matrix(0.03703703703703702,0,0,0.03703703703703702,52.555555555555536,0)" xlink:href="#ai"/><use transform="matrix(0.03703703703703702,0,0,0.03703703703703702,55.48148148148146,0)" xlink:href="#af"/></g><g id="t"><use transform="matrix(0.03703703703703702,0,0,0.03703703703703702,0,0)" xlink:href="#aX"/><use transform="matrix(0.03703703703703702,0,0,0.03703703703703702,7.407407407407404,0)" xlink:href="#ag"/><use transform="matrix(0.03703703703703702,0,0,0.03703703703703702,11.81481481481481,0)" xlink:href="#aB"/><use transform="matrix(0.03703703703703702,0,0,0.03703703703703702,18.481481481481474,0)" xlink:href="#af"/><use transform="matrix(0.03703703703703702,0,0,0.03703703703703702,25.88888888888888,0)" xlink:href="#aB"/></g><path fill="#3a414a" d="M101-234c-31-9-42 10-38 44h38v23H63V0H32v-167H5v-23h27c-7-52 17-82 69-68v24" id="bd"/><g id="u"><use transform="matrix(0.03703703703703702,0,0,0.03703703703703702,0,0)" xlink:href="#aq"/><use transform="matrix(0.03703703703703702,0,0,0.03703703703703702,3.703703703703702,0)" xlink:href="#af"/><use transform="matrix(0.03703703703703702,0,0,0.03703703703703702,11.111111111111107,0)" xlink:href="#ao"/><use transform="matrix(0.03703703703703702,0,0,0.03703703703703702,14.037037037037031,0)" xlink:href="#af"/><use transform="matrix(0.03703703703703702,0,0,0.03703703703703702,21.444444444444436,0)" xlink:href="#bd"/><use transform="matrix(0.03703703703703702,0,0,0.03703703703703702,25.148148148148138,0)" xlink:href="#au"/><use transform="matrix(0.03703703703703702,0,0,0.03703703703703702,32.55555555555554,0)" xlink:href="#ap"/></g><path fill="#3a414a" d="M140-251c81 0 123 46 123 126C263-46 219 4 140 4 59 4 17-45 17-125s42-126 123-126zm0 227c63 0 89-41 89-101s-29-99-89-99c-61 0-89 39-89 99S79-25 140-24" id="be"/><path fill="#3a414a" d="M85-194c31 0 48 13 60 33l-1-100h32l1 261h-30c-2-10 0-23-3-31C134-8 116 4 85 4 32 4 16-35 15-94c0-66 23-100 70-100zm9 24c-40 0-46 34-46 75 0 40 6 74 45 74 42 0 51-32 51-76 0-42-9-74-50-73" id="bf"/><g id="v"><use transform="matrix(0.04320987654320987,0,0,0.04320987654320987,0,0)" xlink:href="#be"/><use transform="matrix(0.04320987654320987,0,0,0.04320987654320987,12.098765432098762,0)" xlink:href="#bf"/><use transform="matrix(0.04320987654320987,0,0,0.04320987654320987,20.740740740740733,0)" xlink:href="#aZ"/><use transform="matrix(0.04320987654320987,0,0,0.04320987654320987,29.382716049382708,0)" xlink:href="#ai"/><use transform="matrix(0.04320987654320987,0,0,0.04320987654320987,32.79629629629629,0)" xlink:href="#aY"/><use transform="matrix(0.04320987654320987,0,0,0.04320987654320987,41.438271604938265,0)" xlink:href="#ag"/></g><path fill="#3a414a" d="M141-36C126-15 110 5 73 4 37 3 15-17 15-53c-1-64 63-63 125-63 3-35-9-54-41-54-24 1-41 7-42 31l-33-3c5-37 33-52 76-52 45 0 72 20 72 64v82c-1 20 7 32 28 27v20c-31 9-61-2-59-35zM48-53c0 20 12 33 32 33 41-3 63-29 60-74-43 2-92-5-92 41zm116 93c-1 20 24 18 37 12v18c-24 11-66 4-62-28 3-27 17-46 51-42-13 8-25 19-26 40" id="bg"/><g id="w"><use transform="matrix(0.04320987654320987,0,0,0.04320987654320987,0,0)" xlink:href="#ax"/><use transform="matrix(0.04320987654320987,0,0,0.04320987654320987,8.641975308641973,0)" xlink:href="#ag"/><use transform="matrix(0.04320987654320987,0,0,0.04320987654320987,13.783950617283947,0)" xlink:href="#aB"/><use transform="matrix(0.04320987654320987,0,0,0.04320987654320987,21.561728395061724,0)" xlink:href="#bg"/><use transform="matrix(0.04320987654320987,0,0,0.04320987654320987,30.2037037037037,0)" xlink:href="#bf"/><use transform="matrix(0.04320987654320987,0,0,0.04320987654320987,38.84567901234567,0)" xlink:href="#aB"/><use transform="matrix(0.04320987654320987,0,0,0.04320987654320987,46.62345679012345,0)" xlink:href="#af"/><use transform="matrix(0.04320987654320987,0,0,0.04320987654320987,55.26543209876542,0)" xlink:href="#ap"/><use transform="matrix(0.04320987654320987,0,0,0.04320987654320987,63.90740740740739,0)" xlink:href="#ai"/><use transform="matrix(0.04320987654320987,0,0,0.04320987654320987,67.32098765432097,0)" xlink:href="#as"/></g><g id="x"><use transform="matrix(0.04320987654320987,0,0,0.04320987654320987,0,0)" xlink:href="#au"/><use transform="matrix(0.04320987654320987,0,0,0.04320987654320987,8.641975308641973,0)" xlink:href="#bf"/></g><g id="y"><use transform="matrix(0.04320987654320987,0,0,0.04320987654320987,0,0)" xlink:href="#aw"/><use transform="matrix(0.04320987654320987,0,0,0.04320987654320987,7.777777777777776,0)" xlink:href="#ao"/><use transform="matrix(0.04320987654320987,0,0,0.04320987654320987,11.191358024691356,0)" xlink:href="#ai"/><use transform="matrix(0.04320987654320987,0,0,0.04320987654320987,14.604938271604935,0)" xlink:href="#af"/><use transform="matrix(0.04320987654320987,0,0,0.04320987654320987,23.246913580246908,0)" xlink:href="#ap"/><use transform="matrix(0.04320987654320987,0,0,0.04320987654320987,31.88888888888888,0)" xlink:href="#aq"/><use transform="matrix(0.04320987654320987,0,0,0.04320987654320987,36.209876543209866,0)" xlink:href="#as"/></g><path d="M160-131c35 5 61 23 61 61C221 17 115-2 30 0v-248c76 3 177-17 177 60 0 33-19 50-47 57zm-97-11c50-1 110 9 110-42 0-47-63-36-110-37v79zm0 115c55-2 124 14 124-45 0-56-70-42-124-44v89" id="bh"/><g id="z"><use transform="matrix(0.05,0,0,0.05,0,0)" xlink:href="#bh"/><use transform="matrix(0.05,0,0,0.05,12,0)" xlink:href="#aQ"/><use transform="matrix(0.05,0,0,0.05,22,0)" xlink:href="#aR"/><use transform="matrix(0.05,0,0,0.05,32,0)" xlink:href="#aQ"/><use transform="matrix(0.05,0,0,0.05,42,0)" xlink:href="#aP"/><use transform="matrix(0.05,0,0,0.05,52,0)" xlink:href="#aJ"/><use transform="matrix(0.05,0,0,0.05,55.95,0)" xlink:href="#aK"/></g><path d="M84 4C-5 8 30-112 23-190h32v120c0 31 7 50 39 49 72-2 45-101 50-169h31l1 190h-30c-1-10 1-25-2-33-11 22-28 36-60 37" id="bi"/><path d="M141-36C126-15 110 5 73 4 37 3 15-17 15-53c-1-64 63-63 125-63 3-35-9-54-41-54-24 1-41 7-42 31l-33-3c5-37 33-52 76-52 45 0 72 20 72 64v82c-1 20 7 32 28 27v20c-31 9-61-2-59-35zM48-53c0 20 12 33 32 33 41-3 63-29 60-74-43 2-92-5-92 41zm116 93c-1 20 24 18 37 12v18c-24 11-66 4-62-28 3-27 17-46 51-42-13 8-25 19-26 40" id="bj"/><g id="A"><use transform="matrix(0.05,0,0,0.05,0,0)" xlink:href="#bi"/><use transform="matrix(0.05,0,0,0.05,10,0)" xlink:href="#aD"/><use transform="matrix(0.05,0,0,0.05,15.949999999999998,0)" xlink:href="#aE"/><use transform="matrix(0.05,0,0,0.05,24.95,0)" xlink:href="#bj"/><use transform="matrix(0.05,0,0,0.05,34.95,0)" xlink:href="#aR"/><use transform="matrix(0.05,0,0,0.05,44.95,0)" xlink:href="#aE"/><use transform="matrix(0.05,0,0,0.05,53.95,0)" xlink:href="#aQ"/><use transform="matrix(0.05,0,0,0.05,63.95,0)" xlink:href="#aP"/><use transform="matrix(0.05,0,0,0.05,73.95,0)" xlink:href="#aJ"/><use transform="matrix(0.05,0,0,0.05,77.9,0)" xlink:href="#aQ"/></g><path fill="#3a414a" d="M233-177c-1 41-23 64-60 70L243 0h-38l-65-103H63V0H30v-248c88 3 205-21 203 71zM63-129c60-2 137 13 137-47 0-61-80-42-137-45v92" id="bk"/><g id="B"><use transform="matrix(0.055555555555555546,0,0,0.055555555555555546,0,0)" xlink:href="#bk"/><use transform="matrix(0.055555555555555546,0,0,0.055555555555555546,14.388888888888886,0)" xlink:href="#au"/><use transform="matrix(0.055555555555555546,0,0,0.055555555555555546,25.499999999999993,0)" xlink:href="#bf"/><use transform="matrix(0.055555555555555546,0,0,0.055555555555555546,36.6111111111111,0)" xlink:href="#aB"/><use transform="matrix(0.055555555555555546,0,0,0.055555555555555546,46.6111111111111,0)" xlink:href="#as"/><use transform="matrix(0.055555555555555546,0,0,0.055555555555555546,57.722222222222214,0)" xlink:href="#aW"/></g><g id="C"><use transform="matrix(0.055555555555555546,0,0,0.055555555555555546,0,0)" xlink:href="#as"/><use transform="matrix(0.055555555555555546,0,0,0.055555555555555546,11.111111111111109,0)" xlink:href="#av"/><use transform="matrix(0.055555555555555546,0,0,0.055555555555555546,25.499999999999993,0)" xlink:href="#as"/><use transform="matrix(0.055555555555555546,0,0,0.055555555555555546,36.6111111111111,0)" xlink:href="#ag"/><use transform="matrix(0.055555555555555546,0,0,0.055555555555555546,43.22222222222221,0)" xlink:href="#ai"/><use transform="matrix(0.055555555555555546,0,0,0.055555555555555546,47.61111111111109,0)" xlink:href="#ai"/></g><path d="M185-189c-5-48-123-54-124 2 14 75 158 14 163 119 3 78-121 87-175 55-17-10-28-26-33-46l33-7c5 56 141 63 141-1 0-78-155-14-162-118-5-82 145-84 179-34 5 7 8 16 11 25" id="bl"/><path d="M115-194c55 1 70 41 70 98S169 2 115 4C84 4 66-9 55-30l1 105H24l-1-265h31l2 30c10-21 28-34 59-34zm-8 174c40 0 45-34 45-75s-6-73-45-74c-42 0-51 32-51 76 0 43 10 73 51 73" id="bm"/><path d="M206 0h-36l-40-164L89 0H53L-1-190h32L70-26l43-164h34l41 164 42-164h31" id="bn"/><g id="D"><use transform="matrix(0.031481481481481485,0,0,0.031481481481481485,0,0)" xlink:href="#bl"/><use transform="matrix(0.031481481481481485,0,0,0.031481481481481485,7.555555555555556,0)" xlink:href="#bm"/><use transform="matrix(0.031481481481481485,0,0,0.031481481481481485,13.851851851851853,0)" xlink:href="#aD"/><use transform="matrix(0.031481481481481485,0,0,0.031481481481481485,17.598148148148148,0)" xlink:href="#aQ"/><use transform="matrix(0.031481481481481485,0,0,0.031481481481481485,23.894444444444446,0)" xlink:href="#bn"/><use transform="matrix(0.031481481481481485,0,0,0.031481481481481485,32.04814814814815,0)" xlink:href="#aR"/><use transform="matrix(0.031481481481481485,0,0,0.031481481481481485,38.34444444444445,0)" xlink:href="#aE"/><use transform="matrix(0.031481481481481485,0,0,0.031481481481481485,44.011111111111106,0)" xlink:href="#aK"/><use transform="matrix(0.031481481481481485,0,0,0.031481481481481485,50.30740740740741,0)" xlink:href="#aP"/><use transform="matrix(0.031481481481481485,0,0,0.031481481481481485,56.60370370370371,0)" xlink:href="#aJ"/><use transform="matrix(0.031481481481481485,0,0,0.031481481481481485,59.09074074074074,0)" xlink:href="#aK"/></g><path d="M205 0l-28-72H64L36 0H1l101-248h38L239 0h-34zm-38-99l-47-123c-12 45-31 82-46 123h93" id="bo"/><g id="E"><use transform="matrix(0.031481481481481485,0,0,0.031481481481481485,0,0)" xlink:href="#bo"/><use transform="matrix(0.031481481481481485,0,0,0.031481481481481485,7.3351851851851855,0)" xlink:href="#bn"/><use transform="matrix(0.031481481481481485,0,0,0.031481481481481485,15.48888888888889,0)" xlink:href="#aQ"/><use transform="matrix(0.031481481481481485,0,0,0.031481481481481485,21.78518518518519,0)" xlink:href="#aD"/><use transform="matrix(0.031481481481481485,0,0,0.031481481481481485,25.531481481481485,0)" xlink:href="#aJ"/><use transform="matrix(0.031481481481481485,0,0,0.031481481481481485,28.018518518518523,0)" xlink:href="#aQ"/></g><path d="M115-194c53 0 69 39 70 98 0 66-23 100-70 100C84 3 66-7 56-30L54 0H23l1-261h32v101c10-23 28-34 59-34zm-8 174c40 0 45-34 45-75 0-40-5-75-45-74-42 0-51 32-51 76 0 43 10 73 51 73" id="bp"/><path d="M210-169c-67 3-38 105-44 169h-31v-121c0-29-5-50-35-48C34-165 62-65 56 0H25l-1-190h30c1 10-1 24 2 32 10-44 99-50 107 0 11-21 27-35 58-36 85-2 47 119 55 194h-31v-121c0-29-5-49-35-48" id="bq"/><g id="F"><use transform="matrix(0.031481481481481485,0,0,0.031481481481481485,0,0)" xlink:href="#aN"/><use transform="matrix(0.031481481481481485,0,0,0.031481481481481485,6.296296296296297,0)" xlink:href="#bp"/><use transform="matrix(0.031481481481481485,0,0,0.031481481481481485,12.592592592592593,0)" xlink:href="#aK"/><use transform="matrix(0.031481481481481485,0,0,0.031481481481481485,18.88888888888889,0)" xlink:href="#aG"/><use transform="matrix(0.031481481481481485,0,0,0.031481481481481485,21.375925925925927,0)" xlink:href="#bq"/><use transform="matrix(0.031481481481481485,0,0,0.031481481481481485,30.78888888888889,0)" xlink:href="#bi"/><use transform="matrix(0.031481481481481485,0,0,0.031481481481481485,37.08518518518519,0)" xlink:href="#aG"/><use transform="matrix(0.031481481481481485,0,0,0.031481481481481485,39.57222222222222,0)" xlink:href="#aK"/></g><g id="G"><use transform="matrix(0.031481481481481485,0,0,0.031481481481481485,0,0)" xlink:href="#aL"/><use transform="matrix(0.031481481481481485,0,0,0.031481481481481485,6.296296296296297,0)" xlink:href="#bn"/><use transform="matrix(0.031481481481481485,0,0,0.031481481481481485,14.450000000000003,0)" xlink:href="#aQ"/><use transform="matrix(0.031481481481481485,0,0,0.031481481481481485,20.7462962962963,0)" xlink:href="#aD"/><use transform="matrix(0.031481481481481485,0,0,0.031481481481481485,24.492592592592597,0)" xlink:href="#aQ"/><use transform="matrix(0.031481481481481485,0,0,0.031481481481481485,30.788888888888895,0)" xlink:href="#aI"/><use transform="matrix(0.031481481481481485,0,0,0.031481481481481485,36.45555555555556,0)" xlink:href="#aG"/><use transform="matrix(0.031481481481481485,0,0,0.031481481481481485,38.942592592592604,0)" xlink:href="#aK"/></g><path fill="#333" d="M115-3C79 11 28 4 28-45v-112H4v-33h27l15-45h31v45h36v33H77v99c-1 23 16 31 38 25v30" id="br"/><path fill="#333" d="M133-34C117-15 103 5 69 4 32 3 11-16 11-54c-1-60 55-63 116-61 1-26-3-47-28-47-18 1-26 9-28 27l-52-2c7-38 36-58 82-57s74 22 75 68l1 82c-1 14 12 18 25 15v27c-30 8-71 5-69-32zm-48 3c29 0 43-24 42-57-32 0-66-3-65 30 0 17 8 27 23 27" id="bs"/><path fill="#333" d="M147 0L96-86 75-71V0H25v-261h50v150l67-79h53l-66 74L201 0h-54" id="bt"/><g id="H"><use transform="matrix(0.04938271604938272,0,0,0.04938271604938272,0,0)" xlink:href="#br"/><use transform="matrix(0.04938271604938272,0,0,0.04938271604938272,5.8765432098765435,0)" xlink:href="#bs"/><use transform="matrix(0.04938271604938272,0,0,0.04938271604938272,15.753086419753087,0)" xlink:href="#bt"/></g><path fill="#3a414a" d="M190 0L58-211 59 0H30v-248h39L202-35l-2-213h31V0h-41" id="bu"/><g id="I"><use transform="matrix(0.06172839506172839,0,0,0.06172839506172839,0,0)" xlink:href="#bu"/><use transform="matrix(0.06172839506172839,0,0,0.06172839506172839,15.987654320987653,0)" xlink:href="#as"/><use transform="matrix(0.06172839506172839,0,0,0.06172839506172839,28.333333333333332,0)" xlink:href="#aX"/><use transform="matrix(0.06172839506172839,0,0,0.06172839506172839,40.67901234567901,0)" xlink:href="#ag"/><use transform="matrix(0.06172839506172839,0,0,0.06172839506172839,48.02469135802469,0)" xlink:href="#as"/><use transform="matrix(0.06172839506172839,0,0,0.06172839506172839,60.37037037037037,0)" xlink:href="#av"/><use transform="matrix(0.06172839506172839,0,0,0.06172839506172839,76.35802469135803,0)" xlink:href="#as"/></g><g id="J"><use transform="matrix(0.06172839506172839,0,0,0.06172839506172839,0,0)" xlink:href="#ax"/><use transform="matrix(0.06172839506172839,0,0,0.06172839506172839,12.345679012345679,0)" xlink:href="#ag"/><use transform="matrix(0.06172839506172839,0,0,0.06172839506172839,19.691358024691358,0)" xlink:href="#aB"/><use transform="matrix(0.06172839506172839,0,0,0.06172839506172839,30.80246913580247,0)" xlink:href="#bg"/><use transform="matrix(0.06172839506172839,0,0,0.06172839506172839,43.148148148148145,0)" xlink:href="#bf"/><use transform="matrix(0.06172839506172839,0,0,0.06172839506172839,55.49382716049382,0)" xlink:href="#aB"/><use transform="matrix(0.06172839506172839,0,0,0.06172839506172839,66.60493827160494,0)" xlink:href="#as"/><use transform="matrix(0.06172839506172839,0,0,0.06172839506172839,78.95061728395062,0)" xlink:href="#ap"/><use transform="matrix(0.06172839506172839,0,0,0.06172839506172839,91.2962962962963,0)" xlink:href="#ai"/><use transform="matrix(0.06172839506172839,0,0,0.06172839506172839,96.17283950617285,0)" xlink:href="#as"/></g><path fill="#3a414a" d="M212-179c-10-28-35-45-73-45-59 0-87 40-87 99 0 60 29 101 89 101 43 0 62-24 78-52l27 14C228-24 195 4 139 4 59 4 22-46 18-125c-6-104 99-153 187-111 19 9 31 26 39 46" id="bv"/><g id="K"><use transform="matrix(0.06172839506172839,0,0,0.06172839506172839,0,0)" xlink:href="#bv"/><use transform="matrix(0.06172839506172839,0,0,0.06172839506172839,15.987654320987653,0)" xlink:href="#aB"/><use transform="matrix(0.06172839506172839,0,0,0.06172839506172839,27.098765432098766,0)" xlink:href="#ba"/></g><path fill="#3a414a" d="M210-169c-67 3-38 105-44 169h-31v-121c0-29-5-50-35-48C34-165 62-65 56 0H25l-1-190h30c1 10-1 24 2 32 10-44 99-50 107 0 11-21 27-35 58-36 85-2 47 119 55 194h-31v-121c0-29-5-49-35-48" id="bw"/><g id="L"><use transform="matrix(0.06172839506172839,0,0,0.06172839506172839,0,0)" xlink:href="#au"/><use transform="matrix(0.06172839506172839,0,0,0.06172839506172839,12.345679012345679,0)" xlink:href="#aZ"/><use transform="matrix(0.06172839506172839,0,0,0.06172839506172839,24.691358024691358,0)" xlink:href="#af"/><use transform="matrix(0.06172839506172839,0,0,0.06172839506172839,37.03703703703704,0)" xlink:href="#aW"/><use transform="matrix(0.06172839506172839,0,0,0.06172839506172839,41.91358024691358,0)" xlink:href="#bw"/><use transform="matrix(0.06172839506172839,0,0,0.06172839506172839,60.37037037037037,0)" xlink:href="#ax"/><use transform="matrix(0.06172839506172839,0,0,0.06172839506172839,72.71604938271605,0)" xlink:href="#aW"/><use transform="matrix(0.06172839506172839,0,0,0.06172839506172839,77.5925925925926,0)" xlink:href="#af"/></g><use transform="matrix(0.06172839506172839,0,0,0.06172839506172839,0,0)" xlink:href="#bb" id="M"/><g id="N"><use transform="matrix(0.06172839506172839,0,0,0.06172839506172839,0,0)" xlink:href="#aV"/><use transform="matrix(0.06172839506172839,0,0,0.06172839506172839,20.740740740740737,0)" xlink:href="#ba"/><use transform="matrix(0.06172839506172839,0,0,0.06172839506172839,31.85185185185185,0)" xlink:href="#at"/><use transform="matrix(0.06172839506172839,0,0,0.06172839506172839,42.96296296296296,0)" xlink:href="#af"/><use transform="matrix(0.06172839506172839,0,0,0.06172839506172839,55.30864197530864,0)" xlink:href="#ap"/><use transform="matrix(0.06172839506172839,0,0,0.06172839506172839,67.65432098765432,0)" xlink:href="#as"/></g><g id="O"><use transform="matrix(0.06172839506172839,0,0,0.06172839506172839,0,0)" xlink:href="#ap"/><use transform="matrix(0.06172839506172839,0,0,0.06172839506172839,12.345679012345679,0)" xlink:href="#as"/><use transform="matrix(0.06172839506172839,0,0,0.06172839506172839,24.691358024691358,0)" xlink:href="#aX"/><use transform="matrix(0.06172839506172839,0,0,0.06172839506172839,37.03703703703704,0)" xlink:href="#ag"/><use transform="matrix(0.06172839506172839,0,0,0.06172839506172839,44.382716049382715,0)" xlink:href="#as"/><use transform="matrix(0.06172839506172839,0,0,0.06172839506172839,56.72839506172839,0)" xlink:href="#av"/><use transform="matrix(0.06172839506172839,0,0,0.06172839506172839,72.71604938271605,0)" xlink:href="#ba"/></g><g id="P"><use transform="matrix(0.04320987654320987,0,0,0.04320987654320987,0,0)" xlink:href="#ar"/><use transform="matrix(0.04320987654320987,0,0,0.04320987654320987,10.370370370370368,0)" xlink:href="#au"/><use transform="matrix(0.04320987654320987,0,0,0.04320987654320987,19.01234567901234,0)" xlink:href="#ai"/><use transform="matrix(0.04320987654320987,0,0,0.04320987654320987,22.42592592592592,0)" xlink:href="#ap"/><use transform="matrix(0.04320987654320987,0,0,0.04320987654320987,31.06790123456789,0)" xlink:href="#bd"/><use transform="matrix(0.04320987654320987,0,0,0.04320987654320987,35.38888888888888,0)" xlink:href="#au"/><use transform="matrix(0.04320987654320987,0,0,0.04320987654320987,44.03086419753085,0)" xlink:href="#ag"/><use transform="matrix(0.04320987654320987,0,0,0.04320987654320987,49.17283950617283,0)" xlink:href="#bw"/><use transform="matrix(0.04320987654320987,0,0,0.04320987654320987,62.09259259259258,0)" xlink:href="#au"/><use transform="matrix(0.04320987654320987,0,0,0.04320987654320987,70.73456790123456,0)" xlink:href="#av"/><use transform="matrix(0.04320987654320987,0,0,0.04320987654320987,81.92592592592591,0)" xlink:href="#as"/><use transform="matrix(0.04320987654320987,0,0,0.04320987654320987,90.56790123456788,0)" xlink:href="#ap"/><use transform="matrix(0.04320987654320987,0,0,0.04320987654320987,99.20987654320986,0)" xlink:href="#ai"/><use transform="matrix(0.04320987654320987,0,0,0.04320987654320987,102.62345679012344,0)" xlink:href="#af"/></g><use transform="matrix(0.04320987654320987,0,0,0.04320987654320987,0,0)" xlink:href="#au" id="Q"/><g id="R"><use transform="matrix(0.04320987654320987,0,0,0.04320987654320987,0,0)" xlink:href="#av"/><use transform="matrix(0.04320987654320987,0,0,0.04320987654320987,11.191358024691356,0)" xlink:href="#ba"/><use transform="matrix(0.04320987654320987,0,0,0.04320987654320987,18.969135802469133,0)" xlink:href="#at"/><use transform="matrix(0.04320987654320987,0,0,0.04320987654320987,26.746913580246908,0)" xlink:href="#af"/><use transform="matrix(0.04320987654320987,0,0,0.04320987654320987,35.38888888888888,0)" xlink:href="#ap"/><use transform="matrix(0.04320987654320987,0,0,0.04320987654320987,44.03086419753085,0)" xlink:href="#ai"/><use transform="matrix(0.04320987654320987,0,0,0.04320987654320987,47.444444444444436,0)" xlink:href="#af"/></g><g id="S"><use transform="matrix(0.06172839506172839,0,0,0.06172839506172839,0,0)" xlink:href="#aW"/><use transform="matrix(0.06172839506172839,0,0,0.06172839506172839,4.876543209876543,0)" xlink:href="#af"/><use transform="matrix(0.06172839506172839,0,0,0.06172839506172839,17.22222222222222,0)" xlink:href="#aj"/><use transform="matrix(0.06172839506172839,0,0,0.06172839506172839,28.333333333333332,0)" xlink:href="#aq"/></g><g id="T"><use transform="matrix(0.06172839506172839,0,0,0.06172839506172839,0,0)" xlink:href="#aB"/><use transform="matrix(0.06172839506172839,0,0,0.06172839506172839,11.11111111111111,0)" xlink:href="#bf"/><use transform="matrix(0.06172839506172839,0,0,0.06172839506172839,23.45679012345679,0)" xlink:href="#af"/><use transform="matrix(0.06172839506172839,0,0,0.06172839506172839,35.80246913580247,0)" xlink:href="#at"/><use transform="matrix(0.06172839506172839,0,0,0.06172839506172839,46.91358024691358,0)" xlink:href="#ba"/><use transform="matrix(0.06172839506172839,0,0,0.06172839506172839,58.0246913580247,0)" xlink:href="#bf"/><use transform="matrix(0.06172839506172839,0,0,0.06172839506172839,70.37037037037038,0)" xlink:href="#au"/><use transform="matrix(0.06172839506172839,0,0,0.06172839506172839,82.71604938271606,0)" xlink:href="#av"/><use transform="matrix(0.06172839506172839,0,0,0.06172839506172839,98.70370370370372,0)" xlink:href="#as"/><use transform="matrix(0.06172839506172839,0,0,0.06172839506172839,111.04938271604941,0)" xlink:href="#ap"/><use transform="matrix(0.06172839506172839,0,0,0.06172839506172839,123.39506172839509,0)" xlink:href="#ba"/></g><g id="U"><use transform="matrix(0.06172839506172839,0,0,0.06172839506172839,0,0)" xlink:href="#aV"/><use transform="matrix(0.06172839506172839,0,0,0.06172839506172839,20.925925925925924,0)" xlink:href="#aX"/><use transform="matrix(0.06172839506172839,0,0,0.06172839506172839,33.2716049382716,0)" xlink:href="#aA"/><use transform="matrix(0.06172839506172839,0,0,0.06172839506172839,38.148148148148145,0)" xlink:href="#bg"/><use transform="matrix(0.06172839506172839,0,0,0.06172839506172839,50.49382716049382,0)" xlink:href="#at"/><use transform="matrix(0.06172839506172839,0,0,0.06172839506172839,61.60493827160494,0)" xlink:href="#af"/><use transform="matrix(0.06172839506172839,0,0,0.06172839506172839,73.95061728395062,0)" xlink:href="#ap"/><use transform="matrix(0.06172839506172839,0,0,0.06172839506172839,86.2962962962963,0)" xlink:href="#ai"/><use transform="matrix(0.06172839506172839,0,0,0.06172839506172839,91.17283950617285,0)" xlink:href="#af"/></g><g id="V"><use transform="matrix(0.06172839506172839,0,0,0.06172839506172839,0,0)" xlink:href="#aw"/><use transform="matrix(0.06172839506172839,0,0,0.06172839506172839,11.11111111111111,0)" xlink:href="#av"/><use transform="matrix(0.06172839506172839,0,0,0.06172839506172839,27.098765432098766,0)" xlink:href="#au"/><use transform="matrix(0.06172839506172839,0,0,0.06172839506172839,39.44444444444444,0)" xlink:href="#aq"/><use transform="matrix(0.06172839506172839,0,0,0.06172839506172839,45.617283950617285,0)" xlink:href="#ba"/></g><g id="W"><use transform="matrix(0.06172839506172839,0,0,0.06172839506172839,0,0)" xlink:href="#ap"/><use transform="matrix(0.06172839506172839,0,0,0.06172839506172839,12.345679012345679,0)" xlink:href="#as"/></g><g id="X"><use transform="matrix(0.06172839506172839,0,0,0.06172839506172839,0,0)" xlink:href="#ap"/><use transform="matrix(0.06172839506172839,0,0,0.06172839506172839,12.345679012345679,0)" xlink:href="#as"/><use transform="matrix(0.06172839506172839,0,0,0.06172839506172839,24.691358024691358,0)" xlink:href="#aX"/><use transform="matrix(0.06172839506172839,0,0,0.06172839506172839,37.03703703703704,0)" xlink:href="#ag"/><use transform="matrix(0.06172839506172839,0,0,0.06172839506172839,44.382716049382715,0)" xlink:href="#as"/><use transform="matrix(0.06172839506172839,0,0,0.06172839506172839,56.72839506172839,0)" xlink:href="#av"/><use transform="matrix(0.06172839506172839,0,0,0.06172839506172839,72.71604938271605,0)" xlink:href="#af"/></g><path fill="#333" d="M135-194c87-1 58 113 63 194h-50c-7-57 23-157-34-157-59 0-34 97-39 157H25l-1-190h47c2 12-1 28 3 38 12-26 28-41 61-42" id="bx"/><path fill="#333" d="M25-224v-37h50v37H25zM25 0v-190h50V0H25" id="by"/><path fill="#333" d="M185-48c-13 30-37 53-82 52C43 2 14-33 14-96s30-98 90-98c62 0 83 45 84 108H66c0 31 8 55 39 56 18 0 30-7 34-22zm-45-69c5-46-57-63-70-21-2 6-4 13-4 21h74" id="bz"/><g id="Y"><use transform="matrix(0.04938271604938272,0,0,0.04938271604938272,0,0)" xlink:href="#bx"/><use transform="matrix(0.04938271604938272,0,0,0.04938271604938272,10.814814814814815,0)" xlink:href="#by"/><use transform="matrix(0.04938271604938272,0,0,0.04938271604938272,15.753086419753087,0)" xlink:href="#bz"/></g><g id="Z"><use transform="matrix(0.06172839506172839,0,0,0.06172839506172839,0,0)" xlink:href="#av"/><use transform="matrix(0.06172839506172839,0,0,0.06172839506172839,15.987654320987653,0)" xlink:href="#ba"/><use transform="matrix(0.06172839506172839,0,0,0.06172839506172839,27.098765432098766,0)" xlink:href="#aj"/><use transform="matrix(0.06172839506172839,0,0,0.06172839506172839,38.20987654320987,0)" xlink:href="#aq"/><use transform="matrix(0.06172839506172839,0,0,0.06172839506172839,44.382716049382715,0)" xlink:href="#as"/><use transform="matrix(0.06172839506172839,0,0,0.06172839506172839,56.72839506172839,0)" xlink:href="#av"/><use transform="matrix(0.06172839506172839,0,0,0.06172839506172839,72.71604938271605,0)" xlink:href="#ai"/><use transform="matrix(0.06172839506172839,0,0,0.06172839506172839,77.5925925925926,0)" xlink:href="#af"/><use transform="matrix(0.06172839506172839,0,0,0.06172839506172839,89.93827160493828,0)" xlink:href="#ap"/><use transform="matrix(0.06172839506172839,0,0,0.06172839506172839,102.28395061728396,0)" xlink:href="#ai"/><use transform="matrix(0.06172839506172839,0,0,0.06172839506172839,107.16049382716051,0)" xlink:href="#af"/></g><g id="aa"><use transform="matrix(0.06172839506172839,0,0,0.06172839506172839,0,0)" xlink:href="#az"/><use transform="matrix(0.06172839506172839,0,0,0.06172839506172839,12.345679012345679,0)" xlink:href="#av"/><use transform="matrix(0.06172839506172839,0,0,0.06172839506172839,28.333333333333332,0)" xlink:href="#as"/><use transform="matrix(0.06172839506172839,0,0,0.06172839506172839,40.67901234567901,0)" xlink:href="#ag"/><use transform="matrix(0.06172839506172839,0,0,0.06172839506172839,48.02469135802469,0)" xlink:href="#as"/><use transform="matrix(0.06172839506172839,0,0,0.06172839506172839,60.37037037037037,0)" xlink:href="#at"/><use transform="matrix(0.06172839506172839,0,0,0.06172839506172839,71.48148148148148,0)" xlink:href="#aW"/><use transform="matrix(0.06172839506172839,0,0,0.06172839506172839,76.35802469135803,0)" xlink:href="#ai"/></g><g id="ab"><use transform="matrix(0.06172839506172839,0,0,0.06172839506172839,0,0)" xlink:href="#am"/><use transform="matrix(0.06172839506172839,0,0,0.06172839506172839,15.987654320987653,0)" xlink:href="#au"/><use transform="matrix(0.06172839506172839,0,0,0.06172839506172839,28.333333333333332,0)" xlink:href="#aj"/><use transform="matrix(0.06172839506172839,0,0,0.06172839506172839,39.44444444444444,0)" xlink:href="#aq"/><use transform="matrix(0.06172839506172839,0,0,0.06172839506172839,45.617283950617285,0)" xlink:href="#as"/><use transform="matrix(0.06172839506172839,0,0,0.06172839506172839,57.96296296296296,0)" xlink:href="#ag"/><use transform="matrix(0.06172839506172839,0,0,0.06172839506172839,65.30864197530865,0)" xlink:href="#at"/><use transform="matrix(0.06172839506172839,0,0,0.06172839506172839,76.41975308641976,0)" xlink:href="#aB"/><use transform="matrix(0.06172839506172839,0,0,0.06172839506172839,87.53086419753087,0)" xlink:href="#af"/><use transform="matrix(0.06172839506172839,0,0,0.06172839506172839,99.87654320987656,0)" xlink:href="#ap"/><use transform="matrix(0.06172839506172839,0,0,0.06172839506172839,112.22222222222224,0)" xlink:href="#ai"/><use transform="matrix(0.06172839506172839,0,0,0.06172839506172839,117.09876543209879,0)" xlink:href="#af"/></g><g id="ac"><use transform="matrix(0.06172839506172839,0,0,0.06172839506172839,0,0)" xlink:href="#ax"/><use transform="matrix(0.06172839506172839,0,0,0.06172839506172839,12.345679012345679,0)" xlink:href="#ag"/><use transform="matrix(0.06172839506172839,0,0,0.06172839506172839,19.691358024691358,0)" xlink:href="#aB"/><use transform="matrix(0.06172839506172839,0,0,0.06172839506172839,30.80246913580247,0)" xlink:href="#bg"/><use transform="matrix(0.06172839506172839,0,0,0.06172839506172839,43.148148148148145,0)" xlink:href="#bf"/><use transform="matrix(0.06172839506172839,0,0,0.06172839506172839,55.49382716049382,0)" xlink:href="#aB"/><use transform="matrix(0.06172839506172839,0,0,0.06172839506172839,66.60493827160494,0)" xlink:href="#af"/><use transform="matrix(0.06172839506172839,0,0,0.06172839506172839,78.95061728395062,0)" xlink:href="#ap"/><use transform="matrix(0.06172839506172839,0,0,0.06172839506172839,91.2962962962963,0)" xlink:href="#ai"/><use transform="matrix(0.06172839506172839,0,0,0.06172839506172839,96.17283950617285,0)" xlink:href="#af"/></g><g id="ad"><use transform="matrix(0.06172839506172839,0,0,0.06172839506172839,0,0)" xlink:href="#bf"/><use transform="matrix(0.06172839506172839,0,0,0.06172839506172839,12.345679012345679,0)" xlink:href="#au"/></g></defs></g></svg>